<?xml version="1.0" encoding="UTF-8"?>
<svg id="Layer_2" data-name="Layer 2" xmlns="http://www.w3.org/2000/svg" viewBox="0 0 400.78 455.81">
  <defs>
    <style>
      .cls-1 {
        fill: #474747;
      }
    </style>
  </defs>
  <g id="Layer_2-2" data-name="Layer 2">
    <g>
      <path class="cls-1" d="M203.19,193.15c-53.25,0-96.57-43.32-96.57-96.57S149.94,0,203.19,0s96.57,43.32,96.57,96.57-43.32,96.57-96.57,96.57Zm0-178.15c-44.98,0-81.57,36.59-81.57,81.57s36.59,81.57,81.57,81.57,81.57-36.59,81.57-81.57S248.17,15,203.19,15Z"/>
      <path class="cls-1" d="M310.06,455.81c-19.6,0-39.16-6.28-55.32-18.68l-43.11-33.24c-19.8-15.19-23.62-43.73-8.5-63.61,15.02-19.74,42.56-23.88,62.72-9.42l48.9,35.74c3.34,2.44,4.07,7.14,1.63,10.48-2.44,3.34-7.14,4.08-10.48,1.63l-48.84-35.7c-13.45-9.65-31.92-6.88-41.98,6.36-10.13,13.32-7.57,32.45,5.71,42.64l43.11,33.24c25,19.18,59.73,20.81,86.43,4.04,27.11-17.03,40.63-49.47,33.64-80.72l-19.26-86.03c-9.59-42.85-37.38-71.44-90.09-92.7-.04-.02-.08-.03-.11-.05l-8.63-3.65c-3.82-1.61-5.6-6.01-3.99-9.83,1.61-3.82,6.01-5.6,9.83-3.99l8.58,3.62c56.95,22.98,88.43,55.81,99.06,103.31l19.26,86.03c8.38,37.43-7.82,76.29-40.3,96.69-14.73,9.25-31.5,13.83-48.24,13.83Z"/>
      <path class="cls-1" d="M90.71,455.81c-16.74,0-33.51-4.58-48.23-13.83C10,421.57-6.19,382.71,2.19,345.28l19.26-86.03c10.63-47.5,42.11-80.33,99.05-103.3l11.54-4.93c3.81-1.63,8.22,.14,9.84,3.95,1.63,3.81-.14,8.22-3.95,9.84l-11.61,4.96s-.09,.04-.14,.06c-52.71,21.26-80.5,49.85-90.09,92.7l-19.26,86.03c-6.99,31.25,6.52,63.68,33.64,80.72,26.7,16.77,61.43,15.14,86.44-4.05l43.08-33.22c13.29-10.2,15.85-29.33,5.72-42.65-10.06-13.23-28.53-16.01-42.04-6.32l-48.79,35.66c-3.34,2.44-8.04,1.71-10.48-1.63-2.44-3.34-1.72-8.04,1.63-10.48l48.84-35.7c20.21-14.5,47.76-10.36,62.77,9.38,15.12,19.88,11.3,48.42-8.51,63.62l-43.08,33.22c-16.17,12.41-35.73,18.69-55.34,18.69Z"/>
      <path class="cls-1" d="M255.28,334.92c-30.54,0-55.39-24.85-55.39-55.39s24.85-55.39,55.39-55.39,55.39,24.85,55.39,55.39-24.85,55.39-55.39,55.39Zm0-95.79c-22.27,0-40.39,18.12-40.39,40.39s18.12,40.39,40.39,40.39,40.39-18.12,40.39-40.39-18.12-40.39-40.39-40.39Z"/>
      <path class="cls-1" d="M139.29,344.44c-1.17,0-2.35-.27-3.45-.85-3.67-1.91-5.1-6.44-3.19-10.11l11.07-21.28c-16.34-13.11-27.66-31.34-32.15-51.97l-.39-1.8c-2.81-12.92,4.59-25.61,17.23-29.52,6.68-2.06,13.98-1.25,20.04,2.23,6.06,3.48,10.44,9.38,12.02,16.18,2.98,12.8,11.99,23.47,24.12,28.55l25.82,10.8c3.82,1.6,5.62,5.99,4.02,9.81-1.6,3.82-5.99,5.62-9.81,4.02l-25.82-10.8c-16.56-6.93-28.87-21.5-32.94-38.99-.65-2.81-2.39-5.14-4.88-6.58-2.5-1.43-5.39-1.76-8.14-.91-5.13,1.59-8.14,6.74-7,11.99l.39,1.8c4.16,19.08,15.29,35.7,31.36,46.8,3.11,2.15,4.14,6.28,2.39,9.63l-14.01,26.93c-1.34,2.57-3.95,4.04-6.66,4.04Z"/>
      <path class="cls-1" d="M148.35,135.19c-3.84,0-7.11-2.94-7.46-6.84-.37-4.13,2.68-7.77,6.81-8.14,30.45-2.71,54.38-15.39,71.12-37.69,12.49-16.64,16.03-32.34,16.06-32.49,.89-4.05,4.89-6.61,8.93-5.72,4.05,.89,6.61,4.88,5.72,8.93-.17,.77-4.29,19.08-18.72,38.29-13.34,17.76-38.36,39.75-81.78,43.62-.23,.02-.45,.03-.67,.03Z"/>
      <path class="cls-1" d="M264.31,115.24c-1.05,0-2.12-.22-3.14-.69-23.07-10.65-34.3-31.55-34.77-32.43-1.93-3.66-.53-8.2,3.13-10.13,3.66-1.93,8.18-.54,10.12,3.11h0c.09,.17,9.46,17.37,27.8,25.84,3.76,1.74,5.4,6.19,3.67,9.95-1.27,2.74-3.98,4.36-6.81,4.36Z"/>
    </g>
  </g>
</svg>