<?xml version="1.0" encoding="UTF-8"?>
<svg id="Layer_2" data-name="Layer 2" xmlns="http://www.w3.org/2000/svg" viewBox="0 0 413.05 496.15">
  <defs>
    <style>
      .cls-1 {
        fill: #474747;
      }
    </style>
  </defs>
  <g id="Layer_2-2" data-name="Layer 2">
    <g>
      <g>
        <path class="cls-1" d="M184.4,439.26c-44.02,0-83.84-12.38-112.12-34.85-30.97-24.61-47.34-59.9-47.34-102.03,0-32.54,7.76-63,23.06-90.52,2.01-3.62,6.58-4.92,10.2-2.91,3.62,2.01,4.92,6.58,2.91,10.2-14.05,25.27-21.17,53.27-21.17,83.23,0,37.4,14.41,68.62,41.67,90.29,25.63,20.37,62.13,31.59,102.78,31.59,37.22,0,69.74-7.69,94.04-22.25,26.19-15.69,42.37-38.72,48.1-68.47,.78-4.07,4.71-6.73,8.78-5.95,4.07,.78,6.73,4.72,5.95,8.78-6.48,33.64-25.54,60.78-55.12,78.5-26.63,15.95-61.81,24.38-101.74,24.38Z"/>
        <g>
          <circle class="cls-1" cx="105.93" cy="289.1" r="15.49" transform="translate(-199.77 325.78) rotate(-76.72)"/>
          <circle class="cls-1" cx="208.45" cy="289.1" r="15.49" transform="translate(-143.37 232.07) rotate(-45)"/>
        </g>
        <path class="cls-1" d="M157.34,376.51c-16.03,0-29.07-13.04-29.07-29.07v-5.67c0-4.14,3.36-7.5,7.5-7.5h43.13c4.14,0,7.5,3.36,7.5,7.5v5.67c0,16.03-13.04,29.07-29.07,29.07Zm-13.95-27.24c.9,6.9,6.81,12.24,13.95,12.24s13.05-5.34,13.95-12.24h-27.9Z"/>
        <path class="cls-1" d="M321.67,319.35c-9.57,0-18.59-4.68-24.11-12.51-2.39-3.39-1.58-8.06,1.81-10.45,3.39-2.39,8.07-1.57,10.45,1.81,2.71,3.85,7.14,6.15,11.84,6.15,7.98,0,14.48-6.49,14.48-14.48v-22.54c0-7.98-6.49-14.48-14.48-14.48-4.94,0-9.49,2.48-12.17,6.63-2.25,3.48-6.89,4.48-10.37,2.23-3.48-2.25-4.48-6.89-2.23-10.37,5.46-8.45,14.72-13.49,24.77-13.49,16.25,0,29.48,13.22,29.48,29.48v22.54c0,16.25-13.22,29.48-29.48,29.48Z"/>
        <path class="cls-1" d="M49.24,494.64c-1.24,0-2.49-.31-3.65-.95-3.62-2.02-4.91-6.59-2.9-10.2l11.43-20.5c13.19-23.66,37.22-38.67,64.27-40.14l28.21-1.54c4.13-.23,7.67,2.94,7.9,7.08,.23,4.14-2.94,7.67-7.08,7.9l-28.21,1.54c-21.88,1.2-41.31,13.34-51.99,32.47l-11.43,20.5c-1.37,2.46-3.93,3.85-6.56,3.85Z"/>
        <path class="cls-1" d="M307.76,496.15c-2.63,0-5.18-1.39-6.56-3.85l-11.43-20.5c-10.67-19.14-30.11-31.28-51.99-32.47l-28.21-1.54c-4.14-.23-7.31-3.76-7.08-7.9,.23-4.14,3.78-7.31,7.9-7.08l28.21,1.54c27.05,1.48,51.07,16.49,64.27,40.15l11.43,20.5c2.02,3.62,.72,8.19-2.9,10.2-1.16,.64-2.41,.95-3.65,.95Z"/>
        <path class="cls-1" d="M340.64,151.08c-6.05,0-12.29-.55-18.66-1.82-4.06-.81-6.7-4.76-5.88-8.83s4.76-6.69,8.83-5.88c24.15,4.83,46.85-2.8,61.08-9.64-8.1-3.69-14.37-8.9-20.51-14-9.56-7.94-18.59-15.44-35.31-18.28-27.37-4.66-36.5,9.56-37.19,10.72-1.67,3.3-5.44,4.8-8.97,3.65-3.54-1.15-5.64-4.83-5.01-8.49,.02-.11,2.2-13.97-2.73-31.22-5.88-20.56-18.93-37.11-38.85-49.28-5.58,13.01-15.31,41.75-3.35,62.81,2.05,3.6,.79,8.18-2.82,10.23-3.6,2.05-8.18,.79-10.23-2.82-20-35.2,5.39-82.33,6.48-84.32,1.96-3.58,6.44-4.93,10.05-3.04,34.65,18.13,48.13,44.29,53.33,63.03,1.92,6.92,2.88,13.35,3.31,18.85,8.34-4.6,20.76-7.91,38.49-4.89,20.69,3.52,32.21,13.09,42.38,21.53,9.57,7.95,17.13,14.22,31.12,15.44,3.11,.27,5.73,2.44,6.57,5.44,.84,3.01-.26,6.22-2.78,8.07-1.45,1.07-31.43,22.75-69.35,22.75Z"/>
        <path class="cls-1" d="M176.03,470.25c-20.59,0-37.33-16.75-37.33-37.33,0-4.14,3.36-7.5,7.5-7.5s7.5,3.36,7.5,7.5c0,12.32,10.02,22.33,22.33,22.33s22.33-10.02,22.33-22.33c0-4.14,3.36-7.5,7.5-7.5s7.5,3.36,7.5,7.5c0,20.59-16.75,37.33-37.33,37.33Z"/>
      </g>
      <path class="cls-1" d="M291.2,238.29c-1.78,0-3.57-.63-5-1.92-11.35-10.18-20.49-27.23-24.93-36.5-78.3,26.17-138.67,18.59-175.88,7.37-41.84-12.61-64.11-32.11-65.04-32.94-2.91-2.59-3.36-6.97-1.03-10.09,.87-1.16,21.69-28.74,57.77-49.45,33.63-19.3,87.17-35.87,151.28-5.19,3.74,1.79,5.32,6.27,3.53,10-1.79,3.74-6.27,5.31-10,3.53-46.59-22.29-92.64-20.81-136.89,4.42-24.07,13.72-41.13,31.14-48.92,39.98,8.73,6.17,27.22,17.54,54.45,25.63,35.96,10.68,95.04,17.68,172.26-9.64,3.76-1.33,7.9,.52,9.43,4.2,.1,.25,10.73,25.61,24,37.51,3.08,2.77,3.34,7.51,.58,10.59-1.48,1.65-3.53,2.49-5.59,2.49Z"/>
      <path class="cls-1" d="M247.54,150.85c-15.55,0-28.21-12.65-28.21-28.2s12.65-28.2,28.21-28.2,28.2,12.65,28.2,28.2-12.65,28.2-28.2,28.2Zm0-41.41c-7.28,0-13.21,5.92-13.21,13.2s5.92,13.2,13.21,13.2,13.2-5.92,13.2-13.2-5.92-13.2-13.2-13.2Z"/>
      <path class="cls-1" d="M282.4,177.95c-15.55,0-28.21-12.65-28.21-28.2s12.65-28.21,28.21-28.21,28.2,12.65,28.2,28.21-12.65,28.2-28.2,28.2Zm0-41.41c-7.28,0-13.21,5.92-13.21,13.21s5.92,13.2,13.21,13.2,13.2-5.92,13.2-13.2-5.92-13.21-13.2-13.21Z"/>
      <path class="cls-1" d="M329.83,227.09c-3.85,0-7.13-2.95-7.46-6.86-1.84-21.48-14.49-31.77-15.03-32.2-3.28-2.53-3.87-7.22-1.34-10.5,2.53-3.28,7.26-3.87,10.54-1.34,.75,.58,18.34,14.44,20.77,42.76,.35,4.13-2.7,7.76-6.83,8.11-.22,.02-.44,.03-.65,.03Z"/>
      <path class="cls-1" d="M31.12,319.76c-17.16,0-31.12-13.96-31.12-31.12v-24.22c0-17.16,13.96-31.12,31.12-31.12,4.46,0,8.77,.93,12.81,2.75,3.77,1.71,5.45,6.15,3.74,9.92-1.71,3.77-6.15,5.45-9.92,3.74-2.08-.94-4.32-1.42-6.63-1.42-8.89,0-16.12,7.23-16.12,16.12v24.22c0,8.89,7.23,16.12,16.12,16.12,4.14,0,7.5,3.36,7.5,7.5s-3.36,7.5-7.5,7.5Z"/>
    </g>
  </g>
</svg>