<?xml version="1.0" encoding="UTF-8"?>
<svg id="Layer_2" data-name="Layer 2" xmlns="http://www.w3.org/2000/svg" viewBox="0 0 391.68 494.5">
  <defs>
    <style>
      .cls-1 {
        fill: #474747;
      }
    </style>
  </defs>
  <g id="Layer_2-2" data-name="Layer 2">
    <g>
      <path class="cls-1" d="M196.76,428.17c-51.06,0-97.22-14.34-129.97-40.37-35.81-28.46-54.74-69.27-54.74-118.01,0-36.95,11.11-76.43,31.28-111.18,2.08-3.58,6.67-4.8,10.25-2.72,3.58,2.08,4.8,6.67,2.72,10.25-18.86,32.49-29.25,69.3-29.25,103.64,0,44.01,16.97,80.76,49.07,106.27,30.11,23.93,72.96,37.11,120.64,37.11,41.8,0,79.31-9.84,108.48-28.45,30.19-19.26,50.14-47.43,57.69-81.47,.9-4.04,4.9-6.6,8.95-5.7,4.04,.9,6.59,4.9,5.7,8.95-8.43,38-30.65,69.42-64.27,90.87-31.59,20.15-71.89,30.8-116.55,30.8Z"/>
      <g>
        <circle class="cls-1" cx="105.25" cy="238.77" r="18.06" transform="translate(-150.84 288.8) rotate(-77.27)"/>
        <circle class="cls-1" cx="224.81" cy="238.77" r="18.06" transform="translate(-102.99 228.9) rotate(-45)"/>
      </g>
      <path class="cls-1" d="M165.21,337.7c-18,0-32.65-14.65-32.65-32.65v-6.62c0-4.14,3.36-7.5,7.5-7.5s7.5,3.36,7.5,7.5v6.62c0,9.73,7.92,17.65,17.65,17.65s17.65-7.92,17.65-17.65v-6.62c0-4.14,3.36-7.5,7.5-7.5s7.5,3.36,7.5,7.5v6.62c0,18-14.65,32.65-32.65,32.65Z"/>
      <path class="cls-1" d="M358.28,289c-10.85,0-21.06-5.3-27.32-14.18-2.39-3.39-1.58-8.06,1.81-10.45,3.39-2.38,8.06-1.58,10.45,1.81,3.45,4.9,9.08,7.82,15.06,7.82,10.15,0,18.4-8.26,18.4-18.4v-26.57c0-10.15-8.26-18.4-18.4-18.4-6.28,0-12.06,3.15-15.47,8.43-2.25,3.48-6.89,4.48-10.37,2.23-3.48-2.25-4.48-6.89-2.23-10.37,6.19-9.57,16.68-15.29,28.07-15.29,18.42,0,33.4,14.98,33.4,33.4v26.57c0,18.42-14.98,33.4-33.4,33.4Z"/>
      <path class="cls-1" d="M351.77,185.02c-2.96,0-5.76-1.76-6.95-4.67-14.25-34.94-49.89-66.65-95.35-84.82-.13-.05-.26-.11-.39-.17-.21-.1-23.14-10.49-57.86-10.49-44.56,0-55.93-22.49-65.07-40.57-6.88-13.6-12.31-24.35-29.5-28.34-8.32-1.93-14.82-.95-19.88,3.01-10.44,8.18-12.98,27.83-13.07,34.72-.04,2.83-1.67,5.41-4.22,6.65-2.55,1.24-5.58,.94-7.83-.78-3.81-2.92-14.61-3.92-23.52,1.08-9.99,5.6-14.42,16.85-12.79,32.53,1.69,16.31,17.65,31.37,39.71,37.48,23.14,6.4,55.39,3.2,76.54-25,2.49-3.31,7.19-3.98,10.5-1.5,3.31,2.49,3.99,7.19,1.5,10.5-25.68,34.24-64.64,38.18-92.54,30.46C22.65,137.25,2.77,117.47,.41,94.72c-3.05-29.4,11.46-42.17,20.38-47.16,7.95-4.45,19.23-6.62,28.92-4.68,1.67-10.58,6.08-26.48,17.77-35.67C76.22,.33,87.18-1.64,100.05,1.35c24.02,5.58,32.24,21.84,39.49,36.19,8.77,17.35,16.35,32.34,51.68,32.34s61.28,10.57,63.98,11.79c49.08,19.66,87.77,54.43,103.5,93.02,1.56,3.84-.28,8.21-4.11,9.78-.93,.38-1.89,.56-2.83,.56Z"/>
      <path class="cls-1" d="M39.14,492.74c-1.24,0-2.49-.31-3.65-.95-3.62-2.02-4.91-6.59-2.9-10.2l13.33-23.9c15.18-27.21,42.81-44.48,73.93-46.18l32.9-1.8c4.13-.23,7.67,2.94,7.9,7.08,.23,4.14-2.94,7.67-7.08,7.9l-32.9,1.8c-25.94,1.42-48.99,15.81-61.65,38.51l-13.33,23.9c-1.37,2.46-3.93,3.85-6.56,3.85Z"/>
      <path class="cls-1" d="M340.62,494.5c-2.63,0-5.18-1.39-6.56-3.85l-13.33-23.9c-12.66-22.69-35.7-37.09-61.65-38.51l-32.9-1.8c-4.14-.23-7.31-3.76-7.08-7.9,.23-4.14,3.75-7.31,7.9-7.08l32.9,1.8c31.11,1.7,58.75,18.96,73.93,46.18l13.33,23.9c2.02,3.62,.72,8.19-2.9,10.2-1.16,.65-2.41,.95-3.65,.95Z"/>
      <path class="cls-1" d="M184.38,463.07c-21.81,0-39.56-17.75-39.56-39.56,0-4.14,3.36-7.5,7.5-7.5s7.5,3.36,7.5,7.5c0,13.54,11.02,24.56,24.56,24.56s24.56-11.02,24.56-24.56c0-4.14,3.36-7.5,7.5-7.5s7.5,3.36,7.5,7.5c0,21.81-17.75,39.56-39.56,39.56Z"/>
    </g>
  </g>
</svg>