<?xml version="1.0" encoding="UTF-8"?>
<svg id="Layer_2" data-name="Layer 2" xmlns="http://www.w3.org/2000/svg" viewBox="0 0 419.85 485.99">
  <defs>
    <style>
      .cls-1 {
        fill: #474747;
      }
    </style>
  </defs>
  <g id="Layer_2-2" data-name="Layer 2">
    <g>
      <g>
        <path class="cls-1" d="M207.21,413.39c-55.73,0-106.09-15.64-141.82-44.03C26.38,338.35,5.75,293.88,5.75,240.75c0-26.76,5.06-52.49,15.93-80.99,1.48-3.87,5.81-5.81,9.68-4.34,3.87,1.48,5.81,5.81,4.34,9.68-10.19,26.73-14.94,50.77-14.94,75.64,0,48.39,18.66,88.81,53.98,116.87,33.08,26.29,80.13,40.77,132.48,40.77,45.89,0,87.08-10.81,119.12-31.25,33.2-21.19,55.15-52.18,63.46-89.62,.9-4.04,4.9-6.59,8.95-5.7,4.04,.9,6.59,4.9,5.7,8.95-9.19,41.41-33.4,75.64-70.03,99.01-34.46,21.98-78.44,33.6-127.19,33.6Z"/>
        <g>
          <circle class="cls-1" cx="107.05" cy="234.15" r="19.77" transform="translate(-134.22 144.28) rotate(-45)"/>
          <circle class="cls-1" cx="237.91" cy="234.15" r="19.77" transform="translate(-90.47 174.19) rotate(-34.2)"/>
        </g>
        <path class="cls-1" d="M172.67,341.73c-19.31,0-35.03-15.71-35.03-35.03v-7.24c0-4.14,3.36-7.5,7.5-7.5s7.5,3.36,7.5,7.5v7.24c0,11.04,8.98,20.03,20.03,20.03s20.03-8.98,20.03-20.03v-7.24c0-4.14,3.36-7.5,7.5-7.5s7.5,3.36,7.5,7.5v7.24c0,19.31-15.71,35.03-35.03,35.03Z"/>
        <path class="cls-1" d="M384,261.06c-11.64,0-22.61-5.69-29.32-15.22-2.39-3.39-1.58-8.06,1.81-10.45,3.39-2.39,8.07-1.57,10.45,1.81,3.91,5.55,10.29,8.86,17.06,8.86,11.5,0,20.85-9.35,20.85-20.85v-29.08c0-11.5-9.35-20.85-20.85-20.85-7.11,0-13.66,3.57-17.53,9.55-2.25,3.48-6.89,4.48-10.37,2.23-3.48-2.25-4.48-6.89-2.23-10.37,6.64-10.28,17.9-16.41,30.13-16.41,19.77,0,35.85,16.08,35.85,35.85v29.08c0,19.77-16.08,35.85-35.85,35.85Z"/>
        <path class="cls-1" d="M376.87,147.26c-2.96,0-5.76-1.76-6.95-4.67-15.66-38.42-54.83-73.27-104.76-93.23-.13-.05-.26-.11-.39-.17-.24-.11-25.44-11.55-63.63-11.55-1.01,0-2.01-.2-2.94-.6-.22-.09-22.69-9.56-51.73-16.02-37.64-8.37-69.27-7.94-91.45,1.22-16.71,6.9-28.14,18.42-34.96,35.2-12.84,31.61,.39,57.07,19.2,68.27,10.9,6.49,27.34,9.55,37.84-3.19,2.63-3.2,7.36-3.66,10.56-1.02,3.2,2.63,3.66,7.36,1.02,10.56-13.4,16.28-36.35,18.9-57.1,6.54-12.81-7.63-22.66-19.74-27.75-34.1C-1.98,88.11-1.17,69.88,6.17,51.81,14.47,31.38,28.99,16.77,49.33,8.37c56.76-23.43,140.92,9.2,153.33,14.28,39.41,.28,65.43,11.57,68.24,12.85,53.56,21.45,95.75,59.36,112.91,101.43,1.56,3.84-.28,8.21-4.11,9.78-.93,.38-1.89,.56-2.83,.56Z"/>
        <path class="cls-1" d="M34.7,484.06c-1.24,0-2.49-.31-3.65-.95-3.62-2.02-4.91-6.59-2.9-10.2l14.59-26.16c16.49-29.57,46.52-48.33,80.33-50.18l36.01-1.97c4.13-.23,7.67,2.94,7.9,7.08,.23,4.14-2.94,7.67-7.08,7.9l-36.01,1.97c-28.64,1.57-54.08,17.46-68.05,42.51l-14.59,26.16c-1.37,2.46-3.93,3.85-6.56,3.85Z"/>
        <path class="cls-1" d="M364.67,485.99c-2.63,0-5.18-1.39-6.56-3.85l-14.59-26.16c-13.97-25.05-39.41-40.94-68.05-42.51l-36.01-1.97c-4.14-.23-7.31-3.76-7.08-7.9,.23-4.14,3.74-7.31,7.9-7.08l36.01,1.97c33.81,1.85,63.84,20.61,80.33,50.18l14.59,26.16c2.02,3.62,.72,8.19-2.9,10.2-1.16,.65-2.41,.95-3.65,.95Z"/>
        <path class="cls-1" d="M193.66,451.59c-23.48,0-42.59-19.1-42.59-42.59,0-4.14,3.36-7.5,7.5-7.5s7.5,3.36,7.5,7.5c0,15.21,12.38,27.59,27.59,27.59s27.59-12.38,27.59-27.59c0-4.14,3.36-7.5,7.5-7.5s7.5,3.36,7.5,7.5c0,23.48-19.1,42.59-42.59,42.59Z"/>
      </g>
      <path class="cls-1" d="M139.07,169.64c-5.41,0-11.22-.72-17.43-2.17-38.93-9.07-48.35-36.54-44.19-59.22,5.33-29.04,33.57-57.1,67.12-52.59,4.11,.55,6.98,4.33,6.43,8.43-.55,4.1-4.33,6.98-8.43,6.43-24.7-3.33-46.37,18.64-50.37,40.43-1.81,9.88-2.24,33.73,32.85,41.91,14.01,3.26,24.87,2.01,32.26-3.73,10.98-8.53,11.62-24.86,11.63-25.02,.09-4.14,3.48-7.42,7.66-7.34,4.14,.09,7.43,3.52,7.34,7.66-.02,.96-.69,23.55-17.42,36.55-7.43,5.77-16.61,8.66-27.44,8.66Z"/>
    </g>
  </g>
</svg>