<svg width="34" height="48" viewBox="0 0 34 48" fill="none" xmlns="http://www.w3.org/2000/svg">
<g clip-path="url(#clip0_4_437)">
<path d="M24.9451 34.1692C29.8001 34.1692 33.75 30.5355 33.75 26.0681C33.75 21.6008 29.8001 17.967 24.9451 17.967C24.8512 17.967 24.7553 17.968 24.6594 17.9709C23.7309 16.3556 22.2388 15.0759 20.4101 14.3372C20.0344 14.1855 19.6068 14.3675 19.4551 14.7432C19.3035 15.1189 19.4855 15.5465 19.8612 15.6981C21.5167 16.3664 22.8356 17.558 23.5763 19.055C23.7093 19.324 23.9931 19.4845 24.2925 19.461C24.5126 19.4434 24.7328 19.4346 24.9461 19.4346C28.9919 19.4346 32.2833 22.4099 32.2833 26.0681C32.2833 29.7263 28.9919 32.7016 24.9461 32.7016C24.541 32.7016 24.2123 33.0304 24.2123 33.4354C24.2123 33.8405 24.541 34.1692 24.9461 34.1692H24.9451Z" fill="#EC6851"/>
<path d="M8.80391 34.1694C9.20898 34.1694 9.53774 33.8407 9.53774 33.4356C9.53774 33.0305 9.20898 32.7018 8.80391 32.7018C4.7581 32.7018 1.46666 29.7265 1.46666 26.0683C1.46666 22.4101 4.7581 19.4348 8.80391 19.4348C9.01721 19.4348 9.23638 19.4436 9.45751 19.4612C9.75691 19.4847 10.0406 19.3242 10.1737 19.0552C10.9115 17.5641 12.2255 16.3744 13.8732 15.7051C14.2489 15.5525 14.4299 15.125 14.2773 14.7493C14.1246 14.3736 13.697 14.1925 13.3213 14.3452C11.5005 15.0848 10.0152 16.3616 9.08962 17.9711C8.99373 17.9682 8.89882 17.9672 8.80391 17.9672C3.94894 17.9672 -0.000987676 21.6009 -0.000987676 26.0683C-0.000987676 30.5356 3.94894 34.1694 8.80391 34.1694Z" fill="#EC6851"/>
<path d="M16.875 36.5694C22.5939 36.5694 27.0732 34.006 27.0732 30.7333C27.0732 30.3283 26.7444 29.9995 26.3394 29.9995C25.9343 29.9995 25.6055 30.3283 25.6055 30.7333C25.6055 33.101 21.6077 35.1018 16.875 35.1018C12.1423 35.1018 8.14445 33.101 8.14445 30.7333C8.14445 30.3283 7.8157 29.9995 7.41063 29.9995C7.00556 29.9995 6.67681 30.3283 6.67681 30.7333C6.67681 34.006 11.1561 36.5694 16.875 36.5694Z" fill="#EC6851"/>
<path d="M8.89001 48H24.86C25.1584 48 25.4275 47.819 25.54 47.5421L31.0094 34.054C31.162 33.6783 30.981 33.2507 30.6053 33.0981C30.2296 32.9455 29.802 33.1265 29.6494 33.5022L24.3659 46.5324H9.38999L4.35303 33.6763C4.20528 33.2987 3.77967 33.1128 3.40199 33.2605C3.02432 33.4083 2.83842 33.8339 2.98616 34.2115L8.20609 47.5333C8.31665 47.8141 8.58768 47.999 8.88903 47.999L8.89001 48Z" fill="#EC6851"/>
<path d="M21.4413 47.9999C21.7828 47.9999 22.0881 47.7602 22.1595 47.4128L24.316 36.8765C24.3972 36.4793 24.1408 36.0918 23.7446 36.0106C23.3473 35.9294 22.9599 36.1858 22.8787 36.582L20.7222 47.1183C20.641 47.5156 20.8973 47.903 21.2936 47.9842C21.3435 47.994 21.3924 47.9989 21.4413 47.9989V47.9999Z" fill="#EC6851"/>
<path d="M12.2314 47.9999C12.2803 47.9999 12.3292 47.995 12.3791 47.9852C12.7764 47.904 13.0317 47.5166 12.9505 47.1193L10.7941 36.583C10.7128 36.1858 10.3254 35.9304 9.92815 36.0116C9.5309 36.0928 9.27553 36.4803 9.35674 36.8775L11.5132 47.4138C11.5846 47.7612 11.8899 48.0009 12.2314 48.0009V47.9999Z" fill="#EC6851"/>
<path d="M16.875 48.0001C17.2801 48.0001 17.6088 47.6714 17.6088 47.2663V37.9872C17.6088 37.5822 17.2801 37.2534 16.875 37.2534C16.4699 37.2534 16.1412 37.5822 16.1412 37.9872V47.2663C16.1412 47.6714 16.4699 48.0001 16.875 48.0001Z" fill="#EC6851"/>
<path d="M15.6823 19.4781C16.0874 19.4781 16.4161 19.1493 16.4161 18.7443V8.39191H17.1157V18.7453C17.1157 19.1503 17.4444 19.4791 17.8495 19.4791C18.2546 19.4791 18.5833 19.1503 18.5833 18.7453V7.65811C18.5833 7.25306 18.2546 6.92432 17.8495 6.92432H15.6823C15.2772 6.92432 14.9485 7.25306 14.9485 7.65811V18.7453C14.9485 19.1503 15.2772 19.4791 15.6823 19.4791V19.4781Z" fill="#EC6851"/>
<path d="M15.9895 6.49258C16.1774 6.49258 16.3662 6.42017 16.5091 6.27635C16.7948 5.9887 16.7938 5.52494 16.5071 5.23827C16.4034 5.13457 16.0942 4.70114 16.1891 3.2766C16.3056 3.41161 16.422 3.53391 16.5316 3.65034C16.7723 3.90277 16.9797 4.12095 17.1314 4.4174C17.3515 4.84887 17.0443 5.23338 17.0081 5.27643L17.0149 5.2686L18.1059 6.24993C18.4865 5.82629 18.9855 4.82344 18.4376 3.75014C18.189 3.26485 17.873 2.9322 17.5942 2.63966C17.1451 2.16807 16.7576 1.76008 16.5991 0.631997C16.5511 0.286624 16.2664 0.0234356 15.9191 0.000932592C15.5737 -0.0205921 15.2567 0.204438 15.1647 0.540028C14.97 1.25328 14.0708 4.8841 15.471 6.27831C15.6138 6.42115 15.8017 6.49258 15.9885 6.49258H15.9895Z" fill="#EC6851"/>
<path d="M13.1178 20.5412C13.2421 20.5412 13.3683 20.5099 13.4838 20.4434C16.9552 18.4406 19.5882 20.3171 19.6988 20.3974C20.0246 20.6361 20.4835 20.5676 20.7241 20.2428C20.9648 19.918 20.8993 19.462 20.5754 19.2194C20.4345 19.1137 17.0834 16.6717 12.7509 19.1714C12.3997 19.374 12.2793 19.8231 12.4818 20.1733C12.6178 20.4091 12.8644 20.5402 13.1178 20.5402V20.5412Z" fill="#EC6851"/>
</g>
<defs>
<clipPath id="clip0_4_437">
<rect width="33.75" height="48" fill="white" transform="matrix(-1 0 0 1 33.75 0)"/>
</clipPath>
</defs>
</svg>
