<svg xmlns="http://www.w3.org/2000/svg" xmlns:xlink="http://www.w3.org/1999/xlink" width="500" zoomAndPan="magnify" viewBox="0 0 375 110.999996" height="148" preserveAspectRatio="xMidYMid meet" version="1.0"><defs><clipPath id="519ecd17e7"><path d="M 115.554688 33 L 158 33 L 158 96.585938 L 115.554688 96.585938 Z M 115.554688 33 " clip-rule="nonzero"/></clipPath><clipPath id="66627f9c2f"><path d="M 115.554688 30 L 161 30 L 161 96.585938 L 115.554688 96.585938 Z M 115.554688 30 " clip-rule="nonzero"/></clipPath><clipPath id="71dae93877"><path d="M 159 14.835938 L 178 14.835938 L 178 83 L 159 83 Z M 159 14.835938 " clip-rule="nonzero"/></clipPath><clipPath id="9c3ec907ee"><path d="M 179 33 L 222 33 L 222 96.585938 L 179 96.585938 Z M 179 33 " clip-rule="nonzero"/></clipPath><clipPath id="c8a5d6d766"><path d="M 175 30 L 225 30 L 225 96.585938 L 175 96.585938 Z M 175 30 " clip-rule="nonzero"/></clipPath><clipPath id="82b29a2624"><path d="M 225 33 L 268 33 L 268 96.585938 L 225 96.585938 Z M 225 33 " clip-rule="nonzero"/></clipPath><clipPath id="d1b295048b"><path d="M 222 30 L 272 30 L 272 96.585938 L 222 96.585938 Z M 222 30 " clip-rule="nonzero"/></clipPath><clipPath id="4da8134624"><path d="M 269 14.835938 L 288 14.835938 L 288 84 L 269 84 Z M 269 14.835938 " clip-rule="nonzero"/></clipPath><clipPath id="1a173befa5"><path d="M 333 33 L 370.554688 33 L 370.554688 80 L 333 80 Z M 333 33 " clip-rule="nonzero"/></clipPath><clipPath id="af3b1f1612"><path d="M 330 30 L 370.554688 30 L 370.554688 84 L 330 84 Z M 330 30 " clip-rule="nonzero"/></clipPath><clipPath id="d2d59c60b2"><path d="M 4.285156 58 L 21 58 L 21 71 L 4.285156 71 Z M 4.285156 58 " clip-rule="nonzero"/></clipPath><clipPath id="d44817d952"><path d="M 57 3.6875 L 69 3.6875 L 69 20 L 57 20 Z M 57 3.6875 " clip-rule="nonzero"/></clipPath><clipPath id="2c52f4ea41"><path d="M 92 40 L 108.535156 40 L 108.535156 53 L 92 53 Z M 92 40 " clip-rule="nonzero"/></clipPath><clipPath id="b69e85ecc6"><path d="M 50 91 L 63 91 L 63 107.1875 L 50 107.1875 Z M 50 91 " clip-rule="nonzero"/></clipPath></defs><g clip-path="url(#519ecd17e7)"><path fill="#231f20" d="M 135.914062 96.382812 C 131.851562 96.382812 127.949219 95.457031 124.933594 93.789062 C 120.78125 91.496094 117.59375 86.851562 116.484375 83.347656 C 118.015625 82.609375 122.757812 81.488281 125.640625 81.488281 C 126.160156 81.488281 126.4375 81.527344 126.578125 81.5625 L 126.839844 81.910156 L 126.9375 81.910156 C 126.9375 81.910156 126.945312 81.921875 126.957031 81.929688 C 128.117188 83.328125 131.664062 87.578125 137.363281 87.578125 C 138.953125 87.578125 140.601562 87.246094 142.257812 86.582031 C 147.546875 84.476562 148.457031 75.878906 148.082031 73.90625 C 147.894531 72.9375 147.195312 72.585938 146.652344 72.585938 L 146.292969 72.585938 L 145.960938 72.765625 C 142.023438 75.007812 138.175781 76.136719 134.535156 76.136719 C 128.089844 76.136719 123.804688 72.660156 121.34375 69.738281 C 118.105469 65.898438 116.054688 60.636719 115.714844 55.320312 C 115.144531 46.265625 119.449219 35.964844 133.246094 34.207031 C 135.964844 33.859375 138.953125 33.679688 141.890625 33.679688 C 148.484375 33.679688 153.683594 34.609375 155.269531 36.0625 C 156.441406 39.09375 160.039062 76.863281 155.839844 85.542969 C 152.65625 92.121094 144.824219 96.382812 135.886719 96.382812 Z M 138.097656 42.660156 C 134.121094 42.660156 130.097656 44.722656 127.839844 47.914062 C 125.71875 50.910156 125.28125 54.613281 126.589844 58.351562 C 128.484375 63.757812 132.253906 66.859375 136.933594 66.859375 C 142.660156 66.859375 147.875 62.171875 148.316406 56.621094 C 148.78125 50.738281 146.992188 47.449219 145.398438 45.71875 C 143.574219 43.738281 140.976562 42.652344 138.085938 42.652344 Z M 138.097656 42.660156 " fill-opacity="1" fill-rule="nonzero"/></g><g clip-path="url(#66627f9c2f)"><path stroke-linecap="butt" transform="matrix(0.894831, 0, 0, 0.896522, 115.555179, 14.932189)" fill="none" stroke-linejoin="miter" d="M 22.751653 90.85176 C 18.211689 90.85176 13.850705 89.819124 10.480655 87.958636 C 5.840289 85.40101 2.278164 80.220401 1.038404 76.312069 C 2.749621 75.488575 8.049156 74.238083 11.270784 74.238083 C 11.851375 74.238083 12.161315 74.281654 12.318468 74.320868 L 12.610946 74.708651 L 12.72008 74.708651 C 12.72008 74.708651 12.72881 74.721723 12.741907 74.730437 C 14.038415 76.290284 18.002153 81.030824 24.371198 81.030824 C 26.147895 81.030824 27.990072 80.66047 29.840981 79.91976 C 35.751664 77.571276 36.76879 67.981267 36.349717 65.780924 C 36.14018 64.700359 35.358782 64.308219 34.751999 64.308219 L 34.350387 64.308219 L 33.979332 64.508646 C 29.57906 67.00963 25.27919 68.268836 21.210685 68.268836 C 14.007858 68.268836 9.219069 64.391004 6.468899 61.131883 C 2.850024 56.848839 0.558216 50.979806 0.178431 45.049773 C -0.45891 34.949982 4.351705 23.460271 19.770119 21.499569 C 22.808403 21.111786 26.147895 20.911359 29.430638 20.911359 C 36.799348 20.911359 42.609628 21.948352 44.38196 23.569199 C 45.691565 26.95032 49.712052 69.079259 45.019301 78.760768 C 41.461541 86.098149 32.709015 90.85176 22.721096 90.85176 Z M 25.191883 30.928365 C 20.747958 30.928365 16.251648 33.228922 13.728476 36.788684 C 11.358091 40.130591 10.869172 44.261135 12.331564 48.430894 C 14.448758 54.46114 18.66132 57.920689 23.891009 57.920689 C 30.290612 57.920689 36.118353 52.692152 36.611638 46.500692 C 37.131114 39.938878 35.131784 36.270188 33.350722 34.339986 C 31.312103 32.130929 28.409146 30.919651 25.178787 30.919651 Z M 25.191883 30.928365 " stroke="#231f20" stroke-width="0.25" stroke-opacity="1" stroke-miterlimit="10"/></g><path fill="#231f20" d="M 169.101562 79.8125 C 166.09375 79.8125 164.019531 79.4375 163.285156 79.125 C 162.6875 73.921875 162.613281 38.914062 162.980469 36.269531 L 162.980469 36.097656 C 163 34.871094 165.433594 33.910156 168.527344 33.910156 C 171.625 33.910156 173.386719 34.761719 173.550781 35.203125 C 174.167969 38.207031 174.417969 71.171875 174.042969 79.285156 C 173.414062 79.507812 171.8125 79.8125 169.101562 79.8125 Z M 168.476562 26.800781 C 166.488281 26.800781 164.699219 25.824219 163.554688 24.113281 C 162.292969 22.230469 162.050781 20.203125 162.863281 18.394531 C 163.644531 16.664062 165.335938 15.34375 167.078125 15.113281 C 167.394531 15.066406 167.707031 15.046875 168.011719 15.046875 C 170.148438 15.046875 172.125 16.054688 173.308594 17.738281 C 174.371094 19.269531 174.597656 21.109375 173.933594 22.921875 C 172.886719 25.78125 170.425781 26.800781 168.476562 26.800781 Z M 168.476562 26.800781 " fill-opacity="1" fill-rule="nonzero"/><g clip-path="url(#71dae93877)"><path stroke-linecap="butt" transform="matrix(0.894831, 0, 0, 0.896522, 115.555179, 14.932189)" fill="none" stroke-linejoin="miter" d="M 59.839663 72.368881 C 56.478344 72.368881 54.160343 71.950598 53.339657 71.602029 C 52.671759 65.798352 52.588817 26.749892 52.99916 23.800126 L 52.99916 23.608413 C 53.020987 22.240279 55.740599 21.168429 59.197956 21.168429 C 62.659678 21.168429 64.628451 22.11828 64.811796 22.610634 C 65.501521 25.961255 65.780903 62.730944 65.36183 71.78067 C 64.659009 72.029026 62.869215 72.368881 59.839663 72.368881 Z M 59.141207 13.23848 C 56.919244 13.23848 54.919914 12.149202 53.640866 10.240786 C 52.230858 8.140656 51.960207 5.879314 52.868199 3.86197 C 53.741269 1.931768 55.631466 0.459064 57.578412 0.201994 C 57.932005 0.149709 58.281233 0.127923 58.62173 0.127923 C 61.009576 0.127923 63.218443 1.252059 64.541144 3.129975 C 65.728519 4.837964 65.981709 6.890165 65.2396 8.911866 C 64.069686 12.101274 61.319516 13.23848 59.141207 13.23848 Z M 59.141207 13.23848 " stroke="#231f20" stroke-width="0.25" stroke-opacity="1" stroke-miterlimit="10"/></g><g clip-path="url(#9c3ec907ee)"><path fill="#231f20" d="M 199.355469 96.382812 C 195.292969 96.382812 191.390625 95.457031 188.375 93.789062 C 184.222656 91.496094 181.039062 86.851562 179.929688 83.347656 C 181.460938 82.609375 186.203125 81.488281 189.082031 81.488281 C 189.601562 81.488281 189.878906 81.527344 190.023438 81.5625 L 190.28125 81.910156 L 190.382812 81.910156 L 190.398438 81.929688 C 191.5625 83.328125 195.105469 87.578125 200.804688 87.578125 C 202.398438 87.578125 204.046875 87.246094 205.699219 86.582031 C 210.988281 84.476562 211.902344 75.878906 211.527344 73.90625 C 211.335938 72.9375 210.640625 72.585938 210.09375 72.585938 L 209.734375 72.585938 L 209.40625 72.765625 C 205.46875 75.007812 201.621094 76.136719 197.976562 76.136719 C 191.535156 76.136719 187.25 72.660156 184.789062 69.738281 C 181.550781 65.898438 179.5 60.636719 179.160156 55.320312 C 178.585938 46.265625 182.890625 35.964844 196.691406 34.207031 C 199.410156 33.859375 202.398438 33.679688 205.332031 33.679688 C 211.929688 33.679688 217.128906 34.609375 218.710938 36.0625 C 219.882812 39.09375 223.480469 76.863281 219.285156 85.542969 C 216.097656 92.121094 208.269531 96.382812 199.328125 96.382812 Z M 201.539062 42.660156 C 197.566406 42.660156 193.539062 44.722656 191.285156 47.914062 C 189.164062 50.910156 188.726562 54.613281 190.03125 58.351562 C 191.929688 63.757812 195.695312 66.859375 200.375 66.859375 C 206.101562 66.859375 211.320312 62.171875 211.757812 56.621094 C 212.222656 50.738281 210.433594 47.449219 208.839844 45.71875 C 207.015625 43.738281 204.421875 42.652344 201.53125 42.652344 L 201.539062 42.652344 Z M 201.539062 42.660156 " fill-opacity="1" fill-rule="nonzero"/></g><g clip-path="url(#c8a5d6d766)"><path stroke-linecap="butt" transform="matrix(0.894831, 0, 0, 0.896522, 115.555179, 14.932189)" fill="none" stroke-linejoin="miter" d="M 93.649295 90.85176 C 89.109331 90.85176 84.748347 89.819124 81.378297 87.958636 C 76.737931 85.40101 73.180171 80.220401 71.940412 76.312069 C 73.651629 75.488575 78.951163 74.238083 82.168426 74.238083 C 82.749017 74.238083 83.058957 74.281654 83.220475 74.320868 L 83.508588 74.708651 L 83.622087 74.708651 L 83.639548 74.730437 C 84.940423 76.290284 88.899795 81.030824 95.26884 81.030824 C 97.049902 81.030824 98.89208 80.66047 100.738623 79.91976 C 106.649306 77.571276 107.670798 67.981267 107.251724 65.780924 C 107.037822 64.700359 106.26079 64.308219 105.649641 64.308219 L 105.248029 64.308219 L 104.881339 64.508646 C 100.481067 67.00963 96.181198 68.268836 92.108326 68.268836 C 84.909865 68.268836 80.121077 64.391004 77.370906 61.131883 C 73.752032 56.848839 71.460223 50.979806 71.080438 45.049773 C 70.438731 34.949982 75.249347 23.460271 90.672126 21.499569 C 93.71041 21.111786 97.049902 20.911359 100.32828 20.911359 C 107.701355 20.911359 113.511635 21.948352 115.279602 23.569199 C 116.589207 26.95032 120.609694 69.079259 115.921308 78.760768 C 112.359183 86.098149 103.611023 90.85176 93.618737 90.85176 Z M 96.089525 30.928365 C 91.649965 30.928365 87.149289 33.228922 84.630483 36.788684 C 82.260098 40.130591 81.771179 44.261135 83.229206 48.430894 C 85.350765 54.46114 89.558962 57.920689 94.788651 57.920689 C 101.188254 57.920689 107.020361 52.692152 107.50928 46.500692 C 108.028756 39.938878 106.029426 36.270188 104.248364 34.339986 C 102.209745 32.130929 99.311153 30.919651 96.080795 30.919651 L 96.089525 30.919651 Z M 96.089525 30.928365 " stroke="#231f20" stroke-width="0.25" stroke-opacity="1" stroke-miterlimit="10"/></g><g clip-path="url(#82b29a2624)"><path fill="#231f20" d="M 245.976562 96.382812 C 241.914062 96.382812 238.011719 95.457031 234.996094 93.789062 C 230.84375 91.496094 227.660156 86.851562 226.550781 83.347656 C 228.082031 82.609375 232.824219 81.488281 235.703125 81.488281 C 236.222656 81.488281 236.507812 81.527344 236.644531 81.5625 L 236.902344 81.910156 L 237 81.910156 C 237 81.910156 237 81.921875 237.019531 81.929688 C 238.183594 83.328125 241.726562 87.578125 247.425781 87.578125 C 249.019531 87.578125 250.664062 87.246094 252.320312 86.582031 C 257.609375 84.476562 258.523438 75.886719 258.148438 73.90625 C 257.957031 72.9375 257.261719 72.585938 256.714844 72.585938 L 256.367188 72.585938 L 256.035156 72.765625 C 252.097656 75.007812 248.25 76.136719 244.609375 76.136719 C 238.164062 76.136719 233.878906 72.660156 231.417969 69.738281 C 228.179688 65.898438 226.128906 60.636719 225.789062 55.320312 C 225.214844 46.265625 229.519531 35.964844 243.320312 34.207031 C 246.039062 33.859375 249.027344 33.679688 251.964844 33.679688 C 258.558594 33.679688 263.757812 34.609375 265.339844 36.0625 C 266.511719 39.09375 270.109375 76.863281 265.921875 85.542969 C 262.738281 92.121094 254.90625 96.382812 245.96875 96.382812 Z M 248.160156 42.660156 C 244.1875 42.660156 240.160156 44.722656 237.90625 47.914062 C 235.785156 50.910156 235.347656 54.613281 236.652344 58.351562 C 238.550781 63.757812 242.316406 66.859375 246.996094 66.859375 C 252.722656 66.859375 257.941406 62.171875 258.378906 56.621094 C 258.851562 50.738281 257.054688 47.449219 255.460938 45.71875 C 253.636719 43.738281 251.042969 42.652344 248.152344 42.652344 Z M 248.160156 42.660156 " fill-opacity="1" fill-rule="nonzero"/></g><g clip-path="url(#d1b295048b)"><path stroke-linecap="butt" transform="matrix(0.894831, 0, 0, 0.896522, 115.555179, 14.932189)" fill="none" stroke-linejoin="miter" d="M 145.749742 90.85176 C 141.209778 90.85176 136.848794 89.819124 133.478744 87.958636 C 128.838378 85.40101 125.280618 80.220401 124.040858 76.312069 C 125.752075 75.488575 131.05161 74.238083 134.268872 74.238083 C 134.849464 74.238083 135.168134 74.281654 135.320922 74.320868 L 135.609035 74.708651 L 135.718168 74.708651 C 135.718168 74.708651 135.718168 74.721723 135.739995 74.730437 C 137.040869 76.290284 141.000241 81.030824 147.369286 81.030824 C 149.150349 81.030824 150.988161 80.66047 152.839069 79.91976 C 158.749753 77.571276 159.771244 67.989981 159.352171 65.780924 C 159.138269 64.700359 158.361236 64.308219 157.750088 64.308219 L 157.361571 64.308219 L 156.990517 64.508646 C 152.590244 67.00963 148.290375 68.268836 144.221869 68.268836 C 137.019043 68.268836 132.230254 64.391004 129.480084 61.131883 C 125.861209 56.848839 123.569401 50.979806 123.189615 45.049773 C 122.547909 34.949982 127.358524 23.460271 142.781304 21.499569 C 145.819587 21.111786 149.15908 20.911359 152.441822 20.911359 C 159.810533 20.911359 165.620813 21.948352 167.388779 23.569199 C 168.698384 26.95032 172.718871 69.079259 168.039216 78.760768 C 164.481457 86.098149 155.728931 90.85176 145.741011 90.85176 Z M 148.189972 30.928365 C 143.750412 30.928365 139.249736 33.228922 136.730929 36.788684 C 134.360545 40.130591 133.871626 44.261135 135.329652 48.430894 C 137.451212 54.46114 141.659409 57.920689 146.889098 57.920689 C 153.2887 57.920689 159.120807 52.692152 159.609726 46.500692 C 160.137934 39.938878 158.129873 36.270188 156.34881 34.339986 C 154.310192 32.130929 151.4116 30.919651 148.181241 30.919651 Z M 148.189972 30.928365 " stroke="#231f20" stroke-width="0.25" stroke-opacity="1" stroke-miterlimit="10"/></g><path fill="#231f20" d="M 276.929688 80.046875 C 274.773438 80.046875 273.449219 79.824219 272.945312 79.632812 C 272.195312 76.773438 272.355469 58.609375 272.464844 46.480469 C 272.507812 41.917969 272.542969 37.640625 272.542969 34.214844 C 272.542969 28.730469 272.964844 17.847656 273.582031 15.703125 C 274.34375 15.417969 276.339844 15.074219 278.78125 15.074219 C 281.761719 15.074219 283.292969 15.558594 283.667969 15.847656 C 284.5625 22.695312 283.945312 48.675781 283.613281 62.679688 C 283.507812 67.234375 283.425781 70.527344 283.425781 71.96875 C 283.425781 72.8125 283.371094 73.71875 283.308594 74.675781 C 283.238281 75.867188 283.164062 77.097656 283.183594 78.324219 C 283.113281 78.84375 283.039062 79.175781 282.988281 79.367188 C 281.789062 79.757812 279.308594 80.046875 276.921875 80.046875 Z M 276.929688 80.046875 " fill-opacity="1" fill-rule="nonzero"/><g clip-path="url(#4da8134624)"><path stroke-linecap="butt" transform="matrix(0.894831, 0, 0, 0.896522, 115.555179, 14.932189)" fill="none" stroke-linejoin="miter" d="M 180.340771 72.630308 C 177.931098 72.630308 176.451245 72.381952 175.888115 72.168454 C 175.049968 68.979046 175.228947 48.718464 175.351177 35.189623 C 175.399196 30.100513 175.438484 25.329473 175.438484 21.508284 C 175.438484 15.390895 175.909942 3.251974 176.599667 0.859918 C 177.45091 0.541849 179.681604 0.158423 182.409947 0.158423 C 185.740709 0.158423 187.451926 0.698705 187.870999 1.021131 C 188.870664 8.659153 188.180939 37.638321 187.809884 53.258577 C 187.69202 58.338972 187.600348 62.01202 187.600348 63.619795 C 187.600348 64.560932 187.539233 65.571782 187.469387 66.639275 C 187.390811 67.968195 187.307869 69.340686 187.329696 70.70882 C 187.25112 71.288317 187.168178 71.658671 187.111429 71.87217 C 185.771266 72.307881 182.999269 72.630308 180.332041 72.630308 Z M 180.340771 72.630308 " stroke="#231f20" stroke-width="0.25" stroke-opacity="1" stroke-miterlimit="10"/></g><path stroke-linecap="butt" transform="matrix(0.894831, 0, 0, 0.896522, 115.555179, 14.932189)" fill-opacity="1" fill="#231f20" fill-rule="nonzero" stroke-linejoin="miter" d="M 217.210514 72.530094 C 207.039249 72.530094 195.798474 65.950851 194.008681 53.371862 C 192.162138 40.41816 196.108414 32.701711 199.749115 28.510167 C 203.900563 23.730412 209.911649 20.981073 216.241406 20.981073 C 222.571163 20.981073 227.779025 23.399271 231.760224 27.778171 C 236.71053 33.241993 238.83209 41.241655 237.871713 50.901378 L 237.871713 51.001592 C 235.841825 51.032091 233.820669 51.088734 231.799512 51.141019 C 228.800517 51.219447 225.701118 51.310947 222.65847 51.310947 L 222.208839 51.310947 C 221.270289 51.310947 220.091644 51.310947 218.808232 51.280447 C 217.031534 51.258661 215.071492 51.241233 213.329718 51.241233 C 207.851204 51.241233 207.698417 51.398089 207.200767 51.920943 L 206.759867 52.37844 L 206.781694 53.040721 C 207.039249 58.500186 211.539925 62.770158 217.040265 62.770158 C 220.650409 62.770158 223.898229 60.979384 226.211864 57.728976 L 226.268614 57.641834 C 226.60038 57.17998 226.801187 56.931624 226.919051 56.800911 C 230.000988 56.831411 235.431483 58.291044 237.199449 59.201681 C 233.720266 67.549912 226.307902 72.508309 217.219244 72.508309 L 217.219244 72.530094 Z M 215.5997 31.921787 C 210.968064 31.921787 206.201102 35.05891 205.978469 42.069507 L 205.92172 43.799281 L 207.641667 43.611925 C 209.221924 43.441998 211.051005 43.359213 213.399563 43.359213 C 214.717899 43.359213 216.058061 43.380998 217.389493 43.411498 C 218.720925 43.428927 220.03926 43.459426 221.331404 43.459426 C 222.710854 43.459426 223.880768 43.428927 224.928452 43.367927 L 226.530535 43.280785 L 226.329729 41.690438 C 225.539601 35.281123 220.331739 31.930502 215.5997 31.930502 Z M 215.5997 31.921787 " stroke="#231f20" stroke-width="0.25" stroke-opacity="1" stroke-miterlimit="10"/><g clip-path="url(#1a173befa5)"><path fill="#231f20" d="M 352.480469 79.832031 C 348.472656 79.832031 344.660156 78.953125 341.75 77.367188 C 336.902344 74.703125 332.496094 68.757812 333.3125 63.253906 C 334.261719 62.851562 337.382812 62.332031 340.613281 62.332031 C 342.269531 62.332031 343.074219 62.476562 343.425781 62.5625 C 345.390625 68.796875 349.796875 71.019531 353.027344 71.019531 C 355.558594 71.019531 357.582031 69.78125 358.179688 67.871094 C 358.5 66.867188 358.796875 64.214844 354.734375 61.355469 C 353.222656 60.289062 351.511719 59.515625 349.847656 58.773438 C 348.765625 58.289062 347.65625 57.785156 346.609375 57.210938 L 346.527344 57.175781 C 342.804688 55.4375 340.105469 51.894531 339.46875 47.925781 C 338.871094 44.160156 340.140625 40.574219 343.046875 37.847656 C 345.832031 35.238281 350.261719 33.6875 354.90625 33.6875 C 359.976562 33.6875 364.496094 35.460938 367.289062 38.546875 C 369.597656 41.101562 370.644531 44.390625 370.410156 48.355469 C 369.695312 48.496094 368.28125 48.660156 366.347656 48.660156 C 363.78125 48.660156 362.207031 48.371094 361.597656 48.140625 C 361.570312 45.53125 360.585938 43.953125 359.738281 43.074219 C 358.601562 41.898438 357.050781 41.253906 355.371094 41.253906 C 353.238281 41.253906 351.34375 42.339844 350.527344 44.007812 C 350 45.082031 349.480469 47.339844 351.851562 50.398438 C 353.4375 52.441406 355.59375 52.988281 357.867188 53.5625 C 359.691406 54.03125 361.769531 54.550781 364.03125 55.949219 C 366.019531 57.167969 368.53125 59.945312 369.125 62.296875 C 370.3125 66.964844 369.722656 70.867188 367.378906 73.886719 C 364.480469 77.625 358.90625 79.859375 352.453125 79.859375 Z M 352.480469 79.832031 " fill-opacity="1" fill-rule="nonzero"/></g><g clip-path="url(#af3b1f1612)"><path stroke-linecap="butt" transform="matrix(0.894831, 0, 0, 0.896522, 115.555179, 14.932189)" fill="none" stroke-linejoin="miter" d="M 264.770997 72.390666 C 260.292148 72.390666 256.031567 71.410316 252.779382 69.641327 C 247.361983 66.669775 242.437869 60.038247 243.350227 53.899073 C 244.411007 53.45029 247.898921 52.870794 251.509065 52.870794 C 253.359973 52.870794 254.259235 53.032007 254.652117 53.127863 C 256.847887 60.081818 261.772002 62.561016 265.382146 62.561016 C 268.210892 62.561016 270.472143 61.179811 271.140042 59.049182 C 271.498 57.929404 271.829767 54.970923 267.289804 51.781515 C 265.600413 50.592023 263.68839 49.729314 261.828751 48.901462 C 260.619549 48.36118 259.37979 47.799112 258.209876 47.158617 L 258.118204 47.119403 C 253.958026 45.180487 250.941569 41.228584 250.230018 36.801755 C 249.562119 32.601497 250.980858 28.601666 254.228678 25.5604 C 257.341172 22.649848 262.291478 20.920073 267.481879 20.920073 C 273.148103 20.920073 278.198812 22.898203 281.320037 26.340324 C 283.899959 29.189877 285.069872 32.858567 284.807951 37.281038 C 284.009092 37.437894 282.428836 37.620893 280.267988 37.620893 C 277.399953 37.620893 275.640717 37.298467 274.959723 37.041397 C 274.929165 34.130844 273.829097 32.37057 272.881816 31.390219 C 271.6115 30.078728 269.878456 29.359804 268.001355 29.359804 C 265.617875 29.359804 263.50068 30.571082 262.588322 32.43157 C 261.999 33.629776 261.418408 36.148188 264.068176 39.559809 C 265.840507 41.83858 268.25018 42.448576 270.790814 43.089072 C 272.829432 43.611925 275.151798 44.191422 277.679335 45.751269 C 279.901298 47.110688 282.708218 50.208597 283.371751 52.83158 C 284.698817 58.038331 284.03965 62.391089 281.42044 65.759138 C 278.181351 69.928897 271.951997 72.421166 264.740439 72.421166 Z M 264.770997 72.390666 " stroke="#231f20" stroke-width="0.25" stroke-opacity="1" stroke-miterlimit="10"/></g><path fill="#f7ae47" d="M 56.46875 87.457031 C 79.429688 87.628906 93.125 66.75 88.464844 49.148438 C 83.585938 30.722656 66.378906 22.390625 55.71875 23.203125 C 39.894531 24.414062 28.101562 32.351562 24.476562 50.816406 C 20.851562 69.28125 33.507812 87.285156 56.46875 87.457031 Z M 56.46875 87.457031 " fill-opacity="1" fill-rule="nonzero"/><path fill="#f7ae47" d="M 33.335938 24.066406 C 35.867188 25.332031 42.542969 21.535156 43.003906 19.234375 C 43.410156 17.191406 35.179688 7.5 31.609375 8.996094 C 28.042969 10.492188 31.265625 23.03125 33.335938 24.066406 Z M 33.335938 24.066406 " fill-opacity="1" fill-rule="nonzero"/><path fill="#f7ae47" d="M 87.359375 31.871094 C 89.414062 31.53125 95.582031 20.410156 92.925781 17.601562 C 90.265625 14.789062 79.664062 22.226562 79.425781 24.53125 C 79.136719 27.34375 85.042969 32.25 87.359375 31.871094 Z M 87.359375 31.871094 " fill-opacity="1" fill-rule="nonzero"/><g clip-path="url(#d2d59c60b2)"><path fill="#f7ae47" d="M 16.921875 58.605469 C 15.019531 57.746094 3.714844 63.570312 4.367188 67.382812 C 5.015625 71.195312 17.964844 70.894531 19.441406 69.113281 C 21.246094 66.933594 19.058594 59.574219 16.921875 58.605469 Z M 16.921875 58.605469 " fill-opacity="1" fill-rule="nonzero"/></g><path fill="#f7ae47" d="M 18.375 43.164062 C 21.367188 43.050781 24.476562 36.539062 23.78125 33.960938 C 22.976562 30.96875 10.355469 28.929688 8.820312 31.429688 C 6.636719 34.996094 14.234375 43.324219 18.375 43.164062 Z M 18.375 43.164062 " fill-opacity="1" fill-rule="nonzero"/><path fill="#f7ae47" d="M 28.007812 81.660156 C 24.917969 81.394531 18.691406 92.5625 20.519531 94.855469 C 23.128906 98.125 33.550781 93.828125 34.8125 89.882812 C 35.726562 87.03125 30.667969 81.886719 28.007812 81.660156 Z M 28.007812 81.660156 " fill-opacity="1" fill-rule="nonzero"/><g clip-path="url(#d44817d952)"><path fill="#f7ae47" d="M 67.535156 18.855469 C 70.191406 17.257812 68.683594 4.566406 65.855469 3.777344 C 61.820312 2.65625 55.902344 12.253906 57.195312 16.1875 C 58.128906 19.03125 65.25 20.226562 67.535156 18.851562 Z M 67.535156 18.855469 " fill-opacity="1" fill-rule="nonzero"/></g><g clip-path="url(#2c52f4ea41)"><path fill="#f7ae47" d="M 108.480469 44.992188 C 108.121094 40.828125 97.058594 38.636719 93.824219 41.222656 C 91.484375 43.089844 92.847656 50.175781 94.9375 51.835938 C 97.363281 53.765625 108.730469 47.917969 108.480469 44.992188 Z M 108.480469 44.992188 " fill-opacity="1" fill-rule="nonzero"/></g><path fill="#f7ae47" d="M 85.808594 81.925781 C 83.058594 80.738281 77.445312 85.277344 76.960938 87.902344 C 76.398438 90.945312 86.910156 98.226562 89.371094 96.628906 C 92.882812 94.351562 89.613281 83.5625 85.808594 81.925781 Z M 85.808594 81.925781 " fill-opacity="1" fill-rule="nonzero"/><path fill="#f7ae47" d="M 95.445312 63.222656 C 92.496094 63.734375 90.285156 70.605469 91.320312 73.066406 C 92.519531 75.921875 105.300781 76.253906 106.484375 73.570312 C 108.175781 69.746094 99.527344 62.507812 95.445312 63.222656 Z M 95.445312 63.222656 " fill-opacity="1" fill-rule="nonzero"/><g clip-path="url(#b69e85ecc6)"><path fill="#f7ae47" d="M 51.097656 92.742188 C 48.8125 94.835938 52.8125 106.972656 55.742188 107.183594 C 59.914062 107.480469 63.808594 96.902344 61.757812 93.300781 C 60.277344 90.699219 53.066406 90.9375 51.097656 92.742188 Z M 51.097656 92.742188 " fill-opacity="1" fill-rule="nonzero"/></g><path fill="#000000" d="M 44.308594 49.355469 C 43.160156 49.34375 42.171875 49.730469 41.398438 50.5 C 39.601562 52.289062 39.585938 55.53125 39.585938 55.667969 C 39.585938 55.949219 39.816406 56.175781 40.097656 56.175781 C 40.378906 56.175781 40.605469 55.949219 40.605469 55.667969 C 40.605469 55.636719 40.621094 52.707031 42.117188 51.21875 C 42.699219 50.644531 43.410156 50.367188 44.300781 50.371094 C 48.117188 50.398438 48.191406 55.335938 48.195312 55.546875 C 48.195312 55.828125 48.421875 56.054688 48.703125 56.054688 C 48.988281 56.054688 49.214844 55.824219 49.210938 55.542969 C 49.203125 53.414062 48.167969 49.382812 44.308594 49.355469 Z M 44.308594 49.355469 " fill-opacity="1" fill-rule="nonzero"/><path fill="#000000" d="M 72.761719 50.242188 C 71.980469 49.480469 70.992188 49.101562 69.839844 49.121094 C 65.980469 49.1875 64.984375 53.230469 64.996094 55.355469 C 64.996094 55.636719 65.226562 55.863281 65.503906 55.863281 L 65.507812 55.863281 C 65.789062 55.863281 66.015625 55.632812 66.011719 55.351562 C 66.011719 55.140625 66.042969 50.203125 69.855469 50.140625 C 70.746094 50.128906 71.460938 50.394531 72.046875 50.964844 C 73.554688 52.433594 73.601562 55.355469 73.601562 55.398438 C 73.605469 55.679688 73.832031 55.902344 74.109375 55.902344 C 74.109375 55.902344 74.113281 55.902344 74.113281 55.902344 C 74.398438 55.902344 74.621094 55.671875 74.621094 55.390625 C 74.621094 55.253906 74.574219 52.011719 72.761719 50.242188 Z M 72.761719 50.242188 " fill-opacity="1" fill-rule="nonzero"/><path fill="#000000" d="M 61.058594 59.839844 C 60.820312 59.691406 60.507812 59.757812 60.355469 59.996094 C 60.34375 60.015625 59.082031 61.945312 57.035156 61.984375 C 54.636719 62.035156 53.621094 60.257812 53.578125 60.179688 C 53.441406 59.933594 53.136719 59.84375 52.890625 59.976562 C 52.640625 60.109375 52.550781 60.417969 52.683594 60.664062 C 52.738281 60.761719 53.988281 63.003906 56.941406 63.003906 C 56.980469 63.003906 57.015625 63.003906 57.054688 63.003906 C 59.65625 62.953125 61.152344 60.640625 61.214844 60.539062 C 61.363281 60.304688 61.292969 59.988281 61.058594 59.839844 Z M 61.058594 59.839844 " fill-opacity="1" fill-rule="nonzero"/><path fill="#ec6a52" d="M 35.136719 59.964844 C 33.460938 59.941406 31.875 61.476562 32.023438 63.222656 C 32.15625 64.777344 33.058594 66.152344 35.015625 66.253906 C 36.683594 66.339844 38.375 64.957031 38.429688 63.304688 C 38.496094 61.273438 36.808594 59.988281 35.136719 59.964844 Z M 35.136719 59.964844 " fill-opacity="1" fill-rule="nonzero"/><path fill="#ec6a52" d="M 78.902344 60.441406 C 77.230469 60.417969 75.511719 61.660156 75.523438 63.695312 C 75.53125 65.34375 77.183594 66.746094 78.859375 66.726562 C 80.507812 66.710938 81.777344 65.421875 81.929688 63.777344 C 82.128906 61.613281 80.578125 60.460938 78.902344 60.441406 Z M 78.902344 60.441406 " fill-opacity="1" fill-rule="nonzero"/></svg>