<svg xmlns="http://www.w3.org/2000/svg" xmlns:xlink="http://www.w3.org/1999/xlink" width="500" zoomAndPan="magnify" viewBox="0 0 375 374.999991" height="500" preserveAspectRatio="xMidYMid meet" version="1.0"><defs><clipPath id="64f588788f"><path d="M 121.574219 144 L 140 144 L 140 159 L 121.574219 159 Z M 121.574219 144 " clip-rule="nonzero"/></clipPath><clipPath id="9d6097538d"><path d="M 181 82.636719 L 195 82.636719 L 195 101 L 181 101 Z M 181 82.636719 " clip-rule="nonzero"/></clipPath><clipPath id="4639a7bb1a"><path d="M 221 123 L 239.324219 123 L 239.324219 138 L 221 138 Z M 221 123 " clip-rule="nonzero"/></clipPath><clipPath id="20b3b801a8"><path d="M 173 181 L 188 181 L 188 199.636719 L 173 199.636719 Z M 173 181 " clip-rule="nonzero"/></clipPath><clipPath id="382a2d1c67"><path d="M 51.195312 211 L 95 211 L 95 274.222656 L 51.195312 274.222656 Z M 51.195312 211 " clip-rule="nonzero"/></clipPath><clipPath id="6a7865cd6b"><path d="M 98 195.472656 L 116 195.472656 L 116 261 L 98 261 Z M 98 195.472656 " clip-rule="nonzero"/></clipPath><clipPath id="e1552dca46"><path d="M 118 211 L 164 211 L 164 274.222656 L 118 274.222656 Z M 118 211 " clip-rule="nonzero"/></clipPath><clipPath id="6a6a209938"><path d="M 168 211 L 214 211 L 214 274.222656 L 168 274.222656 Z M 168 211 " clip-rule="nonzero"/></clipPath><clipPath id="6881ccad80"><path d="M 218 195.472656 L 236 195.472656 L 236 261 L 218 261 Z M 218 195.472656 " clip-rule="nonzero"/></clipPath><clipPath id="9c0168cac2"><path d="M 284 211 L 323.445312 211 L 323.445312 261 L 284 261 Z M 284 211 " clip-rule="nonzero"/></clipPath></defs><path fill="#f7ae47" d="M 180.515625 177.332031 C 206.449219 177.527344 221.917969 153.921875 216.652344 134.023438 C 211.140625 113.199219 191.710938 103.777344 179.667969 104.695312 C 161.796875 106.0625 148.472656 115.035156 144.375 135.910156 C 140.28125 156.78125 154.578125 177.136719 180.515625 177.332031 Z M 180.515625 177.332031 " fill-opacity="1" fill-rule="nonzero"/><path fill="#f7ae47" d="M 154.386719 105.671875 C 157.246094 107.101562 164.785156 102.8125 165.304688 100.210938 C 165.765625 97.898438 156.464844 86.945312 152.433594 88.632812 C 148.40625 90.324219 152.042969 104.5 154.386719 105.671875 Z M 154.386719 105.671875 " fill-opacity="1" fill-rule="nonzero"/><path fill="#f7ae47" d="M 215.402344 114.492188 C 217.726562 114.109375 224.691406 101.539062 221.691406 98.363281 C 218.6875 95.183594 206.714844 103.59375 206.445312 106.195312 C 206.113281 109.378906 212.789062 114.921875 215.402344 114.492188 Z M 215.402344 114.492188 " fill-opacity="1" fill-rule="nonzero"/><g clip-path="url(#64f588788f)"><path fill="#f7ae47" d="M 135.84375 144.714844 C 133.699219 143.742188 120.929688 150.328125 121.664062 154.636719 C 122.398438 158.945312 137.023438 158.605469 138.691406 156.589844 C 140.730469 154.128906 138.257812 145.808594 135.84375 144.714844 Z M 135.84375 144.714844 " fill-opacity="1" fill-rule="nonzero"/></g><path fill="#f7ae47" d="M 137.484375 127.261719 C 140.867188 127.132812 144.378906 119.769531 143.59375 116.855469 C 142.683594 113.476562 128.425781 111.167969 126.695312 113.996094 C 124.226562 118.027344 132.808594 127.441406 137.484375 127.261719 Z M 137.484375 127.261719 " fill-opacity="1" fill-rule="nonzero"/><path fill="#f7ae47" d="M 148.363281 170.777344 C 144.878906 170.476562 137.84375 183.097656 139.910156 185.691406 C 142.855469 189.390625 154.625 184.53125 156.054688 180.074219 C 157.085938 176.851562 151.371094 171.035156 148.363281 170.777344 Z M 148.363281 170.777344 " fill-opacity="1" fill-rule="nonzero"/><g clip-path="url(#9d6097538d)"><path fill="#f7ae47" d="M 193.015625 99.777344 C 196.015625 97.972656 194.308594 83.625 191.113281 82.738281 C 186.558594 81.46875 179.875 92.316406 181.335938 96.761719 C 182.390625 99.976562 190.429688 101.332031 193.015625 99.777344 Z M 193.015625 99.777344 " fill-opacity="1" fill-rule="nonzero"/></g><g clip-path="url(#4639a7bb1a)"><path fill="#f7ae47" d="M 239.257812 129.328125 C 238.855469 124.617188 226.363281 122.140625 222.707031 125.0625 C 220.0625 127.175781 221.605469 135.1875 223.964844 137.0625 C 226.703125 139.246094 239.542969 132.632812 239.257812 129.328125 Z M 239.257812 129.328125 " fill-opacity="1" fill-rule="nonzero"/></g><path fill="#f7ae47" d="M 213.652344 171.078125 C 210.546875 169.738281 204.207031 174.867188 203.660156 177.832031 C 203.023438 181.277344 214.898438 189.503906 217.679688 187.699219 C 221.644531 185.125 217.953125 172.929688 213.65625 171.078125 Z M 213.652344 171.078125 " fill-opacity="1" fill-rule="nonzero"/><path fill="#f7ae47" d="M 224.539062 149.933594 C 221.207031 150.515625 218.710938 158.28125 219.878906 161.0625 C 221.230469 164.289062 235.667969 164.667969 237.007812 161.632812 C 238.914062 157.308594 229.152344 149.128906 224.539062 149.933594 Z M 224.539062 149.933594 " fill-opacity="1" fill-rule="nonzero"/><g clip-path="url(#20b3b801a8)"><path fill="#f7ae47" d="M 174.445312 183.304688 C 171.863281 185.667969 176.382812 199.390625 179.691406 199.628906 C 184.40625 199.964844 188.804688 188.007812 186.488281 183.9375 C 184.816406 180.996094 176.667969 181.265625 174.445312 183.304688 Z M 174.445312 183.304688 " fill-opacity="1" fill-rule="nonzero"/></g><path fill="#000000" d="M 166.777344 134.257812 C 165.480469 134.246094 164.363281 134.683594 163.492188 135.550781 C 161.460938 137.574219 161.445312 141.238281 161.445312 141.394531 C 161.445312 141.710938 161.703125 141.96875 162.023438 141.96875 C 162.339844 141.96875 162.59375 141.710938 162.59375 141.394531 C 162.59375 141.359375 162.613281 138.046875 164.304688 136.367188 C 164.960938 135.714844 165.761719 135.40625 166.769531 135.40625 C 171.082031 135.441406 171.164062 141.019531 171.167969 141.257812 C 171.167969 141.574219 171.425781 141.828125 171.742188 141.828125 L 171.746094 141.828125 C 172.0625 141.828125 172.316406 141.570312 172.316406 141.253906 C 172.308594 138.847656 171.136719 134.289062 166.777344 134.257812 Z M 166.777344 134.257812 " fill-opacity="1" fill-rule="nonzero"/><path fill="#000000" d="M 198.914062 135.257812 C 198.035156 134.398438 196.917969 133.972656 195.617188 133.996094 C 191.257812 134.070312 190.132812 138.636719 190.144531 141.042969 C 190.148438 141.359375 190.402344 141.613281 190.71875 141.613281 L 190.722656 141.613281 C 191.039062 141.613281 191.296875 141.355469 191.292969 141.035156 C 191.292969 140.800781 191.328125 135.21875 195.636719 135.144531 C 196.640625 135.132812 197.445312 135.433594 198.109375 136.078125 C 199.8125 137.738281 199.867188 141.039062 199.867188 141.089844 C 199.867188 141.40625 200.125 141.660156 200.441406 141.660156 C 200.441406 141.660156 200.445312 141.660156 200.445312 141.660156 C 200.761719 141.660156 201.015625 141.398438 201.015625 141.082031 C 201.015625 140.925781 200.964844 137.261719 198.914062 135.257812 Z M 198.914062 135.257812 " fill-opacity="1" fill-rule="nonzero"/><path fill="#000000" d="M 185.695312 146.113281 C 185.429688 145.941406 185.074219 146.019531 184.90625 146.285156 C 184.890625 146.308594 183.46875 148.492188 181.152344 148.535156 C 178.441406 148.589844 177.296875 146.585938 177.25 146.496094 C 177.097656 146.214844 176.75 146.113281 176.472656 146.265625 C 176.191406 146.414062 176.089844 146.765625 176.238281 147.042969 C 176.296875 147.152344 177.710938 149.683594 181.050781 149.683594 C 181.089844 149.683594 181.132812 149.683594 181.175781 149.683594 C 184.113281 149.628906 185.804688 147.015625 185.875 146.902344 C 186.042969 146.632812 185.964844 146.28125 185.695312 146.109375 Z M 185.695312 146.113281 " fill-opacity="1" fill-rule="nonzero"/><path fill="#ec6a52" d="M 156.417969 146.25 C 154.527344 146.226562 152.734375 147.960938 152.902344 149.933594 C 153.054688 151.691406 154.074219 153.246094 156.28125 153.359375 C 158.167969 153.457031 160.078125 151.894531 160.136719 150.03125 C 160.210938 147.734375 158.308594 146.277344 156.417969 146.25 Z M 156.417969 146.25 " fill-opacity="1" fill-rule="nonzero"/><path fill="#ec6a52" d="M 205.851562 146.789062 C 203.960938 146.765625 202.023438 148.167969 202.035156 150.46875 C 202.046875 152.335938 203.914062 153.917969 205.804688 153.898438 C 207.667969 153.878906 209.097656 152.421875 209.269531 150.5625 C 209.496094 148.117188 207.742188 146.8125 205.851562 146.789062 Z M 205.851562 146.789062 " fill-opacity="1" fill-rule="nonzero"/><path fill="#231f20" d="M 71.503906 272.855469 C 67.703125 272.855469 64.050781 271.992188 61.226562 270.433594 C 57.339844 268.289062 54.359375 263.945312 53.320312 260.667969 C 54.753906 259.980469 59.191406 258.933594 61.890625 258.933594 C 62.375 258.933594 62.632812 258.96875 62.769531 259 L 63.011719 259.328125 L 63.101562 259.328125 C 63.101562 259.328125 63.113281 259.335938 63.121094 259.34375 C 64.210938 260.652344 67.527344 264.625 72.863281 264.625 C 74.351562 264.625 75.894531 264.316406 77.445312 263.695312 C 82.394531 261.726562 83.25 253.6875 82.898438 251.84375 C 82.722656 250.9375 82.066406 250.609375 81.558594 250.609375 L 81.222656 250.609375 L 80.914062 250.777344 C 77.226562 252.875 73.625 253.929688 70.214844 253.929688 C 64.183594 253.929688 60.171875 250.679688 57.867188 247.945312 C 54.835938 244.359375 52.917969 239.4375 52.597656 234.46875 C 52.0625 226.003906 56.09375 216.375 69.007812 214.730469 C 71.554688 214.40625 74.351562 214.238281 77.101562 214.238281 C 83.273438 214.238281 88.140625 215.109375 89.625 216.464844 C 90.722656 219.300781 94.089844 254.609375 90.160156 262.722656 C 87.179688 268.875 79.847656 272.855469 71.480469 272.855469 Z M 73.550781 222.632812 C 69.828125 222.632812 66.058594 224.5625 63.949219 227.546875 C 61.964844 230.34375 61.554688 233.808594 62.777344 237.300781 C 64.550781 242.355469 68.078125 245.253906 72.460938 245.253906 C 77.820312 245.253906 82.703125 240.871094 83.117188 235.683594 C 83.550781 230.1875 81.875 227.109375 80.382812 225.492188 C 78.675781 223.640625 76.246094 222.625 73.539062 222.625 Z M 73.550781 222.632812 " fill-opacity="1" fill-rule="nonzero"/><g clip-path="url(#382a2d1c67)"><path stroke-linecap="butt" transform="matrix(0.837664, 0, 0, 0.838123, 51.208662, 195.471184)" fill="none" stroke-linejoin="miter" d="M 24.228371 92.330508 C 19.691015 92.330508 15.330864 91.30049 11.959324 89.440865 C 7.319377 86.882133 3.761307 81.699419 2.520879 77.789079 C 4.232297 76.968794 9.529764 75.719722 12.752079 75.719722 C 13.330324 75.719722 13.638099 75.761668 13.801313 75.798954 L 14.090436 76.190454 L 14.197691 76.190454 C 14.197691 76.190454 14.211681 76.199776 14.221007 76.209097 C 15.522058 77.770436 19.481168 82.510383 25.851186 82.510383 C 27.62789 82.510383 29.469879 82.142186 31.321194 81.401133 C 37.229549 79.052133 38.250804 69.460383 37.83111 67.260525 C 37.621263 66.17924 36.837835 65.78774 36.231611 65.78774 L 35.83057 65.78774 L 35.462172 65.98815 C 31.060052 68.490954 26.760523 69.749347 22.689494 69.749347 C 15.489415 69.749347 10.700243 65.871633 7.948918 62.609133 C 4.330225 58.330597 2.040563 52.458097 1.658175 46.529668 C 1.019308 36.4299 5.831796 24.941239 21.248545 22.979078 C 24.288993 22.592239 27.62789 22.391828 30.910827 22.391828 C 38.278784 22.391828 44.08921 23.431168 45.86125 25.048436 C 47.171627 28.432114 51.19136 70.560311 46.500117 80.240615 C 42.942047 87.58124 34.189101 92.330508 24.200391 92.330508 Z M 26.671921 32.407704 C 22.227831 32.407704 17.727781 34.710096 15.209619 38.270882 C 12.840681 41.607954 12.351038 45.742007 13.81064 49.908686 C 15.927762 55.93965 20.138688 59.3979 25.37087 59.3979 C 31.768868 59.3979 37.597947 54.168579 38.092253 47.97915 C 38.609875 41.421525 36.609335 37.748882 34.827969 35.819346 C 32.790122 33.610168 29.889573 32.398382 26.657931 32.398382 Z M 26.671921 32.407704 " stroke="#231f20" stroke-width="0.25" stroke-opacity="1" stroke-miterlimit="10"/></g><path fill="#231f20" d="M 107.601562 257.367188 C 104.785156 257.367188 102.84375 257.015625 102.15625 256.722656 C 101.59375 251.859375 101.527344 219.132812 101.871094 216.660156 L 101.871094 216.582031 C 101.871094 216.582031 101.878906 216.5 101.878906 216.5 C 101.886719 215.351562 104.164062 214.453125 107.0625 214.453125 C 109.960938 214.453125 111.613281 215.25 111.761719 215.660156 C 112.339844 218.46875 112.574219 249.285156 112.222656 256.871094 C 111.636719 257.082031 110.136719 257.367188 107.601562 257.367188 Z M 107.015625 207.808594 C 105.152344 207.808594 103.480469 206.894531 102.40625 205.292969 C 101.226562 203.535156 101 201.640625 101.761719 199.945312 C 102.492188 198.328125 104.074219 197.097656 105.707031 196.878906 C 106 196.835938 106.292969 196.820312 106.578125 196.820312 C 108.582031 196.820312 110.429688 197.757812 111.539062 199.335938 C 112.535156 200.769531 112.742188 202.484375 112.125 204.179688 C 111.144531 206.851562 108.839844 207.808594 107.015625 207.808594 Z M 107.015625 207.808594 " fill-opacity="1" fill-rule="nonzero"/><g clip-path="url(#6a7865cd6b)"><path stroke-linecap="butt" transform="matrix(0.837664, 0, 0, 0.838123, 51.208662, 195.471184)" fill="none" stroke-linejoin="miter" d="M 67.321589 73.850776 C 63.959376 73.850776 61.641734 73.431311 60.821 73.081758 C 60.14949 67.279168 60.070214 28.231703 60.480581 25.281471 L 60.480581 25.188257 C 60.480581 25.188257 60.489908 25.090382 60.489908 25.090382 C 60.499234 23.720132 63.217917 22.648168 66.678058 22.648168 C 70.1382 22.648168 72.110761 23.598953 72.287965 24.088328 C 72.978128 27.439382 73.257923 64.207758 72.83823 73.258865 C 72.13874 73.510543 70.348047 73.850776 67.321589 73.850776 Z M 66.622099 14.720293 C 64.397723 14.720293 62.401846 13.629685 61.119448 11.718793 C 59.711143 9.621471 59.440673 7.361025 60.35001 5.338275 C 61.22204 3.408739 63.110662 1.940614 65.059906 1.679614 C 65.409651 1.628346 65.759396 1.609703 66.099814 1.609703 C 68.492068 1.609703 70.697792 2.728275 72.022158 4.611203 C 73.211291 6.321685 73.458444 8.367739 72.721648 10.390489 C 71.551169 13.578418 68.799843 14.720293 66.622099 14.720293 Z M 66.622099 14.720293 " stroke="#231f20" stroke-width="0.25" stroke-opacity="1" stroke-miterlimit="10"/></g><path fill="#231f20" d="M 140.109375 272.855469 C 136.308594 272.855469 132.65625 271.992188 129.832031 270.433594 C 125.945312 268.289062 122.964844 263.945312 121.925781 260.667969 C 123.355469 259.980469 127.796875 258.933594 130.492188 258.933594 C 130.980469 258.933594 131.238281 258.96875 131.375 259 L 131.617188 259.328125 L 131.707031 259.328125 C 131.707031 259.328125 131.714844 259.335938 131.726562 259.34375 C 132.8125 260.652344 136.132812 264.625 141.46875 264.625 C 142.957031 264.625 144.5 264.316406 146.050781 263.695312 C 151 261.726562 151.855469 253.6875 151.503906 251.84375 C 151.328125 250.9375 150.671875 250.609375 150.160156 250.609375 L 149.828125 250.609375 L 149.515625 250.777344 C 145.832031 252.875 142.230469 253.929688 138.820312 253.929688 C 132.789062 253.929688 128.777344 250.679688 126.472656 247.945312 C 123.441406 244.359375 121.523438 239.4375 121.203125 234.46875 C 120.667969 226.003906 124.695312 216.375 137.613281 214.730469 C 140.160156 214.40625 142.957031 214.238281 145.707031 214.238281 C 151.878906 214.238281 156.746094 215.109375 158.230469 216.464844 C 159.324219 219.300781 162.695312 254.609375 158.765625 262.722656 C 155.78125 268.875 148.453125 272.855469 140.085938 272.855469 Z M 142.152344 222.632812 C 138.433594 222.632812 134.664062 224.5625 132.554688 227.546875 C 130.570312 230.34375 130.160156 233.808594 131.382812 237.300781 C 133.15625 242.355469 136.683594 245.253906 141.066406 245.253906 C 146.425781 245.253906 151.308594 240.871094 151.71875 235.683594 C 152.15625 230.1875 150.480469 227.109375 148.988281 225.492188 C 147.28125 223.640625 144.851562 222.625 142.144531 222.625 Z M 142.152344 222.632812 " fill-opacity="1" fill-rule="nonzero"/><g clip-path="url(#e1552dca46)"><path stroke-linecap="butt" transform="matrix(0.837664, 0, 0, 0.838123, 51.208662, 195.471184)" fill="none" stroke-linejoin="miter" d="M 106.129268 92.330508 C 101.591913 92.330508 97.231761 91.30049 93.860222 89.440865 C 89.220274 86.882133 85.662204 81.699419 84.421776 77.789079 C 86.128531 76.968794 91.430661 75.719722 94.648313 75.719722 C 95.231221 75.719722 95.538996 75.761668 95.702211 75.798954 L 95.991333 76.190454 L 96.098588 76.190454 C 96.098588 76.190454 96.107915 76.199776 96.121904 76.209097 C 97.418292 77.770436 101.382066 82.510383 107.752084 82.510383 C 109.528787 82.510383 111.370776 82.142186 113.222092 81.401133 C 119.130447 79.052133 120.151701 69.460383 119.732008 67.260525 C 119.522161 66.17924 118.738733 65.78774 118.127845 65.78774 L 117.731468 65.78774 L 117.358407 65.98815 C 112.960949 68.490954 108.66142 69.749347 104.590391 69.749347 C 97.390312 69.749347 92.60114 65.871633 89.849815 62.609133 C 86.231122 58.330597 83.94146 52.458097 83.559072 46.529668 C 82.920205 36.4299 87.72803 24.941239 103.149443 22.979078 C 106.18989 22.592239 109.528787 22.391828 112.811725 22.391828 C 120.179681 22.391828 125.990107 23.431168 127.762147 25.048436 C 129.067861 28.432114 133.092258 70.560311 128.401015 80.240615 C 124.838281 87.58124 116.089999 92.330508 106.101288 92.330508 Z M 108.568155 32.407704 C 104.128728 32.407704 99.628679 34.710096 97.110516 38.270882 C 94.741578 41.607954 94.251936 45.742007 95.711537 49.908686 C 97.828659 55.93965 102.039586 59.3979 107.271768 59.3979 C 113.669765 59.3979 119.498844 54.168579 119.988487 47.97915 C 120.510773 41.421525 118.510233 37.748882 116.728866 35.819346 C 114.69102 33.610168 111.79047 32.398382 108.558828 32.398382 Z M 108.568155 32.407704 " stroke="#231f20" stroke-width="0.25" stroke-opacity="1" stroke-miterlimit="10"/></g><path fill="#231f20" d="M 190.453125 272.855469 C 186.652344 272.855469 183 271.992188 180.175781 270.433594 C 176.289062 268.289062 173.304688 263.945312 172.269531 260.667969 C 173.699219 259.980469 178.140625 258.933594 180.835938 258.933594 C 181.324219 258.933594 181.589844 258.96875 181.714844 259 L 181.960938 259.328125 L 182.050781 259.328125 C 182.050781 259.328125 182.058594 259.335938 182.070312 259.34375 C 183.15625 260.652344 186.476562 264.625 191.8125 264.625 C 193.300781 264.625 194.84375 264.316406 196.394531 263.695312 C 201.34375 261.726562 202.199219 253.695312 201.847656 251.84375 C 201.671875 250.9375 201.015625 250.609375 200.503906 250.609375 L 200.179688 250.609375 L 199.867188 250.777344 C 196.183594 252.875 192.582031 253.929688 189.171875 253.929688 C 183.140625 253.929688 179.128906 250.679688 176.824219 247.945312 C 173.792969 244.359375 171.875 239.4375 171.554688 234.46875 C 171.019531 226.003906 175.050781 216.375 187.964844 214.730469 C 190.511719 214.40625 193.308594 214.238281 196.058594 214.238281 C 202.230469 214.238281 207.097656 215.109375 208.582031 216.464844 C 209.679688 219.300781 213.046875 254.609375 209.125 262.722656 C 206.144531 268.875 198.8125 272.855469 190.445312 272.855469 Z M 192.496094 222.632812 C 188.777344 222.632812 185.007812 224.5625 182.898438 227.546875 C 180.914062 230.34375 180.503906 233.808594 181.726562 237.300781 C 183.5 242.355469 187.027344 245.253906 191.410156 245.253906 C 196.769531 245.253906 201.652344 240.871094 202.0625 235.683594 C 202.507812 230.1875 200.824219 227.109375 199.332031 225.492188 C 197.625 223.640625 195.195312 222.625 192.488281 222.625 Z M 192.496094 222.632812 " fill-opacity="1" fill-rule="nonzero"/><g clip-path="url(#6a6a209938)"><path stroke-linecap="butt" transform="matrix(0.837664, 0, 0, 0.838123, 51.208662, 195.471184)" fill="none" stroke-linejoin="miter" d="M 166.229408 92.330508 C 161.692053 92.330508 157.331902 91.30049 153.960362 89.440865 C 149.320415 86.882133 145.757681 81.699419 144.521917 77.789079 C 146.228671 76.968794 151.530802 75.719722 154.748454 75.719722 C 155.331361 75.719722 155.648463 75.761668 155.797688 75.798954 L 156.091473 76.190454 L 156.198728 76.190454 C 156.198728 76.190454 156.208055 76.199776 156.222045 76.209097 C 157.518432 77.770436 161.482206 82.510383 167.852224 82.510383 C 169.628927 82.510383 171.470917 82.142186 173.322232 81.401133 C 179.230587 79.052133 180.251842 69.469704 179.832148 67.260525 C 179.622301 66.17924 178.838873 65.78774 178.227985 65.78774 L 177.840935 65.78774 L 177.467873 65.98815 C 173.070416 68.490954 168.770887 69.749347 164.699858 69.749347 C 157.499779 69.749347 152.710607 65.871633 149.959282 62.609133 C 146.340589 58.330597 144.050927 52.458097 143.668539 46.529668 C 143.029672 36.4299 147.84216 24.941239 163.258909 22.979078 C 166.299357 22.592239 169.638254 22.391828 172.921191 22.391828 C 180.289148 22.391828 186.099574 23.431168 187.871614 25.048436 C 189.181991 28.432114 193.201725 70.560311 188.519808 80.240615 C 184.961738 87.58124 176.208792 92.330508 166.220082 92.330508 Z M 168.668295 32.407704 C 164.228868 32.407704 159.728819 34.710096 157.210657 38.270882 C 154.841719 41.607954 154.352076 45.742007 155.811678 49.908686 C 157.928799 55.93965 162.139726 59.3979 167.371908 59.3979 C 173.769905 59.3979 179.598985 54.168579 180.088628 47.97915 C 180.62024 41.421525 178.610373 37.748882 176.829006 35.819346 C 174.79116 33.610168 171.89061 32.398382 168.658969 32.398382 Z M 168.668295 32.407704 " stroke="#231f20" stroke-width="0.25" stroke-opacity="1" stroke-miterlimit="10"/></g><path fill="#231f20" d="M 226.128906 257.585938 C 224.109375 257.585938 222.871094 257.375 222.402344 257.199219 C 221.699219 254.523438 221.847656 237.546875 221.949219 226.207031 C 221.992188 221.9375 222.023438 217.941406 222.023438 214.738281 C 222.023438 209.609375 222.417969 199.433594 222.996094 197.433594 C 223.707031 197.164062 225.578125 196.847656 227.863281 196.847656 C 230.652344 196.847656 232.085938 197.296875 232.4375 197.566406 C 233.273438 203.96875 232.695312 228.257812 232.386719 241.351562 C 232.285156 245.609375 232.210938 248.683594 232.210938 250.03125 C 232.210938 250.820312 232.160156 251.667969 232.101562 252.5625 C 232.035156 253.679688 231.96875 254.828125 231.984375 255.976562 C 231.917969 256.460938 231.851562 256.769531 231.800781 256.949219 C 230.679688 257.316406 228.359375 257.585938 226.121094 257.585938 Z M 223.0625 197.222656 Z M 223.0625 197.222656 " fill-opacity="1" fill-rule="nonzero"/><g clip-path="url(#6881ccad80)"><path stroke-linecap="butt" transform="matrix(0.837664, 0, 0, 0.838123, 51.208662, 195.471184)" fill="none" stroke-linejoin="miter" d="M 208.818994 74.111776 C 206.408087 74.111776 204.929832 73.860097 204.370241 73.650365 C 203.530853 70.457776 203.708057 50.202311 203.829302 36.672257 C 203.880598 31.578096 203.917904 26.810186 203.917904 22.9884 C 203.917904 16.868882 204.388894 4.727721 205.079057 2.341435 C 205.927771 2.019846 208.161474 1.642328 210.889483 1.642328 C 214.219053 1.642328 215.930471 2.17831 216.350165 2.4999 C 217.348103 10.13881 216.65794 39.119132 216.289542 54.741847 C 216.168297 59.822025 216.079695 63.490008 216.079695 65.097954 C 216.079695 66.039418 216.019073 67.050793 215.949124 68.118097 C 215.869849 69.451061 215.790573 70.821311 215.809226 72.191561 C 215.729951 72.76949 215.650675 73.137686 215.590053 73.352079 C 214.251696 73.790186 211.481718 74.111776 208.809668 74.111776 Z M 205.158332 2.089757 Z M 205.158332 2.089757 " stroke="#231f20" stroke-width="0.25" stroke-opacity="1" stroke-miterlimit="10"/></g><path stroke-linecap="butt" transform="matrix(0.837664, 0, 0, 0.838123, 51.208662, 195.471184)" fill-opacity="1" fill="#231f20" fill-rule="nonzero" stroke-linejoin="miter" d="M 251.688376 74.00924 C 241.517798 74.00924 230.279333 67.428311 228.48864 54.849043 C 226.641987 41.901579 230.591772 34.178775 234.229117 29.988793 C 238.379422 25.211561 244.390368 22.461739 250.718417 22.461739 C 257.051129 22.461739 262.259994 24.88065 266.237758 29.261721 C 271.190144 34.719418 273.311929 42.721864 272.351296 52.378865 L 272.351296 52.4814 C 270.318114 52.509365 268.29892 52.569954 266.279727 52.621222 C 263.281249 52.700454 260.180179 52.789007 257.139731 52.789007 L 256.692058 52.789007 C 255.750078 52.789007 254.570273 52.779686 253.287875 52.761043 C 251.511172 52.73774 249.547938 52.719097 247.80854 52.719097 C 242.329206 52.719097 242.179981 52.882222 241.681012 53.399561 L 241.238002 53.860972 L 241.261318 54.518132 C 241.517798 59.98049 246.017847 64.249704 251.520498 64.249704 C 255.129864 64.249704 258.380159 62.45999 260.688474 59.211472 L 260.749097 59.118258 C 261.080188 58.661508 261.280709 58.409829 261.401954 58.279329 C 264.479708 58.311954 269.907746 59.770758 271.679786 60.679597 C 268.200992 69.031597 260.791066 73.990597 251.697702 73.990597 Z M 250.088876 33.400436 C 245.458256 33.400436 240.687737 36.541757 240.468564 43.551472 L 240.407941 45.280597 L 242.128686 45.089507 C 243.709532 44.921722 245.542194 44.837829 247.887816 44.837829 C 249.212183 44.837829 250.550539 44.861132 251.87957 44.889097 C 253.2086 44.907739 254.528303 44.940364 255.820027 44.940364 C 257.200353 44.940364 258.370832 44.907739 259.420067 44.851811 L 261.019566 44.758597 L 260.819046 43.169293 C 260.030954 36.760811 254.822089 33.409757 250.088876 33.409757 Z M 250.088876 33.400436 " stroke="#231f20" stroke-width="0.25" stroke-opacity="1" stroke-miterlimit="10"/><path fill="#231f20" d="M 305.230469 257.382812 C 301.476562 257.382812 297.910156 256.5625 295.1875 255.078125 C 290.648438 252.589844 286.523438 247.03125 287.289062 241.886719 C 288.175781 241.507812 291.097656 241.023438 294.121094 241.023438 C 295.671875 241.023438 296.425781 241.15625 296.753906 241.242188 C 298.597656 247.066406 302.71875 249.144531 305.742188 249.144531 C 308.113281 249.144531 310.003906 247.988281 310.566406 246.203125 C 310.867188 245.265625 311.144531 242.785156 307.339844 240.109375 C 305.925781 239.113281 304.324219 238.390625 302.769531 237.695312 C 301.753906 237.242188 300.714844 236.773438 299.734375 236.238281 L 299.660156 236.203125 C 296.175781 234.578125 293.644531 231.265625 293.050781 227.554688 C 292.488281 224.035156 293.679688 220.683594 296.402344 218.132812 C 299.007812 215.695312 303.152344 214.246094 307.5 214.246094 C 312.25 214.246094 316.480469 215.90625 319.09375 218.789062 C 321.253906 221.175781 322.234375 224.253906 322.015625 227.957031 C 321.347656 228.089844 320.023438 228.242188 318.214844 228.242188 C 315.808594 228.242188 314.335938 227.972656 313.765625 227.753906 C 313.742188 225.316406 312.820312 223.839844 312.023438 223.019531 C 310.960938 221.921875 309.511719 221.320312 307.9375 221.320312 C 305.941406 221.320312 304.167969 222.332031 303.40625 223.890625 C 302.910156 224.898438 302.425781 227.007812 304.644531 229.867188 C 306.125 231.777344 308.144531 232.289062 310.273438 232.828125 C 311.980469 233.261719 313.925781 233.75 316.042969 235.054688 C 317.90625 236.195312 320.257812 238.792969 320.8125 240.988281 C 321.925781 245.355469 321.371094 249.003906 319.175781 251.828125 C 316.464844 255.320312 311.246094 257.410156 305.207031 257.410156 Z M 305.230469 257.382812 " fill-opacity="1" fill-rule="nonzero"/><g clip-path="url(#9c0168cac2)"><path stroke-linecap="butt" transform="matrix(0.837664, 0, 0, 0.838123, 51.208662, 195.471184)" fill="none" stroke-linejoin="miter" d="M 303.250081 73.869418 C 298.768684 73.869418 294.511125 72.890668 291.26083 71.119597 C 285.842118 68.150722 280.917712 61.518525 281.831711 55.380365 C 282.890272 54.928275 286.378393 54.350347 289.987759 54.350347 C 291.839075 54.350347 292.739085 54.508811 293.130799 54.611347 C 295.331859 61.560472 300.251602 64.039972 303.860968 64.039972 C 306.691569 64.039972 308.948589 62.6604 309.620099 60.530454 C 309.97917 59.411883 310.310262 56.452329 305.768243 53.25974 C 304.080141 52.071257 302.168203 51.209025 300.312225 50.379418 C 299.099776 49.838775 297.859348 49.27949 296.688869 48.640972 L 296.600267 48.599025 C 292.440636 46.660168 289.418841 42.707882 288.710025 38.280204 C 288.038515 34.0809 289.46081 30.082007 292.711105 27.038561 C 295.821502 24.130275 300.769224 22.40115 305.959437 22.40115 C 311.629965 22.40115 316.68028 24.381953 319.800003 27.821561 C 322.378788 30.669257 323.549267 34.3419 323.288124 38.760257 C 322.490706 38.918722 320.90986 39.100489 318.750769 39.100489 C 315.878198 39.100489 314.120148 38.7789 313.439311 38.5179 C 313.411332 35.609614 312.310802 33.847864 311.359496 32.869114 C 310.091088 31.559454 308.361017 30.841704 306.481722 30.841704 C 304.098795 30.841704 301.981673 32.048829 301.072337 33.908454 C 300.480102 35.110918 299.901857 37.627704 302.550591 41.039347 C 304.317968 43.318436 306.728875 43.928989 309.270354 44.572168 C 311.3082 45.089507 313.630505 45.672097 316.157994 47.228775 C 318.382371 48.589704 321.189655 51.689079 321.851839 54.3084 C 323.180869 59.519079 322.518685 63.872186 319.897931 67.241883 C 316.661626 71.408561 310.431506 73.902043 303.222101 73.902043 Z M 303.250081 73.869418 " stroke="#231f20" stroke-width="0.25" stroke-opacity="1" stroke-miterlimit="10"/></g></svg>