<svg xmlns="http://www.w3.org/2000/svg" xmlns:xlink="http://www.w3.org/1999/xlink" width="510" zoomAndPan="magnify" viewBox="0 0 382.5 110.999996" height="148" preserveAspectRatio="xMidYMid meet" version="1.0"><defs><clipPath id="b4d4c7d8d2"><path d="M 125.839844 33 L 169 33 L 169 96.496094 L 125.839844 96.496094 Z M 125.839844 33 " clip-rule="nonzero"/></clipPath><clipPath id="6b496485b1"><path d="M 125.839844 30 L 172 30 L 172 96.496094 L 125.839844 96.496094 Z M 125.839844 30 " clip-rule="nonzero"/></clipPath><clipPath id="d6ad8acd7b"><path d="M 172 14.746094 L 185 14.746094 L 185 80 L 172 80 Z M 172 14.746094 " clip-rule="nonzero"/></clipPath><clipPath id="edaa29ccb5"><path d="M 169 14.746094 L 188 14.746094 L 188 83 L 169 83 Z M 169 14.746094 " clip-rule="nonzero"/></clipPath><clipPath id="152b4f4f8c"><path d="M 189 33 L 232 33 L 232 96.496094 L 189 96.496094 Z M 189 33 " clip-rule="nonzero"/></clipPath><clipPath id="a0cd605525"><path d="M 186 30 L 235 30 L 235 96.496094 L 186 96.496094 Z M 186 30 " clip-rule="nonzero"/></clipPath><clipPath id="1e4928b88b"><path d="M 236 33 L 279 33 L 279 96.496094 L 236 96.496094 Z M 236 33 " clip-rule="nonzero"/></clipPath><clipPath id="ef71e9aa63"><path d="M 232 30 L 282 30 L 282 96.496094 L 232 96.496094 Z M 232 30 " clip-rule="nonzero"/></clipPath><clipPath id="633c9c6b2e"><path d="M 282 14.746094 L 295 14.746094 L 295 80 L 282 80 Z M 282 14.746094 " clip-rule="nonzero"/></clipPath><clipPath id="f2b51e700c"><path d="M 279 14.746094 L 298 14.746094 L 298 84 L 279 84 Z M 279 14.746094 " clip-rule="nonzero"/></clipPath><clipPath id="0c840bbf1a"><path d="M 343 33 L 380.839844 33 L 380.839844 80 L 343 80 Z M 343 33 " clip-rule="nonzero"/></clipPath><clipPath id="5a44533687"><path d="M 340 30 L 380.839844 30 L 380.839844 83 L 340 83 Z M 340 30 " clip-rule="nonzero"/></clipPath><clipPath id="0c4da1c83e"><path d="M 1.5 58 L 18 58 L 18 71 L 1.5 71 Z M 1.5 58 " clip-rule="nonzero"/></clipPath><clipPath id="031323dc30"><path d="M 54 3.761719 L 67 3.761719 L 67 20 L 54 20 Z M 54 3.761719 " clip-rule="nonzero"/></clipPath><clipPath id="122ffd01c5"><path d="M 89 40 L 105.75 40 L 105.75 53 L 89 53 Z M 89 40 " clip-rule="nonzero"/></clipPath><clipPath id="28969ec505"><path d="M 47 91 L 60 91 L 60 107.261719 L 47 107.261719 Z M 47 91 " clip-rule="nonzero"/></clipPath></defs><g clip-path="url(#b4d4c7d8d2)"><path fill="#231f20" d="M 146.199219 96.292969 C 142.136719 96.292969 138.234375 95.371094 135.21875 93.703125 C 131.066406 91.40625 127.882812 86.761719 126.769531 83.257812 C 128.300781 82.523438 133.042969 81.402344 135.925781 81.402344 C 136.445312 81.402344 136.722656 81.4375 136.863281 81.472656 L 137.125 81.824219 L 137.222656 81.824219 C 137.222656 81.824219 137.230469 81.832031 137.242188 81.839844 C 138.402344 83.238281 141.949219 87.488281 147.648438 87.488281 C 149.242188 87.488281 150.886719 87.15625 152.542969 86.492188 C 157.832031 84.386719 158.742188 75.789062 158.367188 73.816406 C 158.179688 72.847656 157.480469 72.5 156.9375 72.5 L 156.578125 72.5 L 156.246094 72.679688 C 152.308594 74.917969 148.460938 76.050781 144.820312 76.050781 C 138.378906 76.050781 134.089844 72.570312 131.628906 69.648438 C 128.390625 65.8125 126.34375 60.546875 126 55.230469 C 125.429688 46.175781 129.734375 35.875 143.53125 34.117188 C 146.25 33.769531 149.242188 33.589844 152.175781 33.589844 C 158.769531 33.589844 163.96875 34.523438 165.554688 35.976562 C 166.726562 39.003906 170.324219 76.777344 166.125 85.453125 C 162.941406 92.035156 155.109375 96.292969 146.171875 96.292969 Z M 148.382812 42.574219 C 144.410156 42.574219 140.382812 44.636719 138.125 47.828125 C 136.007812 50.820312 135.566406 54.523438 136.875 58.261719 C 138.769531 63.667969 142.539062 66.769531 147.21875 66.769531 C 152.945312 66.769531 158.164062 62.082031 158.601562 56.53125 C 159.066406 50.652344 157.277344 47.359375 155.683594 45.628906 C 153.859375 43.648438 151.261719 42.5625 148.371094 42.5625 Z M 148.382812 42.574219 " fill-opacity="1" fill-rule="nonzero"/></g><g clip-path="url(#6b496485b1)"><path stroke-linecap="butt" transform="matrix(0.894831, 0, 0, 0.896522, 125.84083, 14.843668)" fill="none" stroke-linejoin="miter" d="M 22.7511 90.850287 C 18.211136 90.850287 13.850152 89.822008 10.480102 87.96152 C 5.839736 85.399537 2.281976 80.218928 1.037851 76.310596 C 2.749068 75.491458 8.048603 74.240966 11.270231 74.240966 C 11.850822 74.240966 12.160762 74.28018 12.317914 74.319394 L 12.610393 74.711535 L 12.719527 74.711535 C 12.719527 74.711535 12.728257 74.720249 12.741353 74.728963 C 14.037862 76.28881 18.0016 81.029351 24.370644 81.029351 C 26.151707 81.029351 27.989519 80.658996 29.840427 79.918287 C 35.751111 77.569802 36.768237 67.979793 36.349163 65.77945 C 36.139627 64.698885 35.358229 64.311102 34.751446 64.311102 L 34.349833 64.311102 L 33.978779 64.51153 C 29.578506 67.008156 25.278637 68.271719 21.210131 68.271719 C 14.01167 68.271719 9.218516 64.38953 6.468346 61.130409 C 2.849471 56.851722 0.562028 50.978332 0.177877 45.048299 C -0.459464 34.948507 4.351152 23.458796 19.769566 21.498094 C 22.807849 21.110311 26.151707 20.909884 29.430085 20.909884 C 36.798794 20.909884 42.609075 21.951234 44.381407 23.572081 C 45.691011 26.948845 49.711498 69.082143 45.018748 78.759294 C 41.460988 86.101032 32.708462 90.850287 22.720542 90.850287 Z M 25.19133 30.931248 C 20.75177 30.931248 16.251094 33.231804 13.727922 36.791567 C 11.361903 40.129116 10.868618 44.259661 12.33101 48.42942 C 14.448205 54.459666 18.660767 57.919215 23.890456 57.919215 C 30.290058 57.919215 36.122165 52.690678 36.611084 46.499218 C 37.130561 39.94176 35.131231 36.268713 33.350168 34.338511 C 31.31155 32.129454 28.408593 30.918176 25.178234 30.918176 Z M 25.19133 30.931248 " stroke="#231f20" stroke-width="0.25" stroke-opacity="1" stroke-miterlimit="10"/></g><g clip-path="url(#d6ad8acd7b)"><path fill="#231f20" d="M 179.386719 79.726562 C 176.382812 79.726562 174.304688 79.347656 173.570312 79.035156 C 172.972656 73.835938 172.898438 38.824219 173.265625 36.179688 L 173.265625 36.011719 C 173.285156 34.78125 175.71875 33.824219 178.816406 33.824219 C 181.910156 33.824219 183.671875 34.675781 183.835938 35.113281 C 184.453125 38.117188 184.703125 71.082031 184.328125 79.195312 C 183.699219 79.421875 182.097656 79.726562 179.386719 79.726562 Z M 178.761719 26.714844 C 176.773438 26.714844 174.984375 25.738281 173.839844 24.023438 C 172.578125 22.140625 172.335938 20.113281 173.152344 18.304688 C 173.929688 16.574219 175.621094 15.257812 177.363281 15.023438 C 177.679688 14.976562 177.992188 14.960938 178.296875 14.960938 C 180.433594 14.960938 182.410156 15.964844 183.59375 17.648438 C 184.65625 19.183594 184.882812 21.019531 184.21875 22.832031 C 183.171875 25.691406 180.710938 26.714844 178.761719 26.714844 Z M 178.761719 26.714844 " fill-opacity="1" fill-rule="nonzero"/></g><g clip-path="url(#edaa29ccb5)"><path stroke-linecap="butt" transform="matrix(0.894831, 0, 0, 0.896522, 125.84083, 14.843668)" fill="none" stroke-linejoin="miter" d="M 59.839109 72.371764 C 56.482155 72.371764 54.159789 71.949124 53.339104 71.600555 C 52.671205 65.801235 52.588264 26.748418 52.998607 23.798651 L 52.998607 23.611295 C 53.020433 22.238804 55.740046 21.171311 59.201768 21.171311 C 62.659125 21.171311 64.627898 22.121162 64.811242 22.609159 C 65.500968 25.95978 65.78035 62.72947 65.361276 71.779197 C 64.658455 72.031909 62.868662 72.371764 59.839109 72.371764 Z M 59.140653 13.241362 C 56.91869 13.241362 54.91936 12.152084 53.640313 10.23931 C 52.230305 8.139181 51.959653 5.877839 52.872011 3.860495 C 53.740716 1.930293 55.630912 0.461945 57.577858 0.200518 C 57.931451 0.148233 58.280679 0.130805 58.621177 0.130805 C 61.009023 0.130805 63.21789 1.250583 64.540591 3.128499 C 65.727966 4.840845 65.981156 6.888689 65.239047 8.91039 C 64.069133 12.099798 61.318963 13.241362 59.140653 13.241362 Z M 59.140653 13.241362 " stroke="#231f20" stroke-width="0.25" stroke-opacity="1" stroke-miterlimit="10"/></g><g clip-path="url(#152b4f4f8c)"><path fill="#231f20" d="M 209.640625 96.292969 C 205.578125 96.292969 201.679688 95.371094 198.664062 93.703125 C 194.511719 91.40625 191.324219 86.761719 190.214844 83.257812 C 191.746094 82.523438 196.488281 81.402344 199.367188 81.402344 C 199.886719 81.402344 200.164062 81.4375 200.308594 81.472656 L 200.566406 81.824219 L 200.667969 81.824219 L 200.683594 81.839844 C 201.847656 83.238281 205.390625 87.488281 211.089844 87.488281 C 212.683594 87.488281 214.332031 87.15625 215.984375 86.492188 C 221.273438 84.386719 222.1875 75.789062 221.8125 73.816406 C 221.625 72.847656 220.925781 72.5 220.378906 72.5 L 220.023438 72.5 L 219.691406 72.679688 C 215.753906 74.917969 211.90625 76.050781 208.265625 76.050781 C 201.820312 76.050781 197.535156 72.570312 195.074219 69.648438 C 191.835938 65.8125 189.785156 60.546875 189.445312 55.230469 C 188.871094 46.175781 193.175781 35.875 206.976562 34.117188 C 209.695312 33.769531 212.683594 33.589844 215.621094 33.589844 C 222.214844 33.589844 227.414062 34.523438 228.996094 35.976562 C 230.167969 39.003906 233.765625 76.777344 229.570312 85.453125 C 226.382812 92.035156 218.554688 96.292969 209.613281 96.292969 Z M 211.824219 42.574219 C 207.851562 42.574219 203.824219 44.636719 201.570312 47.828125 C 199.449219 50.820312 199.011719 54.523438 200.316406 58.261719 C 202.214844 63.667969 205.980469 66.769531 210.660156 66.769531 C 216.390625 66.769531 221.605469 62.082031 222.042969 56.53125 C 222.507812 50.652344 220.71875 47.359375 219.128906 45.628906 C 217.300781 43.648438 214.707031 42.5625 211.816406 42.5625 L 211.824219 42.5625 Z M 211.824219 42.574219 " fill-opacity="1" fill-rule="nonzero"/></g><g clip-path="url(#a0cd605525)"><path stroke-linecap="butt" transform="matrix(0.894831, 0, 0, 0.896522, 125.84083, 14.843668)" fill="none" stroke-linejoin="miter" d="M 93.648741 90.850287 C 89.108778 90.850287 84.752159 89.822008 81.382109 87.96152 C 76.741742 85.399537 73.179617 80.218928 71.939858 76.310596 C 73.651075 75.491458 78.950609 74.240966 82.167872 74.240966 C 82.748463 74.240966 83.058403 74.28018 83.219921 74.319394 L 83.508034 74.711535 L 83.621533 74.711535 L 83.638995 74.728963 C 84.939869 76.28881 88.899241 81.029351 95.268286 81.029351 C 97.049348 81.029351 98.891526 80.658996 100.738069 79.918287 C 106.648752 77.569802 107.670244 67.979793 107.25117 65.77945 C 107.041633 64.698885 106.260236 64.311102 105.649087 64.311102 L 105.25184 64.311102 L 104.880785 64.51153 C 100.480513 67.008156 96.180644 68.271719 92.112138 68.271719 C 84.909311 68.271719 80.120523 64.38953 77.370353 61.130409 C 73.751478 56.851722 71.45967 50.978332 71.079884 45.048299 C 70.438178 34.948507 75.248793 23.458796 90.671573 21.498094 C 93.709856 21.110311 97.049348 20.909884 100.332091 20.909884 C 107.700801 20.909884 113.511081 21.951234 115.279048 23.572081 C 116.588653 26.948845 120.60914 69.082143 115.920754 78.759294 C 112.358629 86.101032 103.610469 90.850287 93.618184 90.850287 Z M 96.088972 30.931248 C 91.649411 30.931248 87.148736 33.231804 84.629929 36.791567 C 82.259544 40.129116 81.770625 44.259661 83.228652 48.42942 C 85.350212 54.459666 89.558409 57.919215 94.788097 57.919215 C 101.192065 57.919215 107.019807 52.690678 107.508726 46.499218 C 108.028202 39.94176 106.028872 36.268713 104.252175 34.338511 C 102.209192 32.129454 99.310599 30.918176 96.080241 30.918176 L 96.088972 30.918176 Z M 96.088972 30.931248 " stroke="#231f20" stroke-width="0.25" stroke-opacity="1" stroke-miterlimit="10"/></g><g clip-path="url(#1e4928b88b)"><path fill="#231f20" d="M 256.261719 96.292969 C 252.199219 96.292969 248.296875 95.371094 245.28125 93.703125 C 241.128906 91.40625 237.945312 86.761719 236.835938 83.257812 C 238.367188 82.523438 243.109375 81.402344 245.988281 81.402344 C 246.507812 81.402344 246.796875 81.4375 246.929688 81.472656 L 247.1875 81.824219 L 247.289062 81.824219 C 247.289062 81.824219 247.289062 81.832031 247.304688 81.839844 C 248.46875 83.238281 252.011719 87.488281 257.710938 87.488281 C 259.304688 87.488281 260.953125 87.15625 262.605469 86.492188 C 267.894531 84.386719 268.808594 75.796875 268.433594 73.816406 C 268.246094 72.847656 267.546875 72.5 267 72.5 L 266.652344 72.5 L 266.320312 72.679688 C 262.382812 74.917969 258.535156 76.050781 254.894531 76.050781 C 248.449219 76.050781 244.164062 72.570312 241.703125 69.648438 C 238.464844 65.8125 236.414062 60.546875 236.074219 55.230469 C 235.503906 46.175781 239.804688 35.875 253.605469 34.117188 C 256.324219 33.769531 259.3125 33.589844 262.25 33.589844 C 268.84375 33.589844 274.042969 34.523438 275.625 35.976562 C 276.796875 39.003906 280.394531 76.777344 276.207031 85.453125 C 273.023438 92.035156 265.191406 96.292969 256.253906 96.292969 Z M 258.445312 42.574219 C 254.472656 42.574219 250.445312 44.636719 248.191406 47.828125 C 246.070312 50.820312 245.632812 54.523438 246.9375 58.261719 C 248.835938 63.667969 252.601562 66.769531 257.28125 66.769531 C 263.007812 66.769531 268.226562 62.082031 268.664062 56.53125 C 269.140625 50.652344 267.339844 47.359375 265.746094 45.628906 C 263.921875 43.648438 261.328125 42.5625 258.4375 42.5625 Z M 258.445312 42.574219 " fill-opacity="1" fill-rule="nonzero"/></g><g clip-path="url(#ef71e9aa63)"><path stroke-linecap="butt" transform="matrix(0.894831, 0, 0, 0.896522, 125.84083, 14.843668)" fill="none" stroke-linejoin="miter" d="M 145.749188 90.850287 C 141.209224 90.850287 136.84824 89.822008 133.47819 87.96152 C 128.837824 85.399537 125.280064 80.218928 124.040304 76.310596 C 125.751521 75.491458 131.051056 74.240966 134.268318 74.240966 C 134.84891 74.240966 135.171946 74.28018 135.320368 74.319394 L 135.608481 74.711535 L 135.72198 74.711535 C 135.72198 74.711535 135.72198 74.720249 135.739441 74.728963 C 137.040315 76.28881 140.999687 81.029351 147.368732 81.029351 C 149.149795 81.029351 150.991972 80.658996 152.838515 79.918287 C 158.749198 77.569802 159.77069 67.988507 159.351617 65.77945 C 159.14208 64.698885 158.360682 64.311102 157.749533 64.311102 L 157.361017 64.311102 L 156.989962 64.51153 C 152.58969 67.008156 148.289821 68.271719 144.221315 68.271719 C 137.018488 68.271719 132.2297 64.38953 129.47953 61.130409 C 125.860655 56.851722 123.568847 50.978332 123.189061 45.048299 C 122.55172 34.948507 127.35797 23.458796 142.78075 21.498094 C 145.819033 21.110311 149.158525 20.909884 152.441268 20.909884 C 159.809978 20.909884 165.620258 21.951234 167.388225 23.572081 C 168.69783 26.948845 172.718317 69.082143 168.038662 78.759294 C 164.480902 86.101032 155.728376 90.850287 145.740457 90.850287 Z M 148.189418 30.931248 C 143.749857 30.931248 139.249182 33.231804 136.730375 36.791567 C 134.359991 40.129116 133.871071 44.259661 135.329098 48.42942 C 137.450658 54.459666 141.658855 57.919215 146.888544 57.919215 C 153.288146 57.919215 159.120253 52.690678 159.609172 46.499218 C 160.141745 39.94176 158.129319 36.268713 156.348256 34.338511 C 154.309638 32.129454 151.411046 30.918176 148.180687 30.918176 Z M 148.189418 30.931248 " stroke="#231f20" stroke-width="0.25" stroke-opacity="1" stroke-miterlimit="10"/></g><g clip-path="url(#633c9c6b2e)"><path fill="#231f20" d="M 287.214844 79.957031 C 285.058594 79.957031 283.734375 79.734375 283.234375 79.546875 C 282.480469 76.6875 282.640625 58.523438 282.75 46.390625 C 282.792969 41.828125 282.828125 37.550781 282.828125 34.128906 C 282.828125 28.640625 283.25 17.757812 283.867188 15.613281 C 284.628906 15.328125 286.625 14.988281 289.066406 14.988281 C 292.046875 14.988281 293.578125 15.472656 293.953125 15.757812 C 294.847656 22.609375 294.230469 48.589844 293.898438 62.59375 C 293.792969 67.148438 293.710938 70.4375 293.710938 71.878906 C 293.710938 72.722656 293.65625 73.628906 293.59375 74.589844 C 293.523438 75.78125 293.453125 77.007812 293.46875 78.238281 C 293.398438 78.757812 293.328125 79.089844 293.273438 79.277344 C 292.074219 79.671875 289.59375 79.957031 287.207031 79.957031 Z M 287.214844 79.957031 " fill-opacity="1" fill-rule="nonzero"/></g><g clip-path="url(#f2b51e700c)"><path stroke-linecap="butt" transform="matrix(0.894831, 0, 0, 0.896522, 125.84083, 14.843668)" fill="none" stroke-linejoin="miter" d="M 180.340217 72.628834 C 177.930544 72.628834 176.450691 72.380478 175.891926 72.171337 C 175.049413 68.981929 175.228393 48.721346 175.350623 35.188148 C 175.398641 30.099039 175.43793 25.327998 175.43793 21.511166 C 175.43793 15.38942 175.909387 3.250499 176.599112 0.858443 C 177.450356 0.540373 179.681049 0.161304 182.409393 0.161304 C 185.740154 0.161304 187.451371 0.701587 187.870445 1.019656 C 188.87011 8.662035 188.180385 37.641204 187.80933 53.26146 C 187.691466 58.341855 187.599793 62.010546 187.599793 63.618321 C 187.599793 64.559458 187.538678 65.570308 187.468833 66.642159 C 187.390256 67.971078 187.31168 69.339212 187.329142 70.711704 C 187.250565 71.2912 187.171989 71.661555 187.110874 71.870696 C 185.770712 72.310765 182.998715 72.628834 180.331486 72.628834 Z M 180.340217 72.628834 " stroke="#231f20" stroke-width="0.25" stroke-opacity="1" stroke-miterlimit="10"/></g><path stroke-linecap="butt" transform="matrix(0.894831, 0, 0, 0.896522, 125.84083, 14.843668)" fill-opacity="1" fill="#231f20" fill-rule="nonzero" stroke-linejoin="miter" d="M 217.209959 72.52862 C 207.038695 72.52862 195.79792 65.949377 194.008126 53.370388 C 192.161583 40.421043 196.107859 32.700236 199.748561 28.508692 C 203.900008 23.728937 209.911095 20.979598 216.240851 20.979598 C 222.570608 20.979598 227.77847 23.402154 231.759669 27.781054 C 236.709975 33.240518 238.831535 41.240181 237.871158 50.899904 L 237.871158 51.000117 C 235.841271 51.030617 233.820114 51.091617 231.798957 51.139545 C 228.799962 51.217973 225.700564 51.309472 222.657915 51.309472 L 222.208284 51.309472 C 221.269734 51.309472 220.09109 51.309472 218.812042 51.278973 C 217.03098 51.261544 215.070938 51.239759 213.329163 51.239759 C 207.85065 51.239759 207.697862 51.400972 207.200213 51.919468 L 206.759312 52.381323 L 206.781139 53.039247 C 207.038695 58.498711 211.53937 62.768684 217.03971 62.768684 C 220.649854 62.768684 223.90204 60.97791 226.21131 57.731859 L 226.268059 57.64036 C 226.599826 57.178506 226.800632 56.93015 226.918496 56.799437 C 230.000433 56.829937 235.430928 58.28957 237.198894 59.200207 C 233.719711 67.548438 226.311713 72.511192 217.21869 72.511192 L 217.21869 72.52862 Z M 215.599145 31.920313 C 210.971875 31.920313 206.200547 35.061792 205.977915 42.068032 L 205.921165 43.802164 L 207.641113 43.610451 C 209.221369 43.440523 211.050451 43.362095 213.399009 43.362095 C 214.72171 43.362095 216.061872 43.379524 217.388938 43.410024 C 218.72037 43.431809 220.038705 43.457952 221.330849 43.457952 C 222.710299 43.457952 223.880213 43.431809 224.927897 43.37081 L 226.52998 43.27931 L 226.329174 41.688963 C 225.539046 35.279648 220.331184 31.929027 215.599145 31.929027 Z M 215.599145 31.920313 " stroke="#231f20" stroke-width="0.25" stroke-opacity="1" stroke-miterlimit="10"/><g clip-path="url(#0c840bbf1a)"><path fill="#231f20" d="M 362.765625 79.742188 C 358.757812 79.742188 354.945312 78.863281 352.035156 77.277344 C 347.1875 74.613281 342.785156 68.671875 343.597656 63.167969 C 344.546875 62.761719 347.667969 62.242188 350.898438 62.242188 C 352.554688 62.242188 353.359375 62.386719 353.710938 62.476562 C 355.679688 68.707031 360.082031 70.929688 363.3125 70.929688 C 365.84375 70.929688 367.867188 69.691406 368.464844 67.785156 C 368.789062 66.777344 369.082031 64.125 365.019531 61.265625 C 363.507812 60.199219 361.796875 59.425781 360.132812 58.683594 C 359.050781 58.199219 357.941406 57.699219 356.894531 57.125 L 356.816406 57.085938 C 353.09375 55.347656 350.390625 51.808594 349.753906 47.835938 C 349.15625 44.070312 350.425781 40.484375 353.332031 37.757812 C 356.117188 35.148438 360.546875 33.597656 365.191406 33.597656 C 370.265625 33.597656 374.78125 35.375 377.574219 38.457031 C 379.882812 41.011719 380.929688 44.304688 380.699219 48.265625 C 379.980469 48.410156 378.566406 48.570312 376.636719 48.570312 C 374.066406 48.570312 372.492188 48.285156 371.882812 48.050781 C 371.855469 45.441406 370.871094 43.863281 370.023438 42.984375 C 368.886719 41.8125 367.335938 41.164062 365.65625 41.164062 C 363.527344 41.164062 361.628906 42.25 360.816406 43.917969 C 360.285156 44.992188 359.765625 47.253906 362.140625 50.308594 C 363.722656 52.355469 365.878906 52.902344 368.152344 53.476562 C 369.976562 53.941406 372.054688 54.460938 374.316406 55.859375 C 376.304688 57.078125 378.820312 59.859375 379.410156 62.207031 C 380.597656 66.878906 380.007812 70.777344 377.664062 73.800781 C 374.765625 77.539062 369.191406 79.769531 362.738281 79.769531 Z M 362.765625 79.742188 " fill-opacity="1" fill-rule="nonzero"/></g><g clip-path="url(#5a44533687)"><path stroke-linecap="butt" transform="matrix(0.894831, 0, 0, 0.896522, 125.84083, 14.843668)" fill="none" stroke-linejoin="miter" d="M 264.770442 72.389193 C 260.291593 72.389193 256.031012 71.408842 252.778827 69.639853 C 247.361428 66.668301 242.441679 60.04113 243.349672 53.901956 C 244.410452 53.448816 247.898366 52.869319 251.50851 52.869319 C 253.359418 52.869319 254.25868 53.030533 254.651562 53.130746 C 256.851698 60.080344 261.771447 62.559542 265.381591 62.559542 C 268.210337 62.559542 270.471588 61.178337 271.139487 59.052065 C 271.501811 57.927929 271.829212 54.969449 267.289249 51.780041 C 265.599858 50.590548 263.687835 49.72784 261.828196 48.899988 C 260.618994 48.359706 259.379235 47.801995 258.209322 47.161499 L 258.122015 47.117928 C 253.961836 45.179012 250.941015 41.231466 250.229463 36.800281 C 249.561564 32.600022 250.980303 28.600191 254.228123 25.558925 C 257.340617 22.648373 262.290923 20.918598 267.481324 20.918598 C 273.151913 20.918598 278.198257 22.901085 281.319482 26.338849 C 283.899403 29.188402 285.069317 32.861449 284.811761 37.279563 C 284.008537 37.440777 282.428281 37.619418 280.271798 37.619418 C 277.399398 37.619418 275.640162 37.301349 274.959168 37.039922 C 274.92861 34.12937 273.828542 32.369095 272.881261 31.388745 C 271.610945 30.08161 269.877901 29.358329 268.0008 29.358329 C 265.621685 29.358329 263.500125 30.569607 262.592132 32.430095 C 261.998445 33.628301 261.417853 36.151071 264.071986 39.558334 C 265.839952 41.841462 268.249625 42.451458 270.790259 43.091954 C 272.828877 43.610451 275.151243 44.189947 277.67878 45.749794 C 279.900743 47.109214 282.712028 50.211479 283.371196 52.830105 C 284.698262 58.041214 284.039095 62.389615 281.419885 65.762021 C 278.180796 69.93178 271.951442 72.419692 264.739884 72.419692 Z M 264.770442 72.389193 " stroke="#231f20" stroke-width="0.25" stroke-opacity="1" stroke-miterlimit="10"/></g><path fill="#f7ae47" d="M 53.683594 87.53125 C 76.644531 87.703125 90.339844 66.820312 85.675781 49.21875 C 80.796875 30.796875 63.59375 22.464844 52.933594 23.277344 C 37.109375 24.484375 25.3125 32.421875 21.6875 50.886719 C 18.0625 69.351562 30.722656 87.359375 53.683594 87.53125 Z M 53.683594 87.53125 " fill-opacity="1" fill-rule="nonzero"/><path fill="#f7ae47" d="M 30.550781 24.140625 C 33.082031 25.40625 39.757812 21.609375 40.21875 19.308594 C 40.625 17.265625 32.390625 7.574219 28.824219 9.066406 C 25.257812 10.5625 28.476562 23.105469 30.550781 24.140625 Z M 30.550781 24.140625 " fill-opacity="1" fill-rule="nonzero"/><path fill="#f7ae47" d="M 84.574219 31.941406 C 86.628906 31.605469 92.796875 20.484375 90.140625 17.671875 C 87.480469 14.863281 76.878906 22.300781 76.640625 24.601562 C 76.347656 27.417969 82.257812 32.324219 84.574219 31.941406 Z M 84.574219 31.941406 " fill-opacity="1" fill-rule="nonzero"/><g clip-path="url(#0c4da1c83e)"><path fill="#f7ae47" d="M 14.132812 58.679688 C 12.234375 57.816406 0.929688 63.644531 1.578125 67.457031 C 2.230469 71.265625 15.175781 70.964844 16.65625 69.183594 C 18.460938 67.003906 16.273438 59.644531 14.132812 58.675781 Z M 14.132812 58.679688 " fill-opacity="1" fill-rule="nonzero"/></g><path fill="#f7ae47" d="M 15.589844 43.238281 C 18.582031 43.121094 21.691406 36.609375 20.996094 34.035156 C 20.191406 31.042969 7.570312 29 6.035156 31.503906 C 3.851562 35.070312 11.449219 43.398438 15.585938 43.238281 Z M 15.589844 43.238281 " fill-opacity="1" fill-rule="nonzero"/><path fill="#f7ae47" d="M 25.21875 81.734375 C 22.132812 81.46875 15.90625 92.632812 17.734375 94.925781 C 20.339844 98.199219 30.765625 93.902344 32.027344 89.957031 C 32.941406 87.105469 27.878906 81.960938 25.21875 81.734375 Z M 25.21875 81.734375 " fill-opacity="1" fill-rule="nonzero"/><g clip-path="url(#031323dc30)"><path fill="#f7ae47" d="M 64.75 18.925781 C 67.40625 17.328125 65.898438 4.636719 63.070312 3.851562 C 59.035156 2.730469 53.117188 12.324219 54.410156 16.257812 C 55.34375 19.101562 62.464844 20.300781 64.75 18.925781 Z M 64.75 18.925781 " fill-opacity="1" fill-rule="nonzero"/></g><g clip-path="url(#122ffd01c5)"><path fill="#f7ae47" d="M 105.691406 45.066406 C 105.335938 40.898438 94.273438 38.707031 91.039062 41.292969 C 88.699219 43.164062 90.0625 50.25 92.152344 51.910156 C 94.578125 53.839844 105.945312 47.988281 105.691406 45.066406 Z M 105.691406 45.066406 " fill-opacity="1" fill-rule="nonzero"/></g><path fill="#f7ae47" d="M 83.023438 81.996094 C 80.273438 80.8125 74.660156 85.351562 74.175781 87.972656 C 73.613281 91.019531 84.125 98.296875 86.585938 96.699219 C 90.097656 94.425781 86.828125 83.636719 83.023438 81.996094 Z M 83.023438 81.996094 " fill-opacity="1" fill-rule="nonzero"/><path fill="#f7ae47" d="M 92.660156 63.292969 C 89.710938 63.808594 87.5 70.679688 88.535156 73.136719 C 89.730469 75.996094 102.515625 76.328125 103.699219 73.644531 C 105.386719 69.816406 96.742188 62.582031 92.660156 63.292969 Z M 92.660156 63.292969 " fill-opacity="1" fill-rule="nonzero"/><g clip-path="url(#28969ec505)"><path fill="#f7ae47" d="M 48.308594 92.8125 C 46.027344 94.90625 50.027344 107.046875 52.953125 107.253906 C 57.128906 107.550781 61.023438 96.972656 58.972656 93.375 C 57.492188 90.773438 50.277344 91.011719 48.308594 92.8125 Z M 48.308594 92.8125 " fill-opacity="1" fill-rule="nonzero"/></g><path fill="#000000" d="M 41.523438 49.425781 C 40.371094 49.414062 39.386719 49.804688 38.613281 50.574219 C 36.816406 52.359375 36.800781 55.601562 36.800781 55.742188 C 36.800781 56.023438 37.03125 56.25 37.3125 56.25 C 37.589844 56.25 37.820312 56.023438 37.820312 55.738281 C 37.820312 55.710938 37.835938 52.777344 39.332031 51.292969 C 39.914062 50.714844 40.625 50.441406 41.515625 50.445312 C 45.332031 50.472656 45.40625 55.410156 45.410156 55.617188 C 45.410156 55.898438 45.636719 56.125 45.917969 56.125 C 46.199219 56.125 46.425781 55.894531 46.425781 55.613281 C 46.417969 53.484375 45.382812 49.457031 41.523438 49.425781 Z M 41.523438 49.425781 " fill-opacity="1" fill-rule="nonzero"/><path fill="#000000" d="M 69.972656 50.3125 C 69.195312 49.550781 68.207031 49.175781 67.054688 49.195312 C 63.195312 49.261719 62.199219 53.300781 62.210938 55.429688 C 62.210938 55.710938 62.4375 55.933594 62.71875 55.933594 L 62.722656 55.933594 C 63 55.933594 63.230469 55.703125 63.226562 55.425781 C 63.226562 55.214844 63.257812 50.277344 67.070312 50.210938 C 67.960938 50.199219 68.675781 50.46875 69.261719 51.039062 C 70.769531 52.507812 70.816406 55.425781 70.816406 55.472656 C 70.816406 55.75 71.046875 55.976562 71.324219 55.976562 C 71.324219 55.976562 71.328125 55.976562 71.328125 55.976562 C 71.609375 55.976562 71.835938 55.746094 71.835938 55.464844 C 71.835938 55.324219 71.789062 52.085938 69.972656 50.3125 Z M 69.972656 50.3125 " fill-opacity="1" fill-rule="nonzero"/><path fill="#000000" d="M 58.273438 59.914062 C 58.035156 59.761719 57.722656 59.832031 57.570312 60.066406 C 57.558594 60.089844 56.296875 62.019531 54.25 62.058594 C 51.851562 62.105469 50.835938 60.332031 50.792969 60.25 C 50.65625 60.003906 50.351562 59.914062 50.105469 60.046875 C 49.855469 60.183594 49.765625 60.492188 49.898438 60.738281 C 49.953125 60.835938 51.199219 63.074219 54.15625 63.074219 C 54.195312 63.074219 54.230469 63.074219 54.269531 63.074219 C 56.871094 63.027344 58.367188 60.710938 58.429688 60.613281 C 58.578125 60.375 58.507812 60.0625 58.273438 59.910156 Z M 58.273438 59.914062 " fill-opacity="1" fill-rule="nonzero"/><path fill="#ec6a52" d="M 32.351562 60.035156 C 30.675781 60.015625 29.089844 61.546875 29.238281 63.296875 C 29.371094 64.851562 30.273438 66.222656 32.230469 66.324219 C 33.898438 66.414062 35.589844 65.03125 35.644531 63.378906 C 35.707031 61.347656 34.023438 60.058594 32.351562 60.035156 Z M 32.351562 60.035156 " fill-opacity="1" fill-rule="nonzero"/><path fill="#ec6a52" d="M 76.117188 60.511719 C 74.445312 60.492188 72.726562 61.734375 72.738281 63.765625 C 72.746094 65.417969 74.398438 66.816406 76.074219 66.800781 C 77.722656 66.785156 78.992188 65.496094 79.144531 63.851562 C 79.34375 61.6875 77.792969 60.535156 76.117188 60.511719 Z M 76.117188 60.511719 " fill-opacity="1" fill-rule="nonzero"/></svg>