<?xml version="1.0" encoding="UTF-8"?>
<svg id="Layer_2" data-name="Layer 2" xmlns="http://www.w3.org/2000/svg" viewBox="0 0 427.2 494.5">
  <defs>
    <style>
      .cls-1 {
        fill: #474747;
      }
    </style>
  </defs>
  <g id="Layer_2-2" data-name="Layer 2">
    <g>
      <path class="cls-1" d="M201.72,433.38c-47.18,0-89.84-13.25-120.12-37.32-33.14-26.34-50.66-64.1-50.66-109.2,0-32.78,9.54-67.99,26.86-99.14,2.01-3.62,6.58-4.92,10.2-2.91,3.62,2.01,4.92,6.58,2.91,10.2-16.1,28.96-24.97,61.58-24.97,91.85,0,40.36,15.56,74.06,44.99,97.46,27.64,21.97,66.99,34.06,110.79,34.06,39.14,0,74.09-9.35,101.07-27.05,27.94-18.32,45.99-45.06,52.21-77.33,.78-4.07,4.72-6.73,8.78-5.95,4.07,.78,6.73,4.72,5.95,8.78-7,36.35-27.3,66.45-58.71,87.04-29.43,19.3-67.23,29.5-109.3,29.5Z"/>
      <path class="cls-1" d="M344.73,211.57c-2.79,0-5.46-1.56-6.76-4.24-1.77-3.66-3.68-7.32-5.67-10.88-2.02-3.62-.73-8.18,2.89-10.21,3.61-2.02,8.18-.73,10.21,2.89,2.13,3.82,4.18,7.75,6.08,11.67,1.8,3.73,.24,8.21-3.49,10.02-1.05,.51-2.16,.75-3.26,.75Z"/>
      <g>
        <circle class="cls-1" cx="117.4" cy="272.58" r="16.64" transform="translate(-170.47 344.8) rotate(-80.78)"/>
        <circle class="cls-1" cx="227.56" cy="272.58" r="16.64" transform="translate(-77.96 453.54) rotate(-80.78)"/>
      </g>
      <path class="cls-1" d="M172.64,365.94c-16.91,0-30.67-13.76-30.67-30.67v-6.1c0-4.14,3.36-7.5,7.5-7.5h46.35c4.14,0,7.5,3.36,7.5,7.5v6.1c0,16.91-13.76,30.67-30.67,30.67Zm-15.61-29.27c.71,7.99,7.44,14.27,15.61,14.27s14.9-6.28,15.61-14.27h-31.22Z"/>
      <path class="cls-1" d="M349.21,304.52c-10.11,0-19.62-4.94-25.45-13.21-2.39-3.39-1.58-8.06,1.81-10.45,3.39-2.39,8.07-1.57,10.45,1.81,3.02,4.29,7.95,6.85,13.18,6.85,8.89,0,16.12-7.23,16.12-16.12v-24.22c0-8.89-7.23-16.12-16.12-16.12-5.5,0-10.56,2.76-13.55,7.39-2.25,3.48-6.89,4.48-10.37,2.23-3.48-2.25-4.48-6.89-2.23-10.37,5.76-8.92,15.54-14.24,26.15-14.24,17.16,0,31.12,13.96,31.12,31.12v24.22c0,17.16-13.96,31.12-31.12,31.12Z"/>
      <path class="cls-1" d="M31.12,304.52c-17.16,0-31.12-13.96-31.12-31.12v-24.22c0-17.16,13.96-31.12,31.12-31.12,6.32,0,12.41,1.89,17.6,5.45,3.41,2.35,4.28,7.01,1.94,10.43-2.34,3.41-7.01,4.28-10.43,1.94-2.68-1.84-5.83-2.82-9.11-2.82-8.89,0-16.12,7.23-16.12,16.12v24.22c0,8.89,7.23,16.12,16.12,16.12,1.34,0,2.67-.16,3.96-.49,4.01-1.01,8.09,1.43,9.1,5.44,1.01,4.02-1.43,8.09-5.44,9.1-2.48,.62-5.04,.94-7.62,.94Z"/>
      <path class="cls-1" d="M56.48,492.88c-1.24,0-2.49-.31-3.65-.95-3.62-2.02-4.91-6.59-2.9-10.2l12.28-22.02c14.08-25.25,39.73-41.27,68.6-42.85l30.32-1.66c4.13-.22,7.67,2.94,7.9,7.08,.23,4.14-2.94,7.67-7.08,7.9l-30.32,1.66c-23.7,1.3-44.76,14.45-56.32,35.18l-12.28,22.02c-1.37,2.46-3.93,3.85-6.56,3.85Z"/>
      <path class="cls-1" d="M334.27,494.5c-2.63,0-5.18-1.39-6.56-3.85l-12.28-22.02c-11.56-20.73-32.62-33.88-56.32-35.18l-30.32-1.66c-4.14-.23-7.31-3.76-7.08-7.9,.23-4.14,3.77-7.32,7.9-7.08l30.32,1.66c28.87,1.58,54.52,17.6,68.6,42.85l12.28,22.02c2.02,3.62,.72,8.19-2.9,10.2-1.16,.64-2.41,.95-3.65,.95Z"/>
      <path class="cls-1" d="M259.35,202.54c-10.52,0-20.54-4.22-27.92-11.42-7.38,7.2-17.4,11.42-27.92,11.42s-19.94-3.9-27.24-10.74c-7.3,6.84-16.97,10.74-27.24,10.74-13.6,0-26.2-7.06-33.47-18.19-4.77,1.96-9.89,2.97-15.13,2.97-22.01,0-39.91-17.9-39.91-39.91,0-20.37,15.35-37.23,35.09-39.62,2.71-5.08,8.14-13.86,17.07-22.6,12.39-12.13,34.18-26.6,67.62-26.6,4.14,0,7.5,3.36,7.5,7.5s-3.36,7.5-7.5,7.5c-54.18,0-72.75,43.81-72.93,44.25-1.15,2.82-3.9,4.66-6.94,4.66-13.73,0-24.91,11.17-24.91,24.91s11.17,24.91,24.91,24.91c5.05,0,9.91-1.5,14.06-4.35,1.9-1.3,4.29-1.66,6.48-.97,2.19,.69,3.95,2.34,4.77,4.49,3.65,9.6,13.01,16.05,23.28,16.05,8.49,0,16.32-4.27,20.94-11.43,1.38-2.14,3.75-3.43,6.3-3.43h0c2.55,0,4.92,1.29,6.3,3.43,4.62,7.16,12.45,11.43,20.94,11.43s16.99-4.7,21.46-12.27c1.35-2.28,3.8-3.69,6.46-3.69s5.11,1.4,6.46,3.69c4.47,7.57,12.69,12.27,21.46,12.27s17.13-4.78,21.58-12.48c1.03-1.78,2.74-3.06,4.73-3.54,2-.48,4.1-.12,5.83,.99,4.02,2.6,8.68,3.97,13.48,3.97,11.58,0,21.54-7.85,24.23-19.09,.96-4.03,5-6.52,9.04-5.55,4.03,.96,6.51,5.01,5.55,9.04-4.31,18.02-20.27,30.6-38.82,30.6-5.26,0-10.42-1.03-15.22-3.02-7.51,8.81-18.63,14.07-30.4,14.07Z"/>
      <g>
        <path class="cls-1" d="M216.09,125.55c-5.51,0-10.91-1.97-15.29-5.76-6.92-6-9.69-15.21-7.23-24.03l11.09-39.72c2.44-8.74,9.51-15.17,18.44-16.77,8.94-1.6,17.8,1.97,23.12,9.31l21.88,30.19c2.43,3.35,1.68,8.04-1.67,10.47-3.35,2.43-8.04,1.68-10.47-1.67l-21.88-30.19c-1.95-2.68-5.07-3.94-8.33-3.35-3.27,.59-5.75,2.84-6.64,6.04l-11.09,39.72c-.9,3.23,.07,6.46,2.6,8.66,2.53,2.19,5.87,2.7,8.94,1.35l33.75-14.88c3.79-1.67,8.22,.05,9.89,3.84,1.67,3.79-.05,8.22-3.84,9.89l-33.75,14.88c-3.08,1.36-6.32,2.03-9.52,2.03Z"/>
        <path class="cls-1" d="M307.55,151.09c-7.57,0-14.65-3.63-19.11-10.01l-21.15-30.22c-2.38-3.39-1.55-8.07,1.84-10.45,3.4-2.38,8.07-1.55,10.45,1.84l21.15,30.22c1.92,2.75,5.04,4.05,8.34,3.48,3.3-.56,5.81-2.83,6.71-6.05l11.09-39.72c.89-3.2-.06-6.42-2.55-8.61-2.49-2.2-5.8-2.74-8.86-1.45l-34.35,14.48c-3.82,1.61-8.21-.18-9.82-4-1.61-3.82,.18-8.22,4-9.82l34.36-14.48c8.37-3.52,17.8-1.98,24.6,4.02,6.81,6,9.52,15.16,7.08,23.9l-11.09,39.72c-2.46,8.82-9.6,15.26-18.63,16.8-1.36,.23-2.71,.34-4.04,.34Z"/>
        <path class="cls-1" d="M266.25,115.75c-1.49,0-2.98-.2-4.45-.61t0,0l-.51-.14c-4.24-1.18-7.76-3.95-9.92-7.78-2.16-3.83-2.7-8.28-1.51-12.51l2.4-8.58c2.44-8.75,11.55-13.87,20.29-11.43l.52,.14c8.74,2.44,13.87,11.54,11.43,20.29l-2.4,8.58c-1.18,4.24-3.95,7.76-7.78,9.92-2.5,1.41-5.26,2.13-8.06,2.13Zm-.42-15.06c.48,.14,.87,0,1.12-.13,.24-.14,.56-.4,.69-.88l2.4-8.58c.22-.78-.24-1.59-1.02-1.81l-.52-.14c-.77-.22-1.59,.24-1.8,1.02l-2.4,8.58c-.14,.48,0,.87,.13,1.12,.14,.24,.4,.56,.88,.69l.51,.14Z"/>
      </g>
      <path class="cls-1" d="M357.47,127.15c-3.97,0-7.28-3.11-7.48-7.12-.21-4.14,2.97-7.66,7.11-7.87,16.02-.81,32.93-7.35,44.45-12.8-11.38-7.42-20.96-20.31-30.91-33.71-15.47-20.81-31.46-42.32-55.77-48.38-39.74-9.9-54.8,15.6-55.42,16.7-2,3.63-6.55,4.93-10.17,2.93-3.63-2-4.94-6.58-2.94-10.21,.54-.99,5.63-9.84,17.06-17.18,10.51-6.75,28.61-13.4,55.1-6.8,29.52,7.36,47.93,32.13,64.18,53.99,13.12,17.65,24.46,32.9,37.68,34.05,3.22,.28,5.9,2.59,6.65,5.73,.75,3.14-.6,6.41-3.35,8.11-1.38,.85-34.13,20.92-65.79,22.53-.13,0-.26,0-.39,0Z"/>
      <path class="cls-1" d="M192.73,466.68c-21.81,0-39.56-17.75-39.56-39.56,0-4.14,3.36-7.5,7.5-7.5s7.5,3.36,7.5,7.5c0,13.54,11.02,24.56,24.56,24.56s24.56-11.02,24.56-24.56c0-4.14,3.36-7.5,7.5-7.5s7.5,3.36,7.5,7.5c0,21.81-17.75,39.56-39.56,39.56Z"/>
    </g>
  </g>
</svg>