<?xml version="1.0" encoding="UTF-8"?>
<svg id="Layer_2" data-name="Layer 2" xmlns="http://www.w3.org/2000/svg" viewBox="0 0 486.78 484.66">
  <defs>
    <style>
      .cls-1 {
        fill: #474747;
      }
    </style>
  </defs>
  <g id="Layer_2-2" data-name="Layer 2">
    <g>
      <g>
        <g>
          <path class="cls-1" d="M153.77,404.24c-20.18,0-39.8-6.34-56.4-18.42-20.5-14.92-34.08-36.91-38.25-61.91l-.2-1.19c-3.18-19.04-.6-38.38,7.46-55.93l3.79-8.24-7.28-56.25c-.02-.19-.04-.39-.05-.58-1.64-32.27,8.74-63.81,29.22-88.81,20.48-24.99,49.36-41.37,81.33-46.11,31.97-4.74,64.36,2.55,91.21,20.52,26.85,17.98,45.94,45.14,53.74,76.5,.04,.18,.08,.37,.12,.55l9.89,58.04,3.98,4.29c13.62,14.68,22.21,32.94,24.83,52.8,3.32,25.17-3.26,50.2-18.55,70.47-15.29,20.27-37.54,33.49-62.65,37.21h0l-107.91,16c-4.77,.71-9.54,1.06-14.27,1.06ZM77.82,200.66l7.51,58.1c.18,1.4-.04,2.81-.62,4.09l-4.68,10.2c-6.8,14.81-8.98,31.13-6.3,47.2l.2,1.19c3.52,21.1,14.98,39.66,32.28,52.25,17.3,12.59,38.48,17.8,59.64,14.66l107.91-16h0c21.2-3.14,39.97-14.3,52.88-31.4,12.9-17.11,18.46-38.23,15.66-59.47-2.21-16.76-9.46-32.17-20.96-44.56l-5.5-5.93c-.99-1.07-1.65-2.4-1.9-3.84l-10.21-59.97c-6.94-27.62-23.79-51.54-47.46-67.39-23.75-15.9-52.4-22.34-80.67-18.15-28.27,4.19-53.81,18.67-71.93,40.78-18.05,22.03-27.23,49.81-25.86,78.25Z"/>
          <path class="cls-1" d="M61.88,283c-6.01,0-11.84-1.91-16.75-5.56-6.05-4.49-10-11.07-11.1-18.53l-2.46-16.62c-1.11-7.46,.76-14.9,5.25-20.95,4.49-6.05,11.07-10,18.53-11.1,6.43-.95,13.04,.36,18.6,3.68,3.56,2.12,4.72,6.73,2.59,10.29-2.12,3.56-6.73,4.72-10.29,2.59-2.64-1.58-5.65-2.17-8.71-1.72-3.49,.52-6.58,2.37-8.68,5.2-2.1,2.84-2.98,6.32-2.46,9.82l2.46,16.62c.52,3.49,2.37,6.58,5.2,8.68,2.84,2.1,6.32,2.98,9.81,2.46,.79-.12,1.57-.3,2.31-.56,3.92-1.33,8.18,.78,9.5,4.71,1.33,3.92-.78,8.18-4.71,9.51-1.59,.54-3.24,.93-4.91,1.18-1.4,.21-2.81,.31-4.2,.31Z"/>
          <path class="cls-1" d="M333.89,242.89c-3.66,0-6.86-2.68-7.41-6.4-.61-4.1,2.22-7.91,6.32-8.52,3.49-.52,6.58-2.37,8.68-5.2,2.1-2.84,2.98-6.32,2.46-9.82l-2.46-16.62c-1.07-7.21-7.81-12.21-15.02-11.14-2.1,.31-4.04,1.09-5.74,2.31-3.37,2.41-8.05,1.64-10.46-1.73-2.41-3.37-1.63-8.05,1.73-10.46,3.61-2.59,7.86-4.3,12.27-4.95,15.39-2.28,29.77,8.38,32.06,23.78l2.46,16.62c1.11,7.46-.76,14.9-5.25,20.95-4.49,6.05-11.07,10-18.53,11.1-.37,.06-.74,.08-1.11,.08Z"/>
          <g>
            <path class="cls-1" d="M206.73,340.77c-15.15,0-28.46-11.12-30.75-26.55l-1.16-7.85c-.61-4.1,2.22-7.91,6.32-8.52,4.08-.61,7.91,2.22,8.52,6.32l1.16,7.85c1.3,8.78,9.5,14.87,18.3,13.57,4.25-.63,8.01-2.88,10.57-6.34,2.56-3.46,3.63-7.7,3-11.96l-1.16-7.85c-.61-4.1,2.22-7.91,6.32-8.52,4.08-.61,7.91,2.22,8.52,6.32l1.16,7.85c1.22,8.22-.84,16.42-5.79,23.09-4.95,6.67-12.2,11.02-20.42,12.24-1.54,.23-3.07,.34-4.58,.34Z"/>
            <path class="cls-1" d="M193.35,309.85c-10.95,0-20.02-2.27-27.07-6.79-8.11-5.2-10.54-11.49-10.94-12.7l14.23-4.75s-.02-.08-.08-.23c.22,.53,5.74,12.98,35.9,8.51,29.53-4.38,29.99-17.19,29.98-17.31-.29-4.13,2.83-7.71,6.97-8,4.13-.29,7.71,2.83,8,6.97,.07,1.08,1.33,26.65-42.74,33.19-5.05,.75-9.79,1.12-14.23,1.12Z"/>
          </g>
          <g>
            <circle class="cls-1" cx="143.52" cy="252.54" r="16.25"/>
            <path class="cls-1" d="M265.99,234.38c1.32,8.88-4.81,17.14-13.69,18.46-8.88,1.32-17.14-4.81-18.46-13.69-1.32-8.88,4.81-17.14,13.69-18.46,8.88-1.32,17.14,4.81,18.46,13.69Z"/>
          </g>
          <path class="cls-1" d="M176.5,167.13c-7.25,0-14.83-2.23-22.23-6.68-17.71-10.66-25.49-29.81-20.81-51.25,4.92-22.53,21.82-40.38,40.21-42.45,4.12-.46,7.83,2.5,8.29,6.61,.46,4.12-2.5,7.83-6.61,8.29-11.8,1.33-23.76,14.83-27.23,30.74-1.56,7.13-3.32,24.84,13.89,35.2,9.27,5.58,18.23,5.99,25.24,1.17,6.25-4.3,9.9-12.3,8.7-19.02-1.01-5.65-5.32-9.6-12.45-11.41-4.01-1.02-6.44-5.1-5.42-9.12,1.02-4.01,5.1-6.44,9.12-5.42,12.88,3.27,21.45,11.77,23.52,23.3,2.26,12.63-3.75,26.3-14.96,34.02-5.82,4.01-12.39,6.01-19.25,6.01Z"/>
        </g>
        <path class="cls-1" d="M393.1,484.66c-3.85,0-7.13-2.95-7.46-6.86-4.78-55.43-36.11-86.98-36.43-87.29-1.62-1.6-2.43-3.86-2.19-6.13,.24-2.27,1.49-4.31,3.41-5.54,24.18-15.45,56.76-42.86,74.66-85.69,10.74-25.7,11.12-45.07,11.12-45.26,.02-1.45,.46-2.88,1.26-4.08l31.59-47.39c2.59-3.88,3.37-8.68,2.15-13.18-1.22-4.5-4.33-8.25-8.52-10.29-4.17-2.03-8.83-2.18-13.12-.44-4.29,1.74-7.53,5.09-9.11,9.45l-7.02,19.3c-1.42,3.89-5.71,5.9-9.61,4.49-3.89-1.42-5.9-5.72-4.49-9.61l7.02-19.3c3.01-8.28,9.42-14.92,17.58-18.22,8.16-3.31,17.39-2.99,25.31,.86,8.09,3.93,14.08,11.17,16.44,19.85,2.36,8.68,.85,17.95-4.14,25.44l-30.43,45.65c-.39,6.33-2.31,24.65-11.88,47.81-10.11,24.48-30.98,59.12-73.47,88.46,10.4,12.91,30.83,43.65,34.81,89.86,.36,4.13-2.7,7.76-6.83,8.12-.22,.02-.44,.03-.65,.03Z"/>
        <path class="cls-1" d="M341.82,341.38c-2.62,0-5.16-1.37-6.54-3.82-2.03-3.61-.76-8.18,2.85-10.22,.81-.46,58.67-33.88,65.38-85.95l-9.18-62.94c-.6-4.1,2.24-7.91,6.34-8.5,4.09-.6,7.91,2.24,8.5,6.34l9.32,63.93c.09,.65,.1,1.3,.03,1.95-2.93,25.16-16.54,50.15-39.36,72.28-16.98,16.47-33,25.58-33.67,25.96-1.16,.66-2.43,.97-3.68,.97Z"/>
        <path class="cls-1" d="M69.78,484.66c-.32,0-.63-.02-.95-.06-4.11-.52-7.02-4.28-6.5-8.39,8.59-67.63,57.33-90.61,59.41-91.56,3.76-1.72,8.22-.06,9.94,3.71,1.72,3.76,.07,8.2-3.69,9.93-.27,.13-11.1,5.3-22.66,17.6-15.51,16.52-24.97,37.45-28.12,62.21-.48,3.79-3.71,6.56-7.43,6.56Z"/>
      </g>
      <g>
        <path class="cls-1" d="M407.23,22.55h-.04c-4.14-.02-7.48-3.39-7.46-7.54l.04-7.55c.02-4.13,3.37-7.46,7.5-7.46h.04c4.14,.02,7.48,3.39,7.46,7.54l-.04,7.55c-.02,4.13-3.37,7.46-7.5,7.46Z"/>
        <path class="cls-1" d="M406.98,74.33h-.04c-4.14-.02-7.48-3.39-7.46-7.54l.04-7.55c.02-4.13,3.37-7.46,7.5-7.46h.04c4.14,.02,7.48,3.39,7.46,7.54l-.04,7.55c-.02,4.13-3.37,7.46-7.5,7.46Z"/>
        <path class="cls-1" d="M385.01,44.56h-.04l-7.55-.04c-4.14-.02-7.48-3.39-7.46-7.54,.02-4.13,3.37-7.46,7.5-7.46h.04l7.55,.04c4.14,.02,7.48,3.39,7.46,7.54-.02,4.13-3.37,7.46-7.5,7.46Z"/>
        <path class="cls-1" d="M436.79,44.81h-.04l-7.55-.04c-4.14-.02-7.48-3.39-7.46-7.54,.02-4.13,3.37-7.46,7.5-7.46h.04l7.55,.04c4.14,.02,7.48,3.39,7.46,7.54-.02,4.13-3.37,7.46-7.5,7.46Z"/>
      </g>
      <g>
        <path class="cls-1" d="M37.27,61.67h-.04c-4.14-.02-7.48-3.39-7.46-7.54l.04-7.55c.02-4.13,3.37-7.46,7.5-7.46h.04c4.14,.02,7.48,3.39,7.46,7.54l-.04,7.55c-.02,4.13-3.37,7.46-7.5,7.46Z"/>
        <path class="cls-1" d="M37.03,113.45h-.04c-4.14-.02-7.48-3.39-7.46-7.54l.04-7.55c.02-4.13,3.37-7.47,7.5-7.47h.04c4.14,.02,7.48,3.39,7.46,7.53l-.04,7.55c-.02,4.13-3.37,7.46-7.5,7.46Z"/>
        <path class="cls-1" d="M15.05,83.68h-.04l-7.55-.04C3.32,83.62-.02,80.25,0,76.11c.02-4.13,3.37-7.46,7.5-7.46h.04l7.55,.04c4.14,.02,7.48,3.39,7.46,7.54-.02,4.13-3.37,7.46-7.5,7.46Z"/>
        <path class="cls-1" d="M66.83,83.92h-.04l-7.55-.04c-4.14-.02-7.48-3.39-7.46-7.54,.02-4.13,3.37-7.46,7.5-7.46h.04l7.55,.04c4.14,.02,7.48,3.39,7.46,7.54-.02,4.13-3.37,7.46-7.5,7.46Z"/>
      </g>
      <circle class="cls-1" cx="454.04" cy="100.3" r="10.82" transform="translate(319.4 545.37) rotate(-85.63)"/>
      <circle class="cls-1" cx="106.45" cy="13.86" r="10.82" transform="translate(44.5 101.53) rotate(-62.17)"/>
    </g>
  </g>
</svg>