<?xml version="1.0" encoding="UTF-8"?>
<svg id="Layer_2" data-name="Layer 2" xmlns="http://www.w3.org/2000/svg" viewBox="0 0 284.97 90.97">
  <defs>
    <style>
      .cls-1 {
        fill: #231f20;
      }

      .cls-2 {
        fill: none;
        stroke: #231f20;
        stroke-miterlimit: 10;
        stroke-width: .25px;
      }
    </style>
  </defs>
  <g id="Layer_2-2" data-name="Layer 2">
    <g id="Layer_1-2" data-name="Layer 1-2">
      <g>
        <g>
          <path class="cls-1" d="M22.75,90.85c-4.54,0-8.9-1.03-12.27-2.89-4.64-2.56-8.2-7.74-9.44-11.65,1.71-.82,7.01-2.07,10.23-2.07,.58,0,.89,.04,1.05,.08l.29,.39h.11s.01,.01,.02,.02c1.3,1.56,5.26,6.3,11.63,6.3,1.78,0,3.62-.37,5.47-1.11,5.91-2.35,6.93-11.94,6.51-14.14-.21-1.08-.99-1.47-1.6-1.47h-.4l-.37,.2c-4.4,2.5-8.7,3.76-12.77,3.76h0c-7.2,0-11.99-3.88-14.74-7.14C2.85,56.85,.56,50.98,.18,45.05c-.64-10.1,4.17-21.59,19.59-23.55,3.04-.39,6.38-.59,9.66-.59,7.37,0,13.18,1.04,14.95,2.66,1.31,3.38,5.33,45.51,.64,55.19-3.56,7.34-12.31,12.09-22.3,12.09h.03Zm2.44-59.92c-4.44,0-8.94,2.3-11.46,5.86-2.37,3.34-2.86,7.47-1.4,11.64,2.12,6.03,6.33,9.49,11.56,9.49h0c6.4,0,12.23-5.23,12.72-11.42,.52-6.56-1.48-10.23-3.26-12.16-2.04-2.21-4.94-3.42-8.17-3.42h0Z"/>
          <path class="cls-2" d="M22.75,90.85c-4.54,0-8.9-1.03-12.27-2.89-4.64-2.56-8.2-7.74-9.44-11.65,1.71-.82,7.01-2.07,10.23-2.07,.58,0,.89,.04,1.05,.08l.29,.39h.11s.01,.01,.02,.02c1.3,1.56,5.26,6.3,11.63,6.3,1.78,0,3.62-.37,5.47-1.11,5.91-2.35,6.93-11.94,6.51-14.14-.21-1.08-.99-1.47-1.6-1.47h-.4l-.37,.2c-4.4,2.5-8.7,3.76-12.77,3.76h0c-7.2,0-11.99-3.88-14.74-7.14C2.85,56.85,.56,50.98,.18,45.05c-.64-10.1,4.17-21.59,19.59-23.55,3.04-.39,6.38-.59,9.66-.59,7.37,0,13.18,1.04,14.95,2.66,1.31,3.38,5.33,45.51,.64,55.19-3.56,7.34-12.31,12.09-22.3,12.09h.03Zm2.44-59.92c-4.44,0-8.94,2.3-11.46,5.86-2.37,3.34-2.86,7.47-1.4,11.64,2.12,6.03,6.33,9.49,11.56,9.49h0c6.4,0,12.23-5.23,12.72-11.42,.52-6.56-1.48-10.23-3.26-12.16-2.04-2.21-4.94-3.42-8.17-3.42h0Z"/>
        </g>
        <g>
          <path class="cls-1" d="M59.84,72.37c-3.36,0-5.68-.42-6.5-.77-.67-5.8-.75-44.85-.34-47.8v-.19c.02-1.37,2.74-2.44,6.2-2.44s5.43,.95,5.61,1.44c.69,3.35,.97,40.12,.55,49.17-.7,.25-2.49,.59-5.52,.59Zm-.7-59.13c-2.22,0-4.22-1.09-5.5-3-1.41-2.1-1.68-4.36-.77-6.38,.87-1.93,2.76-3.4,4.71-3.66,.35-.05,.7-.07,1.04-.07,2.39,0,4.6,1.12,5.92,3,1.19,1.71,1.44,3.76,.7,5.78-1.17,3.19-3.92,4.33-6.1,4.33Z"/>
          <path class="cls-2" d="M59.84,72.37c-3.36,0-5.68-.42-6.5-.77-.67-5.8-.75-44.85-.34-47.8v-.19c.02-1.37,2.74-2.44,6.2-2.44s5.43,.95,5.61,1.44c.69,3.35,.97,40.12,.55,49.17-.7,.25-2.49,.59-5.52,.59Zm-.7-59.13c-2.22,0-4.22-1.09-5.5-3-1.41-2.1-1.68-4.36-.77-6.38,.87-1.93,2.76-3.4,4.71-3.66,.35-.05,.7-.07,1.04-.07,2.39,0,4.6,1.12,5.92,3,1.19,1.71,1.44,3.76,.7,5.78-1.17,3.19-3.92,4.33-6.1,4.33Z"/>
        </g>
        <g>
          <path class="cls-1" d="M93.65,90.85c-4.54,0-8.9-1.03-12.27-2.89-4.64-2.56-8.2-7.74-9.44-11.65,1.71-.82,7.01-2.07,10.23-2.07,.58,0,.89,.04,1.05,.08l.29,.39h.11l.02,.02c1.3,1.56,5.26,6.3,11.63,6.3,1.78,0,3.62-.37,5.47-1.11,5.91-2.35,6.93-11.94,6.51-14.14-.21-1.08-.99-1.47-1.6-1.47h-.4l-.37,.2c-4.4,2.5-8.7,3.76-12.77,3.76h0c-7.2,0-11.99-3.88-14.74-7.14-3.62-4.28-5.91-10.15-6.29-16.08-.64-10.1,4.17-21.59,19.59-23.55,3.04-.39,6.38-.59,9.66-.59,7.37,0,13.18,1.04,14.95,2.66,1.31,3.38,5.33,45.51,.64,55.19-3.56,7.34-12.31,12.09-22.3,12.09h.03Zm2.44-59.92c-4.44,0-8.94,2.3-11.46,5.86-2.37,3.34-2.86,7.47-1.4,11.64,2.12,6.03,6.33,9.49,11.56,9.49h0c6.4,0,12.23-5.23,12.72-11.42,.52-6.56-1.48-10.23-3.26-12.16-2.04-2.21-4.94-3.42-8.17-3.42h.01Z"/>
          <path class="cls-2" d="M93.65,90.85c-4.54,0-8.9-1.03-12.27-2.89-4.64-2.56-8.2-7.74-9.44-11.65,1.71-.82,7.01-2.07,10.23-2.07,.58,0,.89,.04,1.05,.08l.29,.39h.11l.02,.02c1.3,1.56,5.26,6.3,11.63,6.3,1.78,0,3.62-.37,5.47-1.11,5.91-2.35,6.93-11.94,6.51-14.14-.21-1.08-.99-1.47-1.6-1.47h-.4l-.37,.2c-4.4,2.5-8.7,3.76-12.77,3.76h0c-7.2,0-11.99-3.88-14.74-7.14-3.62-4.28-5.91-10.15-6.29-16.08-.64-10.1,4.17-21.59,19.59-23.55,3.04-.39,6.38-.59,9.66-.59,7.37,0,13.18,1.04,14.95,2.66,1.31,3.38,5.33,45.51,.64,55.19-3.56,7.34-12.31,12.09-22.3,12.09h.03Zm2.44-59.92c-4.44,0-8.94,2.3-11.46,5.86-2.37,3.34-2.86,7.47-1.4,11.64,2.12,6.03,6.33,9.49,11.56,9.49h0c6.4,0,12.23-5.23,12.72-11.42,.52-6.56-1.48-10.23-3.26-12.16-2.04-2.21-4.94-3.42-8.17-3.42h.01Z"/>
        </g>
        <g>
          <path class="cls-1" d="M145.75,90.85c-4.54,0-8.9-1.03-12.27-2.89-4.64-2.56-8.2-7.74-9.44-11.65,1.71-.82,7.01-2.07,10.23-2.07,.58,0,.9,.04,1.05,.08l.29,.39h.11s0,.01,.02,.02c1.3,1.56,5.26,6.3,11.63,6.3,1.78,0,3.62-.37,5.47-1.11,5.91-2.35,6.93-11.93,6.51-14.14-.21-1.08-.99-1.47-1.6-1.47h-.39l-.37,.2c-4.4,2.5-8.7,3.76-12.77,3.76h0c-7.2,0-11.99-3.88-14.74-7.14-3.62-4.28-5.91-10.15-6.29-16.08-.64-10.1,4.17-21.59,19.59-23.55,3.04-.39,6.38-.59,9.66-.59,7.37,0,13.18,1.04,14.95,2.66,1.31,3.38,5.33,45.51,.65,55.19-3.56,7.34-12.31,12.09-22.3,12.09h.01Zm2.44-59.92c-4.44,0-8.94,2.3-11.46,5.86-2.37,3.34-2.86,7.47-1.4,11.64,2.12,6.03,6.33,9.49,11.56,9.49h0c6.4,0,12.23-5.23,12.72-11.42,.53-6.56-1.48-10.23-3.26-12.16-2.04-2.21-4.94-3.42-8.17-3.42h0Z"/>
          <path class="cls-2" d="M145.75,90.85c-4.54,0-8.9-1.03-12.27-2.89-4.64-2.56-8.2-7.74-9.44-11.65,1.71-.82,7.01-2.07,10.23-2.07,.58,0,.9,.04,1.05,.08l.29,.39h.11s0,.01,.02,.02c1.3,1.56,5.26,6.3,11.63,6.3,1.78,0,3.62-.37,5.47-1.11,5.91-2.35,6.93-11.93,6.51-14.14-.21-1.08-.99-1.47-1.6-1.47h-.39l-.37,.2c-4.4,2.5-8.7,3.76-12.77,3.76h0c-7.2,0-11.99-3.88-14.74-7.14-3.62-4.28-5.91-10.15-6.29-16.08-.64-10.1,4.17-21.59,19.59-23.55,3.04-.39,6.38-.59,9.66-.59,7.37,0,13.18,1.04,14.95,2.66,1.31,3.38,5.33,45.51,.65,55.19-3.56,7.34-12.31,12.09-22.3,12.09h.01Zm2.44-59.92c-4.44,0-8.94,2.3-11.46,5.86-2.37,3.34-2.86,7.47-1.4,11.64,2.12,6.03,6.33,9.49,11.56,9.49h0c6.4,0,12.23-5.23,12.72-11.42,.53-6.56-1.48-10.23-3.26-12.16-2.04-2.21-4.94-3.42-8.17-3.42h0Z"/>
        </g>
        <g>
          <path class="cls-1" d="M180.34,72.63c-2.41,0-3.89-.25-4.45-.46-.84-3.19-.66-23.45-.54-36.98,.05-5.09,.09-9.86,.09-13.68,0-6.12,.47-18.26,1.16-20.65,.85-.32,3.08-.7,5.81-.7,3.33,0,5.04,.54,5.46,.86,1,7.64,.31,36.62-.06,52.24-.12,5.08-.21,8.75-.21,10.36,0,.94-.06,1.95-.13,3.02-.08,1.33-.16,2.7-.14,4.07-.08,.58-.16,.95-.22,1.16-1.34,.44-4.11,.76-6.78,.76h0Z"/>
          <path class="cls-2" d="M180.34,72.63c-2.41,0-3.89-.25-4.45-.46-.84-3.19-.66-23.45-.54-36.98,.05-5.09,.09-9.86,.09-13.68,0-6.12,.47-18.26,1.16-20.65,.85-.32,3.08-.7,5.81-.7,3.33,0,5.04,.54,5.46,.86,1,7.64,.31,36.62-.06,52.24-.12,5.08-.21,8.75-.21,10.36,0,.94-.06,1.95-.13,3.02-.08,1.33-.16,2.7-.14,4.07-.08,.58-.16,.95-.22,1.16-1.34,.44-4.11,.76-6.78,.76h0Z"/>
        </g>
        <g>
          <path class="cls-1" d="M217.21,72.53c-10.17,0-21.41-6.58-23.2-19.16-1.85-12.95,2.1-20.67,5.74-24.86,4.15-4.78,10.16-7.53,16.49-7.53s11.54,2.42,15.52,6.8c4.95,5.46,7.07,13.46,6.11,23.12v.1c-2.03,.03-4.05,.09-6.07,.14-3,.08-6.1,.17-9.14,.17h-.45c-.94,0-2.12,0-3.4-.03-1.78-.02-3.74-.04-5.48-.04-5.48,0-5.63,.16-6.13,.68l-.44,.46,.02,.66c.26,5.46,4.76,9.73,10.26,9.73,3.61,0,6.86-1.79,9.17-5.04l.06-.09c.33-.46,.53-.71,.65-.84,3.08,.03,8.51,1.49,10.28,2.4-3.48,8.35-10.89,13.31-19.98,13.31v.02Zm-1.61-40.61c-4.63,0-9.4,3.14-9.62,10.15l-.06,1.73,1.72-.19c1.58-.17,3.41-.25,5.76-.25,1.32,0,2.66,.02,3.99,.05,1.33,.02,2.65,.05,3.94,.05,1.38,0,2.55-.03,3.6-.09l1.6-.09-.2-1.59c-.79-6.41-6-9.76-10.73-9.76h0Z"/>
          <path class="cls-2" d="M217.21,72.53c-10.17,0-21.41-6.58-23.2-19.16-1.85-12.95,2.1-20.67,5.74-24.86,4.15-4.78,10.16-7.53,16.49-7.53s11.54,2.42,15.52,6.8c4.95,5.46,7.07,13.46,6.11,23.12v.1c-2.03,.03-4.05,.09-6.07,.14-3,.08-6.1,.17-9.14,.17h-.45c-.94,0-2.12,0-3.4-.03-1.78-.02-3.74-.04-5.48-.04-5.48,0-5.63,.16-6.13,.68l-.44,.46,.02,.66c.26,5.46,4.76,9.73,10.26,9.73,3.61,0,6.86-1.79,9.17-5.04l.06-.09c.33-.46,.53-.71,.65-.84,3.08,.03,8.51,1.49,10.28,2.4-3.48,8.35-10.89,13.31-19.98,13.31v.02Zm-1.61-40.61c-4.63,0-9.4,3.14-9.62,10.15l-.06,1.73,1.72-.19c1.58-.17,3.41-.25,5.76-.25,1.32,0,2.66,.02,3.99,.05,1.33,.02,2.65,.05,3.94,.05,1.38,0,2.55-.03,3.6-.09l1.6-.09-.2-1.59c-.79-6.41-6-9.76-10.73-9.76h0Z"/>
        </g>
        <g>
          <path class="cls-1" d="M264.77,72.39c-4.48,0-8.74-.98-11.99-2.75-5.42-2.97-10.34-9.6-9.43-15.74,1.06-.45,4.55-1.03,8.16-1.03,1.85,0,2.75,.16,3.14,.26,2.2,6.95,7.12,9.43,10.73,9.43h0c2.83,0,5.09-1.38,5.76-3.51,.36-1.12,.69-4.08-3.85-7.27-1.69-1.19-3.6-2.05-5.46-2.88-1.21-.54-2.45-1.1-3.62-1.74l-.09-.04c-4.16-1.94-7.18-5.89-7.89-10.32-.67-4.2,.75-8.2,4-11.24,3.11-2.91,8.06-4.64,13.25-4.64,5.67,0,10.72,1.98,13.84,5.42,2.58,2.85,3.75,6.52,3.49,10.94-.8,.16-2.38,.34-4.54,.34-2.87,0-4.63-.32-5.31-.58-.03-2.91-1.13-4.67-2.08-5.65-1.27-1.31-3-2.03-4.88-2.03-2.38,0-4.5,1.21-5.41,3.07-.59,1.2-1.17,3.72,1.48,7.13,1.77,2.28,4.18,2.89,6.72,3.53,2.04,.52,4.36,1.1,6.89,2.66,2.22,1.36,5.03,4.46,5.69,7.08,1.33,5.21,.67,9.56-1.95,12.93-3.24,4.17-9.47,6.66-16.68,6.66h0l.03-.03Z"/>
          <path class="cls-2" d="M264.77,72.39c-4.48,0-8.74-.98-11.99-2.75-5.42-2.97-10.34-9.6-9.43-15.74,1.06-.45,4.55-1.03,8.16-1.03,1.85,0,2.75,.16,3.14,.26,2.2,6.95,7.12,9.43,10.73,9.43h0c2.83,0,5.09-1.38,5.76-3.51,.36-1.12,.69-4.08-3.85-7.27-1.69-1.19-3.6-2.05-5.46-2.88-1.21-.54-2.45-1.1-3.62-1.74l-.09-.04c-4.16-1.94-7.18-5.89-7.89-10.32-.67-4.2,.75-8.2,4-11.24,3.11-2.91,8.06-4.64,13.25-4.64,5.67,0,10.72,1.98,13.84,5.42,2.58,2.85,3.75,6.52,3.49,10.94-.8,.16-2.38,.34-4.54,.34-2.87,0-4.63-.32-5.31-.58-.03-2.91-1.13-4.67-2.08-5.65-1.27-1.31-3-2.03-4.88-2.03-2.38,0-4.5,1.21-5.41,3.07-.59,1.2-1.17,3.72,1.48,7.13,1.77,2.28,4.18,2.89,6.72,3.53,2.04,.52,4.36,1.1,6.89,2.66,2.22,1.36,5.03,4.46,5.69,7.08,1.33,5.21,.67,9.56-1.95,12.93-3.24,4.17-9.47,6.66-16.68,6.66h0l.03-.03Z"/>
        </g>
      </g>
    </g>
  </g>
</svg>