<svg width="64" height="48" viewBox="0 0 64 48" fill="none" xmlns="http://www.w3.org/2000/svg">
<g clip-path="url(#clip0_4_295)">
<path d="M32.0168 26.6384C31.4199 26.6384 30.8191 26.598 30.2171 26.5146C26.7298 26.0365 23.6345 24.2137 21.5035 21.3824C19.3725 18.5511 18.4598 15.0514 18.9329 11.527C19.406 8.00259 21.2096 4.87425 24.011 2.7205C26.8111 0.568059 30.2738 -0.355719 33.7623 0.12376C35.7348 0.394769 38.1765 1.51399 39.2787 2.22278C39.5146 2.37392 39.7235 2.53939 39.9259 2.69966C40.9069 3.4749 41.9215 4.2762 46.3782 2.72832C46.7108 2.61236 47.0782 2.68923 47.3387 2.92637C47.5991 3.1635 47.7125 3.52571 47.6352 3.87099C47.5784 4.12115 46.1952 10.0156 41.5232 12.1446C38.6599 13.4488 35.2603 13.0371 31.4186 10.9199C30.9493 10.6619 30.7766 10.0677 31.0318 9.59477C31.2871 9.1205 31.875 8.94591 32.3429 9.20389C35.62 11.0098 38.4382 11.4006 40.7187 10.3661C43.1179 9.27816 44.4896 6.81562 45.1767 5.13874C41.5219 6.09249 40.0741 5.299 38.7334 4.23972C38.5606 4.10291 38.3956 3.97262 38.2409 3.8736C37.2766 3.2547 35.094 2.28011 33.5019 2.06122C30.5265 1.6534 27.5717 2.44037 25.1815 4.27751C22.7914 6.11594 21.2534 8.78435 20.8486 11.7915C20.4451 14.7987 21.2238 17.785 23.0415 20.2006C24.8605 22.6163 27.5008 24.1707 30.4762 24.5798C33.4516 24.9876 36.4064 24.2006 38.7966 22.3635C41.1867 20.5251 42.7247 17.8567 43.1295 14.8495C43.1656 14.5837 43.1914 14.314 43.2094 14.0482C43.2442 13.5101 43.7045 13.101 44.2369 13.1361C44.7693 13.1713 45.1741 13.6365 45.1393 14.1746C45.1187 14.486 45.0878 14.8013 45.0465 15.1114C44.5734 18.6358 42.7698 21.7628 39.9684 23.9179C37.6505 25.7003 34.88 26.6397 32.0168 26.6397V26.6384Z" fill="#99BDBB"/>
<path d="M28.7515 19.8713C29.3659 19.5326 29.5923 18.7546 29.2572 18.1336C28.922 17.5127 28.1523 17.2838 27.5378 17.6225C26.9234 17.9613 26.697 18.7393 27.0321 19.3602C27.3673 19.9812 28.137 20.2101 28.7515 19.8713Z" fill="#99BDBB"/>
<path d="M36.5869 19.8718C37.2014 19.5331 37.4278 18.7551 37.0926 18.1341C36.7575 17.5131 35.9877 17.2843 35.3733 17.623C34.7588 17.9617 34.5324 18.7397 34.8676 19.3607C35.2027 19.9817 35.9725 20.2105 36.5869 19.8718Z" fill="#99BDBB"/>
<path d="M23.7776 14.2972C23.2671 14.2972 22.8391 13.892 22.8133 13.3708C22.7862 12.8314 23.1962 12.3728 23.7286 12.3441C29.1277 12.0627 32.4151 7.49718 32.4473 7.45028C32.7567 7.01119 33.3601 6.90826 33.7945 7.22096C34.229 7.53367 34.3321 8.14083 34.024 8.58122C33.8706 8.80142 30.1823 13.9636 23.8279 14.2959C23.8111 14.2959 23.7944 14.2959 23.7776 14.2959V14.2972Z" fill="#99BDBB"/>
<path d="M39.8885 40.0429C38.7192 40.0429 37.6195 39.5934 36.7751 38.7661C35.8972 37.9061 35.4125 36.7504 35.4125 35.5139C35.4125 33.1543 37.2366 31.1713 39.5649 30.998L48.2707 30.353C48.8057 30.3139 49.2673 30.7178 49.3059 31.256C49.3446 31.7941 48.945 32.2631 48.4125 32.3022L39.7067 32.9472C38.3827 33.0449 37.3462 34.1719 37.3462 35.5139C37.3462 36.2162 37.6208 36.8729 38.121 37.3615C38.6199 37.8501 39.2774 38.1068 39.9736 38.0859L51.8198 37.7081C54.2267 37.6312 56.1128 35.6651 56.1128 33.2299C56.1128 31.8553 55.5017 30.5758 54.4356 29.7211L44.5424 21.785C44.1247 21.4488 44.0538 20.8351 44.3864 20.4117C44.7178 19.9895 45.3262 19.9178 45.7452 20.254L55.6384 28.1902C57.1686 29.4175 58.0466 31.2547 58.0466 33.2299C58.0466 36.7257 55.338 39.5504 51.8804 39.6612L40.0342 40.039C39.9852 40.0403 39.9375 40.0416 39.8885 40.0416V40.0429Z" fill="#99BDBB"/>
<path d="M24.0342 40.0431C23.9852 40.0431 23.9375 40.0431 23.8885 40.0405L12.0422 39.6626C8.58465 39.5532 5.87608 36.7271 5.87608 33.2314C5.87608 31.2561 6.75401 29.419 8.28427 28.1916L18.1774 20.2555C18.5964 19.9193 19.2036 19.991 19.5362 20.4131C19.8688 20.8353 19.7979 21.4503 19.3802 21.7864L9.48707 29.7226C8.42092 30.5773 7.80985 31.8568 7.80985 33.2314C7.80985 35.6652 9.69592 37.6327 12.1028 37.7095L23.9491 38.0874C24.6452 38.1082 25.3014 37.8529 25.8016 37.363C26.3005 36.8744 26.5764 36.2177 26.5764 35.5154C26.5764 34.1747 25.5399 33.0464 24.2159 32.9486L15.5101 32.3037C14.9777 32.2646 14.578 31.7955 14.6167 31.2574C14.6554 30.7193 15.1182 30.3141 15.6519 30.3545L24.3578 30.9994C26.686 31.1714 28.5102 33.1558 28.5102 35.5154C28.5102 36.7519 28.0268 37.9063 27.1475 38.7675C26.3044 39.5936 25.2035 40.0431 24.0342 40.0444V40.0431Z" fill="#99BDBB"/>
<path d="M33.235 40.9265C33.0726 40.9265 32.9076 40.8848 32.7567 40.7975C32.2926 40.5304 32.1315 39.9337 32.3958 39.4646L39.3174 27.191C39.5817 26.7219 40.1721 26.5591 40.6362 26.8262C41.1003 27.0933 41.2615 27.69 40.9972 28.1591L34.0756 40.4327C33.8977 40.7493 33.5702 40.9265 33.235 40.9265Z" fill="#99BDBB"/>
<path d="M46.7031 47.9998H17.2956C16.9759 47.9998 16.6755 47.8395 16.4963 47.5711C16.3158 47.304 16.2798 46.9626 16.3971 46.6617L19.5182 38.7047C19.7154 38.203 20.2775 37.9568 20.7738 38.1561C21.2702 38.3555 21.5138 38.9223 21.3166 39.4252L18.7202 46.0454H45.3134L42.8678 39.4056C42.6808 38.9001 42.9361 38.3372 43.4363 38.1483C43.9365 37.9607 44.4934 38.2174 44.6804 38.7229L47.612 46.6799C47.7228 46.9796 47.6803 47.3157 47.4998 47.5789C47.3193 47.8421 47.0228 47.9985 46.7057 47.9985L46.7031 47.9998Z" fill="#99BDBB"/>
<path d="M6.90613 33.3787H0.966884C0.433164 33.3787 0 32.9409 0 32.4015C0 31.8621 0.433164 31.4243 0.966884 31.4243H6.90613C7.43985 31.4243 7.87302 31.8621 7.87302 32.4015C7.87302 32.9409 7.43985 33.3787 6.90613 33.3787Z" fill="#99BDBB"/>
<path d="M63.0331 33.3787H57.0939C56.5601 33.3787 56.127 32.9409 56.127 32.4015C56.127 31.8621 56.5601 31.4243 57.0939 31.4243H63.0331C63.5668 31.4243 64 31.8621 64 32.4015C64 32.9409 63.5668 33.3787 63.0331 33.3787Z" fill="#99BDBB"/>
</g>
<defs>
<clipPath id="clip0_4_295">
<rect width="64" height="48" fill="white"/>
</clipPath>
</defs>
</svg>
