<svg width="37" height="48" viewBox="0 0 37 48" fill="none" xmlns="http://www.w3.org/2000/svg">
<g clip-path="url(#clip0_4_310)">
<path d="M17.4175 23.4055C10.7205 23.4055 6.22159 19.4548 6.22159 13.5748C6.22159 12.4502 6.3804 11.3472 6.70576 10.2008C6.81712 9.80785 7.22091 9.58173 7.60534 9.69627C7.99074 9.80982 8.21249 10.2206 8.10017 10.6136C7.81257 11.6237 7.67313 12.5923 7.67313 13.5748C7.67313 16.1352 8.63856 18.2709 10.4649 19.7511C12.1943 21.1522 14.6626 21.9244 17.4166 21.9244C22.4442 21.9244 26.0997 19.4736 26.9586 15.5279C27.0457 15.129 27.4331 14.8772 27.8252 14.9651C28.2164 15.054 28.4634 15.4489 28.3772 15.8488C27.862 18.2147 26.5064 20.1697 24.4554 21.5047C22.5439 22.7489 20.1095 23.4055 17.4166 23.4055H17.4175Z" fill="#F7AD45"/>
<path d="M13.5086 15.6068C13.9253 15.1819 13.9253 14.4929 13.5086 14.068C13.0918 13.643 12.4162 13.643 11.9994 14.068C11.5827 14.4929 11.5827 15.1819 11.9994 15.6068C12.4162 16.0318 13.0918 16.0318 13.5086 15.6068Z" fill="#F7AD45"/>
<path d="M20.856 15.0859C20.9914 14.501 20.6362 13.915 20.0626 13.7769C19.489 13.6389 18.9143 14.0011 18.7789 14.586C18.6435 15.1709 18.9988 15.7569 19.5723 15.895C20.1459 16.033 20.7207 15.6708 20.856 15.0859Z" fill="#F7AD45"/>
<path d="M16.2962 20.4353C15.0761 20.4353 14.0835 19.4232 14.0835 18.179C14.0835 17.7702 14.4089 17.4385 14.8098 17.4385C15.2107 17.4385 15.536 17.7702 15.536 18.179C15.536 18.5878 15.8769 18.9542 16.2962 18.9542C16.7155 18.9542 17.0563 18.6066 17.0563 18.179C17.0563 17.7515 17.3817 17.4385 17.7826 17.4385C18.1835 17.4385 18.5088 17.7702 18.5088 18.179C18.5088 19.4232 17.5163 20.4353 16.2962 20.4353Z" fill="#F7AD45"/>
<path d="M26.9072 16.0512C25.9573 16.0512 25.0635 15.5782 24.5155 14.7854C24.284 14.4506 24.3625 13.9895 24.6907 13.7535C25.018 13.5175 25.4722 13.5975 25.7026 13.9322C25.9786 14.3311 26.4289 14.5701 26.9072 14.5701C27.7187 14.5701 28.3791 13.8967 28.3791 13.0692V10.7705C28.3791 9.94309 27.7187 9.26968 26.9072 9.26968C26.4056 9.26968 25.9428 9.52641 25.6697 9.9579C25.4518 10.3015 25.0025 10.4003 24.6655 10.1781C24.3286 9.95593 24.2317 9.49777 24.4496 9.15415C24.9909 8.29905 25.9099 7.78955 26.9072 7.78955C28.5195 7.78955 29.8316 9.12749 29.8316 10.7715V13.0702C29.8316 14.7143 28.5195 16.0522 26.9072 16.0522V16.0512Z" fill="#F7AD45"/>
<path d="M26.5761 8.75729C26.2894 8.75729 26.0183 8.58351 25.9031 8.29617C25.0897 6.26211 23.0426 4.4117 20.4262 3.3453C20.4136 3.34036 20.401 3.33444 20.3884 3.32851C20.3777 3.32358 19.0705 2.72422 17.0893 2.72422C16.9915 2.72422 16.8946 2.70447 16.8046 2.66497C16.7581 2.64522 12.1255 0.670404 9.32318 1.85233C8.5059 2.19694 7.9462 2.77161 7.61212 3.60992C6.99045 5.17003 7.61793 6.41812 8.51558 6.96317C8.99394 7.25446 9.70857 7.40158 10.1453 6.86048C10.4 6.54451 10.858 6.50007 11.1679 6.75976C11.4777 7.01945 11.5223 7.4865 11.2666 7.80247C10.4377 8.82839 9.03364 9.00217 7.7719 8.23594C6.38717 7.39467 5.32587 5.41392 6.2671 3.05303C6.74836 1.84443 7.59178 0.979463 8.77219 0.482796C11.8718 -0.821573 16.3737 0.891584 17.2355 1.24409C19.3552 1.27174 20.7806 1.88492 20.981 1.97675C23.948 3.19028 26.2904 5.34283 27.2481 7.73829C27.3992 8.11745 27.221 8.54895 26.8501 8.70397C26.7601 8.7415 26.6671 8.75927 26.5761 8.75927V8.75729Z" fill="#F7AD45"/>
<path d="M13.7427 9.98948C13.4251 9.98948 13.0861 9.94702 12.7259 9.86112C11.7295 9.62414 10.9635 9.13241 10.5084 8.43826C10.093 7.80237 9.95066 7.03713 10.0969 6.2235C10.4106 4.47677 12.0849 2.79027 14.0787 3.0628C14.4757 3.11711 14.7546 3.49035 14.7013 3.89519C14.6481 4.30101 14.282 4.5844 13.885 4.53009C12.7308 4.37112 11.715 5.43555 11.5252 6.48911C11.3509 7.45678 11.8941 8.14204 13.0552 8.41753C13.7088 8.57255 14.2017 8.52515 14.5203 8.27731C14.9967 7.90605 15.0296 7.14969 15.0296 7.14179C15.0383 6.73794 15.3617 6.41999 15.7549 6.41999C15.7597 6.41999 15.7655 6.41999 15.7704 6.41999C16.1713 6.42888 16.4899 6.76954 16.4811 7.17833C16.4782 7.32644 16.4221 8.64562 15.4169 9.44246C14.9579 9.80582 14.3963 9.9885 13.7417 9.9885L13.7427 9.98948Z" fill="#F7AD45"/>
<path d="M21.9745 47.999C21.2996 47.999 20.6343 47.8163 20.0369 47.4589C19.1518 46.9296 18.5224 46.0795 18.2648 45.0674C17.7516 43.0521 18.8739 40.9805 20.8212 40.3515L27.7633 38.1081C28.1457 37.9847 28.5534 38.1999 28.6754 38.59C28.7965 38.98 28.5854 39.3957 28.2029 39.5201L21.2609 41.7635C20.0504 42.1545 19.3523 43.4421 19.6718 44.6951C19.8326 45.3241 20.2238 45.8524 20.7738 46.1822C21.3238 46.512 21.9668 46.6028 22.5836 46.4389L30.248 44.4029C33.2431 43.607 35.2795 40.8482 35.2011 37.6934C35.1546 35.8282 34.3431 34.0489 32.9749 32.8116L32.9439 32.784C31.1728 31.1814 29.9749 29.0466 29.4821 26.6117C28.626 22.3846 25.692 19.7877 25.662 19.762C25.3569 19.4964 25.3201 19.0294 25.5806 18.7183C25.8401 18.4073 26.2972 18.3688 26.6032 18.6334C26.7388 18.7509 29.944 21.569 30.9045 26.3115C31.3345 28.4325 32.3725 30.2868 33.9074 31.6751L33.9384 31.7028C35.6068 33.2125 36.5964 35.3819 36.6536 37.6559C36.7494 41.5028 34.2666 44.8659 30.614 45.8366L22.9496 47.8726C22.6272 47.9585 22.2999 48.001 21.9755 48.001L21.9745 47.999Z" fill="#F7AD45"/>
<path d="M16.8607 37.0908C15.6241 37.0908 14.4699 36.3355 13.9818 35.0894C13.3592 33.5016 14.1077 31.6621 15.6503 30.9906L19.0443 29.5125L19.4442 25.0681C19.481 24.6613 19.8355 24.3612 20.2344 24.3987C20.6334 24.4362 20.9277 24.7966 20.8909 25.2034L20.4513 30.0871C20.4271 30.3577 20.2586 30.5937 20.0136 30.7003L16.2216 32.3523C15.3985 32.7107 14.9996 33.6922 15.3317 34.5394C15.6687 35.3984 16.5983 35.8201 17.4495 35.5001L22.8296 33.4769C23.5994 33.1876 24.1388 32.4915 24.2375 31.6611L24.8815 26.257C24.9299 25.8512 25.2911 25.5628 25.69 25.6112C26.088 25.6606 26.3717 26.0299 26.3233 26.4357L25.6794 31.8398C25.5148 33.2242 24.6152 34.3834 23.3321 34.8662L17.952 36.8894C17.5918 37.0247 17.2229 37.0899 16.8617 37.0899L16.8607 37.0908Z" fill="#F7AD45"/>
<path d="M15.5254 40.3147H8.90194C8.50105 40.3147 8.17569 39.983 8.17569 39.5742C8.17569 39.1654 8.50105 38.8336 8.90194 38.8336H14.7982V38.7616C14.7982 38.3528 15.1235 38.021 15.5244 38.021C15.9253 38.021 16.2507 38.3528 16.2507 38.7616V39.5742C16.2507 39.983 15.9253 40.3147 15.5244 40.3147H15.5254Z" fill="#F7AD45"/>
<path d="M15.5254 32.3266C15.1245 32.3266 14.7991 31.9948 14.7991 31.586V30.0397H6.1751V31.5475C6.1751 31.9563 5.84974 32.288 5.44885 32.288C5.04796 32.288 4.7226 31.9563 4.7226 31.5475V29.2992C4.7226 28.8904 5.04796 28.5586 5.44885 28.5586H15.5254C15.9263 28.5586 16.2516 28.8904 16.2516 29.2992V31.586C16.2516 31.9948 15.9263 32.3266 15.5254 32.3266Z" fill="#F7AD45"/>
<path d="M5.44884 30.04C5.19223 30.04 4.94434 29.9017 4.81167 29.6568C4.61801 29.2984 4.7468 28.8482 5.09733 28.6507L10.2053 25.7832C10.3128 25.723 10.4329 25.6914 10.5559 25.6914H19.7454C20.0659 25.6914 20.3477 25.9047 20.4407 26.2177C20.5336 26.5297 20.4145 26.8674 20.1482 27.0481L15.9272 29.9155C15.5932 30.1427 15.1429 30.0498 14.9202 29.7102C14.6974 29.3695 14.7885 28.9104 15.1216 28.6833L17.3449 27.1725H10.7437L5.79938 29.9481C5.68802 30.0103 5.56795 30.04 5.44981 30.04H5.44884Z" fill="#F7AD45"/>
<path d="M6.40846 26.6046C6.36295 26.6046 6.3155 26.5997 6.26902 26.5908C5.8749 26.5128 5.61829 26.1237 5.69479 25.7228C6.19639 23.0953 7.56756 21.7456 7.62566 21.6893C7.91713 21.4079 8.37612 21.4207 8.6521 21.7179C8.92711 22.0141 8.91549 22.4802 8.62692 22.7616C8.60465 22.7833 7.52495 23.8813 7.12019 26.0062C7.0524 26.3597 6.74835 26.6056 6.40846 26.6056V26.6046Z" fill="#F7AD45"/>
<path d="M5.12736 38.1907H4.7807C3.39016 38.1907 2.25914 37.0374 2.25914 35.6195V33.622C2.25914 32.2041 3.39016 31.0508 4.7807 31.0508H5.12736C6.5179 31.0508 7.64892 32.2041 7.64892 33.622V35.6195C7.64892 37.0374 6.5179 38.1907 5.12736 38.1907ZM4.7807 32.5319C4.19195 32.5319 3.71165 33.0207 3.71165 33.622V35.6195C3.71165 36.2209 4.19098 36.7096 4.7807 36.7096H5.12736C5.71611 36.7096 6.19641 36.2209 6.19641 35.6195V33.622C6.19641 33.0207 5.71708 32.5319 5.12736 32.5319H4.7807Z" fill="#F7AD45"/>
<path d="M10.6285 47.7647C10.2915 47.7647 9.94872 47.7173 9.60883 47.6186L2.71232 45.6171C1.75366 45.3386 0.958654 44.6968 0.473516 43.8091C-0.0116224 42.9215 -0.128791 41.8936 0.14428 40.916L0.303088 40.3473C0.57616 39.3697 1.20558 38.5591 2.07612 38.0644C2.94665 37.5697 3.9547 37.4502 4.91335 37.7287L11.8099 39.7301C13.7891 40.3048 14.9405 42.4139 14.3779 44.4312L14.2191 45C13.7524 46.6716 12.2534 47.7637 10.6285 47.7637V47.7647ZM10.0058 46.1947C11.2143 46.5453 12.478 45.8284 12.8218 44.5951L12.9806 44.0264C13.3243 42.7941 12.6213 41.5055 11.4119 41.155L4.51536 39.1535C3.92952 38.9837 3.31462 39.0567 2.783 39.3589C2.25139 39.661 1.86696 40.1557 1.69943 40.7531L1.54063 41.3219C1.37407 41.9192 1.44573 42.5462 1.74204 43.0883C2.03835 43.6304 2.52349 44.0234 3.10934 44.1932L10.0058 46.1947Z" fill="#F7AD45"/>
<path d="M25.3734 37.8169C25.2775 37.8169 25.1807 37.7971 25.0877 37.7566C24.7188 37.5957 24.5484 37.1602 24.7062 36.784C24.7343 36.7169 25.417 35.1133 26.8288 33.6658C28.7548 31.691 31.1011 30.9534 33.6159 31.534C34.0071 31.6238 34.2521 32.0208 34.164 32.4197C34.0759 32.8186 33.6856 33.0684 33.2954 32.9786C31.2657 32.5095 29.4365 33.0931 27.8591 34.7105C26.6409 35.9596 26.0474 37.3538 26.0415 37.3676C25.9234 37.648 25.6552 37.8169 25.3734 37.8169Z" fill="#F7AD45"/>
</g>
<defs>
<clipPath id="clip0_4_310">
<rect width="36.6545" height="48" fill="white"/>
</clipPath>
</defs>
</svg>
