<?xml version="1.0" encoding="UTF-8"?>
<svg id="Layer_2" data-name="Layer 2" xmlns="http://www.w3.org/2000/svg" viewBox="0 0 731.72 727.44">
  <defs>
    <style>
      .cls-1 {
        fill: #f7ae47;
      }

      .cls-2 {
        fill: #ec6a52;
      }
    </style>
  </defs>
  <g id="_ëÎÓÈ_1" data-name="ëÎÓÈ 1">
    <g>
      <g>
        <path class="cls-1" d="M366.27,588.77c161.32,1.21,257.54-145.55,224.79-269.26-34.28-129.49-155.15-188.06-230.05-182.34-111.18,8.49-194.06,64.28-219.53,194.06-25.47,129.78,63.47,256.33,224.79,257.54Z"/>
        <path class="cls-1" d="M203.74,143.23c17.79,8.9,64.69-17.79,67.92-33.96,2.87-14.36-54.98-82.48-80.05-71.97-25.07,10.51-2.43,98.65,12.13,105.93Z"/>
        <path class="cls-1" d="M583.3,198.07c14.45-2.38,57.78-80.54,39.11-100.29-18.68-19.75-93.16,32.52-94.84,48.71-2.05,19.78,39.46,54.26,55.73,51.58Z"/>
        <path class="cls-1" d="M88.4,385.98c-13.34-6.05-92.78,34.9-88.21,61.69,4.57,26.79,95.54,24.68,105.92,12.15,12.69-15.32-2.69-67.04-17.71-73.85Z"/>
        <path class="cls-1" d="M98.62,277.46c21.02-.81,42.88-46.58,38-64.69-5.66-21.02-94.35-35.37-105.12-17.79-15.36,25.07,38.03,83.6,67.11,82.48Z"/>
        <path class="cls-1" d="M166.29,548.02c-21.69-1.86-65.44,76.61-52.6,92.73,18.32,23,91.55-7.21,100.43-34.93,6.42-20.04-29.14-56.2-47.83-57.8Z"/>
        <path class="cls-1" d="M444.03,106.59c18.66-11.23,8.05-100.43-11.82-105.96-28.33-7.88-69.91,59.56-60.83,87.21,6.56,19.99,56.58,28.41,72.65,18.74Z"/>
        <path class="cls-1" d="M731.69,290.31c-2.52-29.29-80.23-44.69-102.97-26.51-16.44,13.13-6.85,62.94,7.83,74.61,17.04,13.56,96.91-27.56,95.14-48.1Z"/>
        <path class="cls-1" d="M572.41,549.88c-19.32-8.33-58.76,23.56-62.16,42-3.95,21.41,69.9,72.56,87.2,61.34,24.66-16,1.7-91.82-25.03-103.34Z"/>
        <path class="cls-1" d="M640.13,418.42c-20.73,3.62-36.26,51.9-29,69.19,8.42,20.08,98.23,22.42,106.55,3.56,11.87-26.9-48.87-77.75-77.55-72.75Z"/>
        <path class="cls-1" d="M328.52,625.9c-16.05,14.71,12.06,100.03,32.63,101.5,29.32,2.09,56.69-72.26,42.29-97.56-10.4-18.29-61.09-16.61-74.92-3.94Z"/>
      </g>
      <g>
        <path d="M280.83,320.96c-8.08-.08-15.02,2.65-20.45,8.05-12.63,12.57-12.73,35.36-12.72,36.33,0,1.97,1.6,3.57,3.58,3.57h0c1.97,0,3.57-1.6,3.57-3.58,0-.21,.11-20.81,10.63-31.26,4.08-4.05,9.07-5.98,15.34-5.96,26.81,.2,27.34,34.9,27.35,36.37,0,1.97,1.61,3.56,3.58,3.56h.01c1.98,0,3.57-1.62,3.56-3.59-.06-14.96-7.34-43.29-34.45-43.49Z"/>
        <path d="M480.73,327.19c-5.48-5.35-12.41-8-20.52-7.86-27.11,.46-34.11,28.86-34.03,43.82,.01,1.97,1.61,3.55,3.57,3.55h.02c1.97,0,3.57-1.62,3.56-3.59,0-1.48,.2-36.18,27-36.63,6.25-.09,11.27,1.8,15.39,5.81,10.59,10.32,10.93,30.84,10.93,31.15,.01,1.97,1.61,3.55,3.57,3.55,0,0,.02,0,.03,0,1.98-.01,3.56-1.63,3.55-3.6,0-.97-.32-23.75-13.07-36.2Z"/>
        <path d="M398.51,394.66c-1.66-1.06-3.87-.57-4.93,1.09-.09,.14-8.94,13.71-23.33,13.98-16.86,.35-23.98-12.13-24.29-12.69-.95-1.73-3.11-2.36-4.84-1.43-1.74,.94-2.38,3.11-1.44,4.85,.37,.68,9.15,16.42,29.92,16.42,.26,0,.52,0,.78,0,18.29-.34,28.79-16.6,29.23-17.3,1.05-1.67,.56-3.87-1.1-4.93Z"/>
      </g>
      <g>
        <path class="cls-2" d="M216.38,395.53c-11.76-.15-22.91,10.62-21.86,22.9,.93,10.93,7.28,20.58,21.01,21.3,11.74,.61,23.62-9.11,23.99-20.71,.46-14.28-11.38-23.33-23.14-23.49Z"/>
        <path class="cls-2" d="M523.89,398.87c-11.76-.15-23.83,8.58-23.75,22.87,.07,11.61,11.68,21.45,23.44,21.33,11.59-.12,20.5-9.18,21.57-20.74,1.41-15.21-9.5-23.31-21.26-23.46Z"/>
      </g>
    </g>
  </g>
</svg>